<mxfile host="app.diagrams.net" modified="2020-11-03T14:36:41.461Z" agent="5.0 (Macintosh; Intel Mac OS X 10_15_7) AppleWebKit/605.1.15 (KHTML, like Gecko) Version/14.0 Safari/605.1.15" etag="LL2icSYwlHAPX608xrCs" version="13.8.8" type="github">
  <diagram id="INhTTV7Zgw99yu5ARDpD" name="Page-1">
    <mxGraphModel dx="984" dy="602" grid="1" gridSize="10" guides="1" tooltips="1" connect="1" arrows="1" fold="1" page="1" pageScale="1" pageWidth="850" pageHeight="1100" background="#E8E8E8" math="0" shadow="0">
      <root>
        <mxCell id="0" />
        <mxCell id="1" parent="0" />
        <mxCell id="BB8o8y4dJ1L9ylsIL_xW-11" style="edgeStyle=orthogonalEdgeStyle;rounded=0;orthogonalLoop=1;jettySize=auto;html=1;" edge="1" parent="1" source="BB8o8y4dJ1L9ylsIL_xW-2">
          <mxGeometry relative="1" as="geometry">
            <mxPoint x="240" y="320" as="targetPoint" />
          </mxGeometry>
        </mxCell>
        <mxCell id="BB8o8y4dJ1L9ylsIL_xW-2" value="" style="shape=image;verticalLabelPosition=bottom;labelBackgroundColor=#ffffff;verticalAlign=top;aspect=fixed;imageAspect=0;image=data:image/png,iVBORw0KGgoAAAANSUhEUgAAAZAAAAGQCAYAAACAvzbMAAAACXBIWXMAAGl0AABpdAForRwYAAAgAElEQVR4nO2dT4hcyZ3nI40ZaB+mxAwDHrCRDNMLuwNWNczBPixS+zB7sEHV4Lla1ScPuYdW3xbPmK5mF7O3rr4kYxjokq/T0CXWPuwe3Cp2F/u0XeXDDqxZLOE5+DJeaQ72MZdvZjwplS8z62X8IuJFvPf5gCjpvW4p872I+Mbvb0zm87kDAADYl8/xxAA2M5m6w8nU3dp4EwAcFggMhsnU3XDOHfrvc8v/EqvXmz/fjvy9r5xzz1b+fLny5yf+1+L6fPbKfwdQLQgIVIO3BlZ/HXox0O9vVvYmn3pReebFphGZJ/PZC7EBKBoEBIpDriP3UiAakbgzsjd1sSIul15YLlv/FUCPICDQK5Opu7siFLdGKBT7cuEtlUvvDntc18eHIYGAQDa8C6oRjLsJ4hBjRfGXx15UHuMCg1wgIJAM74q6uyIatcUpauVpIyZeUHB9QRIQEIjGioVx5H8e8HSL4LkXk3MsFIgJAgImJtMXYnGEhVENT1fE5HzsDwPCQUBgL3ytxRFWxmBYtU7OqVGBfUBA4Fq8a6oRDbKkhs3Fipjg6oKdICCwEW9pHPtfZEuNE2V3nekXlglsAgGBF6y5p+7xZGCFR7i5YB0EBJpivmMvHMQ0YBfPvZCcUcQICMhI8XGNxkVF9hSE8HTFxUW8ZIQgICPDWxsPcFFBZOTiOsUqGRcIyAhYCYg/wNqAxMgqOSXwPg4QkAHj3VQnxDagB5pYyQnureGCgAwQ3FRQGLi3BgoCMiC8cJxQ7AeFcuEtEoRkICAgA2AyXcQ3TohvQCU89UJyxgurGwSkYhAOqByEpHIQkApBOGBgICSVgoBUhI9xnCEcMFAkJMfESOoBAakAguMwMgi2VwICUjC+juOUdFwYKUr/fUAdSbkgIAXiK8dlcbwz9mcB4Jz70FskVLYXxufG/gBKYzJdFAA+QTwAXqC58MTPDSgILJBC8HGOUw5vAtjJlXdrER8pAASkZ7y7SsJxf9QPAmA/Hnohwa3VI7iwemTFXYV4AOzHfdxa/YMF0gOTqTv0VgdpuQB2Lrw1csmzzAsWSGYm00V21WeIB0A0NJc+83MLMoIFkglvdZwRJAdIypWvZscayQAWSAZWrA7EAyAtt7FG8oEFkhCsDoBewRpJDBZIIrA6AHoHayQxWCCR8f2rzgiSAxTFhbdG6KsVESyQiEym7si5hbmMeACUhebkpZ+jEAkskAhQTQ5QFVSxRwIBMUKgHKBKCLBHABeWAX+07GPEA6A6NGcf+zkMgSAggUymC5fVR865gyq/AABo7n7k5zIEgAtrT3y8A6sDYFjIpXWXuMh+YIHsgY93PEE8AAbHbd/d95BX2x0EpCPeV/oZLiuAwXLgCw+Ji3QEAenASrwDAIYPcZGOEAPZgY93KEX33vb/CgAGyiOf6ktcZAsIyBZ8S5Jz4h0Ao0bB9SNaoGwGAdmAD6Q9Jt4BAM655z5Di6LDNYiBrOF75SAeANBw4IsO6aO1BgKygs+++ATxAIA1tCZ8QobWqyAgnsnUPSDTCgCu4SO/VoweRwxkyWS6yLSiky4AdOXhfIY1MnoLBPEAgADu+7Vj1IxaQBAPADAwehEZrYAgHgAQgVGLyOhiIL66/JxjZwEgIhe+4HBUVeujEhBasQNAQkbXEn40LizEAwAS05xyeGMsD3pMMRD6WgFAam77tWYUjEJAfJCLmAcA5ODOWALrgxcQsq0AoAdGkZ01aAFBPACgRwYvIoMVEMQDAApg0CIySAHxzc4QDwAogftD7eI7uDoQ/6LoqgsApfH2fDYsa2RQAuIPfPmkdQMAoAzems+Gk+Y7GAHhGFoAqIBBHY87CAGZTN0t5xYvBPEAgNKRiBzOZ+5J7W+q+iD6SnNExAMAakBr1fkQWp4MIQvrjBYlAFAZt/3aVTVVC8hk6k6dc/daNwAAyueeX8OqpdoYCOm6ADAQqk3vrVJAfMbVZ60bAAB18kaNmVnVCYgPPD0haA4AA0KZWbdqO4yqxhgItR4AMDQO/NpWFVUJiA84kXEFAEPkdm1B9WpcWATNISd3/5Vzf/Ynzv3mX5z74h869/H/cu7Z73kFkIVqgupVCAhtSiCUwy85d+ML/udrL38v9OfbX7I92qt/eiksl/r975Z/bn6vnwB7Uk27k+IFxAfNH+O6gm1ICA6/vBSGW3/88ufNP9ryP2Tm6W+de/LPSzFpfl7+GosGdnLlRaTooHoNAsLBUPAKci9JJJqfpQjFvkhYJCaP/8/LnwArPJzPyj5HpGgBoT07OC8Yd19f/rzz+rAfycUvl0Ly+JcICiwouv17sQJCh93xIvfT0e2lYNz76rifxaNfLIXk/Grp/oLRUXTn3pIFRHGPO60bMEjkijr++lI4anVJpUYuLwnJ2c8Izo+Mi/nM3S3xKxcpIJOpO3HOvde6AYMC0QgHMRkd789ni3WxKIoTEPpcDRtlTEk0jr9mT6GFJUolPvv5UkzI7Bo0xfXLKlFALknZHR6KZ0g07n9t7E8iLQ9/vhQTAvCD5Go+W2ywi6EoAcF1NSxkbcg9dfItXFS5kYvr5MdLNxdWyaAoypVVjIDguhoOyqJ68I2lxXHw2tifRr88//3SIjn9KVlcA6IYV1ZJAoLrqnIkHCffxE1VKnJvnfwEIRkAxbiyihAQXFd1g3DUBUIyCIpwZfUuILiu6gXhqBuEpHp6d2WVICAUDFaGguMKjL/z5tifxDD48NNlwJ1ge3X0XmDYq4BMpu6Bc+6D1g0oFlkcCpATHB8WCrYr0C6LBKri3fmsv0OoehMQzjavC9VxnH1neOm42n2HWlJf+b5zp381rH5dSv89/hF1JBXR61nqfR5pe4p4lI/iHOd/7dynD4YlHtpxv3nq3IN/aN3qjGIHR3/n3Ns/Wv59Q0DvWO9a71zvHornwK+lvdCLBTKZLvx2n7ZuQFHIVSWXVZ/uKu2ItRv+i5vO/fmftm4HodYfdz946fOfz8L+nsn05e/V10sWWqz2LP/4G+e+8Af9irZEUS4tubageN6czxbx5Kz0ZYFUdXD82NBi+Phd5z74dj/iIdGQa+mNHzh362+XO/1Y4qHMo8MfxA8YX3pRuorU2PBff3FpHekZ6FnomeRG715jQGPhkL5lpdPLmprdAiFwXjayOrRo5Ea7XbXd0G53tbusFq7Pvhfnw0g85N9fJ4YFsooskRipzXomErsmzVbPQu9H7WH6EPZ3P8YaKZzsAfWsAkLgvFzk79bCl/vEP53Apy6yarexjtKFL/8mjhtnm3i4BALiIoqIns/dDdsttYlRV+M+3peeI7UjRZI9oJ7bhXWCeJSHdrSX38u3GGlnrQVdWUxaHDeJh4jVhHGXeKRC/54WWyt6J7I61tEz07PTM9T3yxXE1+fRWDmi6VCJHPg1NhvZLBB/RO2vWjegN7TDVxpqrkpy+fFlbcgNcl0MQmnDygay0kU8Ulggzj9fxQ+sgfV1V9Ym9G8tGlh+PV/gXc9WcRoKEIvjK7mOwM1pgRA4L4gmUJ5DPCQcSnVVQFxZPdctOFoM5QKyooC2JU3Xir6nrASrdXDQ4Xk88xlTesZ61jmC7ho7BNiLJNtam0VAfNruvdYN6AW5H2LsjK9jVTi2uak2oZ20dRf9/Pevpur2RSwR2ebK2oSedS4hue03Iri0iuKeX3OTk8sCKe4s37Eil9Un302bxaPFMkQ4nLeM3vtm6/LelCAeDZeRLCHV5NzY472tCknKGInGksaUxhYUQ5Y1N7mAeCWkWWLPaOFRdXHKBohapN7/SZhwNMRYhJRuehmpHiMWeh4PA59Jw8FrYc+nERK9m5RCorGlMbaPyEEy7uSwQnJYIGetK5AVpejKzZCyZ1NToNclxrENpaZaM8GU+VRqrYKsEGuhoeIOSjDYlyZGondkFbJdaIxprNEGpQiSr71JBWQydcdqr9O6AdmQS0hpl6niHfKxq6eUtTbgRuDuehXtrtWbqlS0iMdIJz41FHrqHekz6J3Fqppf57YfcwTXe+emX4OTkdoCIfbRI9qpajeYKt7RuKtidG6N0SJeC2PpKaVyrb1vbJmuBfrYmD2ndyZrxPpZtnHgU5hDrCWIStI1OJmAYH30ixYY1VGkEA+5iVTAFuvsCLk7rIHzR79YtkKpAT036+5fRZYxYg36LHqXMYoe19HY0xi0ih2YSGqFpLRAsD56QhP2o2vqBkJRgFoZTjFbWZwYxUOuq+OHrctFY3VlKc25a1rvdehd6p3q3aZAYxER6ZVka3ESAcH66I9U4qEdszrDxg5Qy8VhLWassRo6hitLAhIz40nvVu84RWwEEemVZFZIKgsE66MHUomH2onLX54iNdZqfSyaMSbMKkqJFmxLod+BP5s+JnrHh76FfGwQkV5JsiZHFxCfe4z1kZkU4iHX0Fs/TNcORNaHNW03d5PEmMhqsj5b1V6kSJnV59K7j103goj0xs0UdSEpLBCsj8ykEI8rvxNNGZi2Wh/aJdfeVlzP1xrAtj7HbeizHSZwaSEivRF9bY4qIFSd5yeFeDz8efxA+TpW62Nx3OqPW5erxGpFKYaUqnCvCbDHLj5ERHohenV6bAskQgNu6EoK8VAmTo56Cuuu2VLxXhpapK0xh1RWiFspgIydpYWI9ELUNTqagPjzPui4mwnt4GOKR9MAMUcbEKv1ocDz0I5WlTVliTektEIa9MxjN2bUGKbYMCv3/FodhZgWCLGPTKhFxPl34/1bTevzXNlMZutjIK6rVbTLt4pirLqQXTQnIcYUEY1l2p5kJdpaHUVA/FnnR60bEJ2mMWKsCnMFSLUg5Opea7U+ak7bvQ4JiGVhljsoRyfcSz9mYgXXm7YnNGDMxpFfs83EskCOOes8PYuW7BHP8sgtHs7Zfd6x2qeUiNUKOXgtjxXiEomIxjat4LNw4NdsM7EEhOB5Bs7ux+uq24hHzkC0dpiWqnNZHzEaN5aMBNJSXBi7On0XzWmLsUREY1tjHLIQZc02CwiFg3lQq/NY53n0IR4uUubVGLDEeLSTz3m8bGwR0RjnZMMsRCksjGGBYH0kRgtCrJME+xKPG8aFbQzWR4NiPJZYSOz2JtcRW0Q01jljPQvmtdskIKTupkfZKWeR0nX7Eg9x/HVb7GYs1keDJRaiTr25F+DYIqIxT2ZWcswpvVYLJOlpV2NHu3ZNpBhB8z7FwxlTTBUTGIv10WDNyMoVTF8lpogc+LFPUD05pjUcASkY+YJjBM37Fg/thrUrDmWIdR/XYc3IUqp0H2mxMUVEY594SHL6ERCC52lRuqv1nAzXHLbU81GvVutjqHUf11FDYeEmmtYnMYoNNQdod5IUUzDdYoFgfSRCO8cYO6+mwjxnncc6+i6WwsGhtSzZBy3EliaGuQoLN9HUicQQEc0FigyTEryWBwkIledpiRX30JkOfYqHM+6Ctfic/ax1eVRYkgdyp/Suo7EX4yyZJh4CyQiuTA+1QI6oPE+DaiWshyw531W3BNePxf2gzz+UjruhqFOv5byQvtxYDXqHMbr4ak6k7Dg8cg5CDQKLgEBklLb4XoRJIrdHCa4fiYfFkhqz+2oVy3NQILrvdFh9/hjniWhukNqbjDwC4k0daj8SECPucRXJbRAD1X6E8ugX9Z82GAudDGhpb2J5D7HQmIyRmUVWVjLuhbixQiwQgucJkKvB6rpSzODoh2W4fazB87HHPtaxWCElZDE982PTGlTXmOrbLTdg9l7bEZAC0GIbw7+r1MlSdu2WRUu77ZRnsdeIRVDlRixBRDQ2rcf3Oh8nJCsrCWkFxJe906UmMjLLrVlXOhK1pEXX4jYh9tHGmtJ7dNi61Asao9bjezVXcGUl4fa+rU32tUAInkdGByxZu+yWFPdw/jtZKs9xX23GklWnMVbKrj1GPETfh6Nwk7DXGo+A9EyM/PYYboGYWNwlD0nd3Yr6gVmC6SV1uI0xZqkNSUIaAfER+jutGxCMfLmWnbrz9R59FwuuY1moiH3spvZgeoPGrLU+RHOH2pDo3NknG2sfCwTrIyI3Ihw/qgKz0uIFEo/QeA7B8+uxuPdUE1JS8Flj11Ik6TKfwDgiOq/1CEhP6NAfa+C8NNeVMwbPEY/rkXtPNTKhlJYCax3DmkO5D9AaAUkExHz8ISzRLtB6wuD7Pymv0E47QUtCANlX3bBYIaWd9Kcx/L7xsDDNJdJ6o9J5re8kIJMpva9iYvXbKoOlxBP6LIuTvhOV592QpRZakKe4QWntQDSWrVlZxEKicuDX/GvpaoFgfURCOyXrOR8PIjSnS4Gl1mCsZ36EYnH3ldDaZB3rmNacwgqJSqc1v6uAEP+IhHWnpDTXEo93tbqvqP3YD4u7rzQ3lvMpytaGi1ghUYljgfjKRE4ejIDV+pDbokTXlTMuSgoKU/uxH0qDDa0JKdGN5bwry9IrCyskKje7VKV3sUBwX0XCukPSrrPUOIHFfXV+2boEXZ7bwNxYGtvWRAqskKhcu/Z3ERDcVxGIYX2UnKVkcV+RvhvGkLKxGjTGsUKK4dq1HwskE9b8e/UPKtXNg/uqH6xurBIXWo0Fa1832r1Hw2aBTKbukPRdOzeM7bS1SJScpWRqXYL7yoTFeivVCtFYNx2g9TWq0yNx4DVgKzsFBOsjDvI3W6rOT37culQU9L7qD4sbq6TeWOtYxvzi/JMCYzyVslMDEJAMWEzq0q0PZfOEiiPuKzsWN5Z6Y5W6U7daIbixorFTA64TkJ3mC1yP9WyM0q0Py06vxHqWGhmiG8sZx77mHOeFRGGnBkzm83nrontZ//Gr1g3YC51ZYK08B4D9UWFiiQ1HK+Qr85l7sulj77JAdpoucD1yDyAeAP1wn2B6LLZqwS4B2Wm6wPUQyAPoF+ZgFLZqwS4B2ao60I2Ss1wAxgBzMApbtWCXgBQcXisfZSfdLrDfEMCY0Bwsse9XZWzVgo0CMpluVxzoBqYzQBkwF+1s04SNArLL5wXdKDk9EmBMMBejsFETEJAEyGS21H4AQDxKbV9fGRs1YZuAXNsHHraDyQxQFsxJMxs1YZuA3Gldgc5gMgOUBXPSzEZNaAnIdd0XYTdqkY37CqAsSm1fXxObtKElINtMFegGOx2AMmFummlpwyYBaakMdIcGbgBlwtw009IGBCQylqNdAYC5WTAtbfj8hs96o3UFOmHZ4fzX/+3cf/5vrcvF8e03nPv3G8Np1/Pux8vzK0rj0wdhH+jN09alIrC8o+//F+f+x/9tXS6K//CXzv27fxP2iTRHOUYgmJY2bBIQMrACuft6+P/7d/+9joFtOajn9KetS1VT6vt69rtwAfn858ofh+qwGywgryMgBlqj6hUXlj8DBAKxWCC1HO0aWpB18cvWJUiErLzngSc91hAnsMwV4iA21jViPQaCgBi4E2iB1LK4WlKUS3RdDZnHgWMqdAznJnTO1PL9CgYBSYFlZ1OLSW1pB4HbIC+Xvw7/52po+2EZT1ghJhCQFFjiH6G7xdxYFhYskLxYxlQVAmL4fpa5CrsFpJWmBd04/HL4g6pldx66c3v6W+ee/HPrMiTEMqYsYzkXQ/9+BbNTQFppWtCNMQSXQ78j1kc/XAU+91o614bOHTrzmtgpILiwAlBaYWhwuRbrQwH0g9dalzth8cdDOKHCXUugOXTuaK7eCBzLsFtAbvJ89sdiEteyO7c0oqslxjM0LGOrhsaDlu+HGyuYVzTihYBMprivQhlDcNkSeMQC6QfTAluBm2fo369UVrVi1QIhgB5I6G5NxV61BJdDd2wKoD8LLGoDG6ZAcwULrOZOaMEkrd1NvNCKTc0UYU/GEFy+RQFhlQQH0itx8YSOLyyQOKwKCAH0QEIHY03FdbdDRRL3Va88+W3Yvx66YchN6BxCQEy80AoEJAKh2Um1uHYs5j4WSL+ECnjohiE3oXModM7Cgo0CAgGMIYBuERAKCPuFTKztYIXYWRUQsrACuPGF8P+3FveOKQMLC6RXLAJehYAY5pBl7o4csrBiYdnFDD07KTSAC/EY+g7dMoewQIIhCysWoRWtNS2uoT2wSN8tg6eBgfRaqrVD5xLV6HYQECOhZv4YFldauJdBqBurllTe0LmEC8sOMRAjoQJSU3CZQ3jqJtSNVcsOPVggcWGFsjEGcruajz8AxpCdRA+sMtAZ6SHUUq1Npl92XmgFLiwjQ/ejskurn1ALJLTDdC0QA7GDgBgJLbiqZddk8RMTAymDocfbQudSLcWSJYOA9ERoiwmAfQl1YblKzg9nLvUHAgI7CXVhhXZJhfhQzAmpQEBgJ6F+YhYtgOGDgAAAQBAIiAEOpYFaCK1GH3oWHplYNhAQA6ZzwslQgoyEZirVsMCaTl7kbHQTCwGZTGmkCAAA3ZhMl2eCYIEAAMC+LNqZLARkPnOXPD4AAOhCoxlYIAYs1eQ1FGjBcBhysNgylziz3wYCYoAmblALoW07ht4QkzNrbCAgAAAQBAICOwndoXGGCMDwQUBgJ7QkqR9a8kMqEJCeuDXwsxYcVb7FMPSW/GOYS6WCgBgJPdC/ljYollbgVPmWwdCFPHQuhc5deAkCYmToWRy4sOqHlvybIQPLzqqAXNX6JWpkDI0Y7xJIL4JQF1YtmweammbnhVasCsiz4X/v+IROspoG/cXAawGGTqgFUssOPXQuYV0H80IrcGEZCY0RjCHATLV9GQQvsJVUaYfOJUt8D5YgIEZCd2k1HegfmomDa6EMbgZmKdVigYTOJWIgdlYFhIaKAVjM4KFbIaELF8TDUgNSg4vHModwYQXzQiuIgRgZQ5qrpR8SRWz9YrECa+j1ZplDuLCCIQYSC8suppbF1bKQ4MbqF8sYq0JABm5hlc6qgDwZ+8MIJTRfvhYXlmUhwQLpl9Adei1FdqEblKHXuCTmhVYgIBEI3cnUlKUUuqBQjd4voW0+nvy2dalIQjcoWB8mNgoIBBI6GGvanYcuKFgg/RKaoVRLCi8C0i9kYUUg1MVz8Fo9MYLQBUWZWDRV7AfTSX0VLLCaOweBY4vD4Ey0s7DmM7KwQhlDIN2UiYUbqxeGHmAmgN4Pq1qx7sJ6OoLvHx2LuT+GTCx6YvUDGVjb4Sz0YF7RiHUBIZAegCpanwbGCGoJpGtBCc1cwQLph9AFtpbeZ6FzR3OVKvRgXtGIdQHBjRVIqElc09GvY0gWGBLBAfRK3Duhcwf3lYlXNGJdQAikB2IxiWuxQkJ7YhFIz48pgF6Be2fo369gXtEIXFiRsASZa4kRWHZudObNi2VM1bBDt3w/y1yF3S4sBCQQy9nRtSyuCEg9hMadFOeqQkAM46mGc94LBgFJRWjwsZY4iALpockCxEHyErpDH3r8g8PRzGwXkPkMAbFg2dkc3W5dKpIxJAvUjsQ6tMCuht25Za5gfdhY14jPb/jbLjTfW1fhWuRbfS/wMf31v60jtfCf/l/rUmcefGNYGTCluuW+/UbrUmc0Bkt3N2quhEL8w8TF+v88mc/nr16YunPn3L0avk2JzGdjfwIA5TKZ8nIMPJrP3NHq/76pmSKpvAYe/aLajw4waJibZlragIBEBh8rQJkwN820tGGTgBBIN3B+Ve1HBxg0zE0zLW1oCch81lYZ6I4l1RUA0qA5SQt3G5u0oSUgnla0HbrDTgegLJiTZjZqwjYBaZkq0J2zn/GwAEqCOWlmoyZsE5CWqQLdUa0DbiyAMtBcpAOvmY2agIAkApMZoAyYi1HYqAkbBWQ+c49bF2EvMJkByoC5aGebJmwUEA+6bUAm8xVmM0CvaA7ivjKzVQt2CchGxYHunP2chwXQJ8zBKGzVgl0CstHnBd3BdAboF+ZgFLZqwS4B2ao60A11Nn3IDgigFzT3auhwXQFbtaDVjfeVm9NF7u/N1g3ojFpjf/og/Hm9/aOyzfDTv3LunTdblzvx7sfOnf409yduE9pBuZTOrpZ3UPL4Ov6acx99p3W5M2+e0v8qAk/nM3dr21+zywJxu0wX6IYGsKUm5ORbrUtFYXERcMxtHCwHLJWc4moZ+5pziEcUdmrAdQKy1XSB7lh22Tf/aLkTKxVluDwPdBPc+6pzNwJPzoMlOn1QYyQEZSiV6uLRmA/9Xs445+AVdmoAApIB7dJDF1lXgRVi2cXWcpRvqRx/PfyDlewatYx5zTWC59HYqQE7BcR3X3zeugF7oV2eZbKWboWYBOSwdQn2eX4DdF9ZrY8zguexeL6pA+8qOwXEs1OBoBtWk1qB0lLdPZaFCDdWOBb3VantzTUWNNYt4L6KxrVrfxcBOW9dgb3RZLWk9B685tyDb7QuF4PluFDcWGFY3FelWh8a4weGDYXmGOd+ROPatR8LJCMnP7H9W5pct/64dbkIzncaurvBjRWGRXhLjBFobFs3SdY5Bq9gt0Dms0UtyNPWDdibGFbIyTdbl4vA6sYqVRhLxeq+KrE/lMY21kcxPPVr/066WCAON1Y8rDuk+18rs35CQUvcWPmw7NRLdF9pTN83JopgfUSl05rfVUBwY0XCaoWI02+3LhWBxY1VcpZZiQzNfWUd01gf0em05ncSkPlsoUak80bCulO6/aUyXVmWna2+E26sbkg8Ql09JbqvNJb1/k1/B9ZHTJ77Nf9aulogDiskHtopffip7a9775vlLbhWN1bJWWYlMaTsK43h94ybIc0lrI+odF7r9xEQ4iAROfmxrTpdnBkazaXC4h4hDnI9qpNQ0kEopdVIWMew5pDmEkSl81qPgPSEduvWyXzn9fJ27drhhgqjsooQkd1YrA/1vippp66xqzFsQXOIqvPoxBeQ+cw9c85dtG5AMPLbWjr1ig++vUzpLAmLm8SyQI4By4ahpN5XGrMfGAPnmjvEPqJz4df6TuxjgTiskPgc/8j+V5bmyrIsVLQ22Y5SXS09okqKf8QYszHmDrTYa41HQHpGZxZYAs/OZzBZ+wfFxHoGChXr4lAAABCGSURBVFbIZiypzhpjpbivNFatWVf6Ppz3kYR0AuIrEws+gqZOHvyDPaCuE+lKih9YgulkY7WRVWYptLPU6MREYzT09MQGzRXNGYjOVZfq81X2tUDEWesKmNDOMIYvV26BUlJ7re3rCaa/isUqe248TiAWGpsxXFeaK6TtJmHvtR0BKQRlk1z80vZZVFx2/t0yYgia4BbXHG6sV6m9dckNPzYtva6E5gjt2pORXkB8hP5R6waYiWGWlxQPsbhNaLD4ElljtR/vGiPu4SLNEdjIo32yrxpCLBBHMD0NajHxfgRXlnzlJcQR5DaxxHaIhSyxPAfVfvTdukSf39ooUWhulNhFeCAErekWAaE3VgLk37W6spyvDymhQaHF967PP/aUXllhlmK7vq0PvUNrvYfzritqPpLxPKuAeFMHKyQRym+3ZmU57zbou8jQsoDJXz72WIilaabGUJ/xj8NI7lR9D2o+knIe4r5yBgvEEUxPhwLQMXy9WoAfv9uviOi7WCyqMbuxrKm7sv76avOhMaexZw2aOx/3IOsqKcFrebCAzGeLjo2cVJgITX7ruSHOi4hSJ/t0BVmsEAWPx3pWiFU8+3Jf3fBjLoZ4aA6U1IJlgDz1a3kQFgvEYYWkRTuvqwhBw9t+N9iXiMiNYqlMP/lW69Lg0buyCIisvj527Te81Rsj40pjn6yr5JjWcASkYJ79Pl48pG8RsVohJR7jmxKJh2UH34f1EVM8mrgHnXaT05+A+LJ3akISorTFWAHEPkVErU0sQljiCYwpsSQPyNrLHTyPKR7OJ5KQspucR/u2LlnHaoGI09YViIoWA+sJhg19icgzYzsNpbKOxQpRzMdSOJj7gKXY4qGxXtrJiQPFvHabBYRgeh7kC7Z27W3oS0SsbpWxWCGWmE/u1N3Y4qExTtwjC6bgeUMMC8RhheTh+GGcoLrrSUQU1LVklo3BClHsw9q2JFfcILZ4aGxrjEMWoqzZsQTkjMr09GhhOPphnKC6WxGRnHUiWCHb0YJsLRzMFTxv6jxiicdzP7YJmmfheawEqCgCQmV6PrSLv/tBvSKiwKilsFBWyFDrQqyZV3Jd5ViAU4iHxjTFgtkIrjxfJ5YFIk5aVyAJWoS1W4tFU7Gea2G29jQaYl2Ite7DRXiuXdAYiVVh3qCxTMZVVqKt1dEEhJTevOg4z7cj9gfSgvDRd/K0DtFnt1ghihEMrcWJRNGyKCu2lHoHr2f+UaQK8waNYY6mzYo5dXeVmBaII5ieF6XFxhQR57v45mh9YrZCvjmcTr3quGs95jWl9dG0JonRVXcVjV3alGQn6hodVUB8WthF6wYkI4WI3PduipQHOlmtEO2Ch+LKsh7zmtL60BjQWIhxnscqiEcvXMRI3V0ltgXiiIXkJ4WIKEB6+b20Z5Nbd83atdd+aqGer+W8D5fQ+tBn0xiIFSxvQDx6I/raHF1AKCzshxQiol3+J99Nd0Su1QpxEXbvfSLXkPXZqmo7hfWhz/VJhDPM10E8eiNK4eA6KSwQhxXSDylExPmdvnaiKVJ9rVXHNaf1WosGlf4au23Jobc8rTGZTSAevZJkTU4iIPPZokgFK6QHUomI3BiffS9+9pPSN63nnmi3XFtAXQv1e8aiyNhV53q3nyVwWTnEo2+e+jU5OqksEIcV0h+pRMT5LK3YAXarD39xaNb91uWisbre1HE3VtV5EyiPnWXVgHj0TrK1OJmAYIX0iybsm6fxKtZXkdvoV/8xXlsR+fDfN4rIva+mDfjHRM/NusuX6yqG9aHPondpDeRvQmNPYxDx6JVk1odLbIE4rJB+UZA6ZtuTdeSCkb88RoND7aatn7Pvo3u7EMN1paaD1kVZ70zvzvpZttG0J6FIsHeSrsFJBQQrpH8UYzj8QbwuvutoJ/3pg+XibXFraTdtDaiX7spqCvKsPPg4/C/QO9Jn0DtLEetwXuA05mhP0jtJrQ+XwQIRx60rkJWmAWOs80Q2oUIz7WgtFeLaVVvTeuXKKrXNiYL91kVbCQchu/qm06/eUeyiwFU0xmiMWAzJ197JfD5vXYz+j0wX+cd3WjcgO1rEUqRorvLcWxMhbpZDn+1l5Y09dsDzWetSJybT7v+tUo0/Mlofeq63/nb/2If+bb332DUd6yiOlaOhI3RCVed3Uz+qHBaIIxZSDlrY34p4psgmmsaMT/7T/jUaWvRjHN/b19nvm5AoxijG1LvbRzz07PUOYjdAXEdjSWMK8SiKLGtuFgvELXdrOi/kXusG9IIWNfnCU/nBV1HKqbKGulokWvgv/8ZWZOe8L17ulOsW3ZQWiL6LFnHrAi7Xnr5LFyQc6hNmfX5dWJwi+CPiHYWhjrtHOT5SLgtEPGhdgd649IurtYivC1rIGoukS4xEC/5xhDqW25F2/qE0R75axeN5h+fRxDgaiyOHeGjsaAwhHsWRba3NZoG45Y5NrYTfad2AXlH9xFliN8cqWhB1ep5cHruCrbHiNVrodi3AqSwQiUeM+op3P95eNKisKgmH3mHO96fnqXcIxfHhfDZcAbmhpCC5yVs3oVea9M4UBWW7kGvm7Geb3VuxXFnuGhFJISB6ljGynba5ruSmOv56P+9Lz3GX8ENv6KzzW7GOq+1CVgFxy0knddwwJaAElAKbqqXFLhqr5GwtTTVWVpbbISKxBSSWeKxnXelZ6P3ktDZW2WUJQRG8O5/lPdQvu4C45cS7lIu6dQOKoMkayr27bVDQfSEmP1v61+WiiVUxvUlEYglIE/OIlZigzCbt9GVpSDRyxDU2IatDGWDEOormaj5zh7k/YF8CovzkCMmakBLtdrV497HbbZCYyCL5i5vO/fmftm4HsZ6dFUNAYme1/eNvnPvCH/QnGq5pF/8TrI5KeDPFeR/X0YuAuOXkU4l9ZT1Ux4diI7JGVOE9JLQ4Hv1wKU5WAclVqJcTVZTL6iDWUQUP57N+On70KSAE1CtCzffOMqWH5kRFi6GZXl/5/vDEVRafXHw0QayG7IHzVXoTEEdAvUrk0pJra0i7bVhaZHJVUU1eHdkD56v0KiCOPllVsiha+1b6nlqQB1lhsc4Xgaxk6Xe1ixIERJkDn7VuQPE0RWwpu7tCOpSRdl0xJxTNG/PZIqO1N3oXELcUETX+eq91A6oAIakLhGMQvD+f9d+ktggBcdSGDAKEpGwQjsHQS83HJkoSEFxZA0FCokC70lsJtvdLExxXhT/CMRh6d101FCMgDlfW4FCwXRXUuVqLw0uaFvqq6Cc4PiiKcF01FCUgDlfWYFEdiSwS3FtpkZtqvZ8YDIZiXFcNJQoIrqwBI6tEvZ0kJjkOsxoDas0i0VDvMKyNQVOM66qhOAFxuLJGg/pH9d0osFbWG07C4CnKddVQpIA4CgxHB2JyPYjGaOm9YHAbJQvILZ28Sq+s8aEsLgmJ4iZDa+K4L2pqqHiGhIMsqlGiXleH89mib2BxFCsgbikiOhj+k9YNGBUSkruvL3/2dUZJLnT2hgTj8S8JhMOCt+Yzd17qoyhaQBxt32EDEhK5vJqftbq85JKSK0pC0fwEWKG3Nu1dqUFA1Pb9Mam9sA1ldh1+eSkmcn81P0sRFgmF3E8Siebn5a/JmIKdXGmv1Feb9q4ULyDuZWrvY+IhsC8Skxtf8D9fe/l754XHmkqsFNpGCCQMz363/HPze4LdEMBzLx5FpexuogoBcUsRkSn3UesGQALkHvuzP3HuN//i3Bf/0Lm//588ZcjG2/PZwnVfPNUIiFuKiA5Oead1AwBgGHw4ny0O2quCqgTE0eoEAIZLca1KruNz19wvkbveRwgAMBSe+7WtKqoTEJ+VUN2DBgDYQfEZV5uo0QJxPjvh7dYNAID6eLuGjKtNVCkgbikiylL4sHUDAKAePqwl42oT1QXR15lMF2X+91o3AADK5tF8tmjXVC3VWiArHPuqTQCAWrjya1fVVG+BODr3AkBdFN1hdx+GYIE4/yJI7wWA0mnalFQvHm4oAuJeZmZVbxICwKA5rjXjahODERC3FJFz0nsBoFDeLvlsjxAGJSDuZXovIgIAJVFNg8R9GJyAuJci8rB1AwAgPw+HKB5uqALiliJyjIgAQM8Uf6qghcEKiENEAKBfBi0ebugC4hARAOiHwYuHG0ohYRcm08WRuHfK/6QAUDkX89k4OoYP3gJZ4YiWJwCQmCu/1oyC0QjIyjkiiAgApOCq1nM9QhmTBbIqIhetmwAA4Twam3i4McVA1plMF3nZ91s3AAD2YxQB802MygJZhewsAIjAaMXDjVlAHCICADZGLR5u7ALiEBEACGP04uEQkCV+ILzbugEA0OZtxGPJaIPom5hMF4Piow23AADcULvqhoIFsoIfGG9xsiEArKE14S3E41WwQDYwmbpD5xatTzhjHQCaY2gHc5JgLLBANuAHyiFV6wCjR2vAIeKxGQRkC/7Q+7u+whQAxkdTXf6Ed78ZXFgdmEzdqXPuneI/KADE4sP5zD3gae4GAekIGVoAo4FMq44gIHtAcB1g0BAs3xNiIHvgB9YtgusAg0Nz+hbisR9YIIEQFwEYDMQ7AsECCcQPuLcpOgSoluc+3oF4BIIFYsTHRRRwu131FwEYF3JZHeOysoEFYsQPwLt09AWohocEy+OABRKRyXRxmP4ZWVoARfLcWx3nvJ44YIFExA/MQ85cByiOC9+SBPGICBZIIiZTd+Kce2+QXw6gLt6fzxbzESKDgCSEADtArxAoTwwCkgGsEYDsYHVkAAHJBNYIQBawOjKCgGQGawQgGVgdmUFAesBbI2qFcmd0Xx4gPsqweoDVkR8EpEcm00ULhRPqRgCCUF3HyXy22IxBDyAgPTOZuhveGrk/6gcBsB8PvdXxjOfWHwhIIUymi3YopwTZAXZy5YXj8a7/CPKAgBQGbi2AjeCuKhBamRSGnyA6tOrDsT8LAM+H/rAnxKMwsEAKZjJdCIkmzb2xPwsYJY+8u+oJr79MEJAK8PGRE9J+YSRceHcVcY7CQUAqwguJqtlvjv1ZwCB56qvIEY5KQEAqZDJ1x94iQUhgCDz1FscZb7MuEJCKQUigchCOykFABgBCApWBcAwEBGRAEGyHwiE4PjAQkAHiheQB6b9QCErHPUU4hgcCMmB8HYkskiMq2yEzqhw/9xYHdRwDBQEZAb5h47G3SoiTQEqe+uLXMxodDh8EZGTg3oJE4KYaIQjISPHurWP/C6sEQnjqC1vPcFONEwQEGqvkmFgJdKCJbZxhbQACAi/wsZIj/wsXF6zyyAvHObENaEBAYCMrgfdjDrkaLVcrLipEA1ogIHAtPl7SWCYUKQ6bixVLg7gG7AQBgb1Yc3PdJWZSPYppPMY9BSEgIGBiMn0hJEdkc1XDUy8Yj+ezxU+AIBAQiIZ3dd3FOimOVSvjMa4piAUCAsmYTN2hFxL9OsRCyYYsjEsvGhKMy5F8b8gMAgLZWLFQGmEhuysOF14wLrEwICcICPSKL2I89L9ukeV1LRKLJ41gUMwHfYKAQHF419etFWG5MUJhkVA8W7EsnuCKgtJAQKAavAts26/a4itPvSXR+oULCmoBAYHB4GtUDv33aYTGeQvmcOV73kgQf7nyFkPD5cqfG5Fw3u1ErQUMAgQEAACC+ByPDQAA9sY59/8BuntOg3Sc724AAAAASUVORK5CYII=;" vertex="1" parent="1">
          <mxGeometry x="120" y="240" width="40" height="40" as="geometry" />
        </mxCell>
        <mxCell id="BB8o8y4dJ1L9ylsIL_xW-36" style="edgeStyle=orthogonalEdgeStyle;rounded=0;orthogonalLoop=1;jettySize=auto;html=1;entryX=0;entryY=0.5;entryDx=0;entryDy=0;" edge="1" parent="1" source="BB8o8y4dJ1L9ylsIL_xW-3" target="BB8o8y4dJ1L9ylsIL_xW-38">
          <mxGeometry relative="1" as="geometry">
            <mxPoint x="200" y="340" as="targetPoint" />
          </mxGeometry>
        </mxCell>
        <mxCell id="BB8o8y4dJ1L9ylsIL_xW-3" value="" style="shape=image;verticalLabelPosition=bottom;labelBackgroundColor=#ffffff;verticalAlign=top;aspect=fixed;imageAspect=0;image=data:image/png,iVBORw0KGgoAAAANSUhEUgAAAZAAAAGQCAYAAACAvzbMAAAACXBIWXMAAGl0AABpdAForRwYAAAgAElEQVR4nO2dT4hcyZ3nI40ZaB+mxAwDHrCRDNMLuwNWNczBPixS+zB7sEHV4Lla1ScPuYdW3xbPmK5mF7O3rr4kYxjokq/T0CXWPuwe3Cp2F/u0XeXDDqxZLOE5+DJeaQ72MZdvZjwplS8z62X8IuJFvPf5gCjpvW4p872I+Mbvb0zm87kDAADYl8/xxAA2M5m6w8nU3dp4EwAcFggMhsnU3XDOHfrvc8v/EqvXmz/fjvy9r5xzz1b+fLny5yf+1+L6fPbKfwdQLQgIVIO3BlZ/HXox0O9vVvYmn3pReebFphGZJ/PZC7EBKBoEBIpDriP3UiAakbgzsjd1sSIul15YLlv/FUCPICDQK5Opu7siFLdGKBT7cuEtlUvvDntc18eHIYGAQDa8C6oRjLsJ4hBjRfGXx15UHuMCg1wgIJAM74q6uyIatcUpauVpIyZeUHB9QRIQEIjGioVx5H8e8HSL4LkXk3MsFIgJAgImJtMXYnGEhVENT1fE5HzsDwPCQUBgL3ytxRFWxmBYtU7OqVGBfUBA4Fq8a6oRDbKkhs3Fipjg6oKdICCwEW9pHPtfZEuNE2V3nekXlglsAgGBF6y5p+7xZGCFR7i5YB0EBJpivmMvHMQ0YBfPvZCcUcQICMhI8XGNxkVF9hSE8HTFxUW8ZIQgICPDWxsPcFFBZOTiOsUqGRcIyAhYCYg/wNqAxMgqOSXwPg4QkAHj3VQnxDagB5pYyQnureGCgAwQ3FRQGLi3BgoCMiC8cJxQ7AeFcuEtEoRkICAgA2AyXcQ3TohvQCU89UJyxgurGwSkYhAOqByEpHIQkApBOGBgICSVgoBUhI9xnCEcMFAkJMfESOoBAakAguMwMgi2VwICUjC+juOUdFwYKUr/fUAdSbkgIAXiK8dlcbwz9mcB4Jz70FskVLYXxufG/gBKYzJdFAA+QTwAXqC58MTPDSgILJBC8HGOUw5vAtjJlXdrER8pAASkZ7y7SsJxf9QPAmA/Hnohwa3VI7iwemTFXYV4AOzHfdxa/YMF0gOTqTv0VgdpuQB2Lrw1csmzzAsWSGYm00V21WeIB0A0NJc+83MLMoIFkglvdZwRJAdIypWvZscayQAWSAZWrA7EAyAtt7FG8oEFkhCsDoBewRpJDBZIIrA6AHoHayQxWCCR8f2rzgiSAxTFhbdG6KsVESyQiEym7si5hbmMeACUhebkpZ+jEAkskAhQTQ5QFVSxRwIBMUKgHKBKCLBHABeWAX+07GPEA6A6NGcf+zkMgSAggUymC5fVR865gyq/AABo7n7k5zIEgAtrT3y8A6sDYFjIpXWXuMh+YIHsgY93PEE8AAbHbd/d95BX2x0EpCPeV/oZLiuAwXLgCw+Ji3QEAenASrwDAIYPcZGOEAPZgY93KEX33vb/CgAGyiOf6ktcZAsIyBZ8S5Jz4h0Ao0bB9SNaoGwGAdmAD6Q9Jt4BAM655z5Di6LDNYiBrOF75SAeANBw4IsO6aO1BgKygs+++ATxAIA1tCZ8QobWqyAgnsnUPSDTCgCu4SO/VoweRwxkyWS6yLSiky4AdOXhfIY1MnoLBPEAgADu+7Vj1IxaQBAPADAwehEZrYAgHgAQgVGLyOhiIL66/JxjZwEgIhe+4HBUVeujEhBasQNAQkbXEn40LizEAwAS05xyeGMsD3pMMRD6WgFAam77tWYUjEJAfJCLmAcA5ODOWALrgxcQsq0AoAdGkZ01aAFBPACgRwYvIoMVEMQDAApg0CIySAHxzc4QDwAogftD7eI7uDoQ/6LoqgsApfH2fDYsa2RQAuIPfPmkdQMAoAzems+Gk+Y7GAHhGFoAqIBBHY87CAGZTN0t5xYvBPEAgNKRiBzOZ+5J7W+q+iD6SnNExAMAakBr1fkQWp4MIQvrjBYlAFAZt/3aVTVVC8hk6k6dc/daNwAAyueeX8OqpdoYCOm6ADAQqk3vrVJAfMbVZ60bAAB18kaNmVnVCYgPPD0haA4AA0KZWbdqO4yqxhgItR4AMDQO/NpWFVUJiA84kXEFAEPkdm1B9WpcWATNISd3/5Vzf/Ynzv3mX5z74h869/H/cu7Z73kFkIVqgupVCAhtSiCUwy85d+ML/udrL38v9OfbX7I92qt/eiksl/r975Z/bn6vnwB7Uk27k+IFxAfNH+O6gm1ICA6/vBSGW3/88ufNP9ryP2Tm6W+de/LPSzFpfl7+GosGdnLlRaTooHoNAsLBUPAKci9JJJqfpQjFvkhYJCaP/8/LnwArPJzPyj5HpGgBoT07OC8Yd19f/rzz+rAfycUvl0Ly+JcICiwouv17sQJCh93xIvfT0e2lYNz76rifxaNfLIXk/Grp/oLRUXTn3pIFRHGPO60bMEjkijr++lI4anVJpUYuLwnJ2c8Izo+Mi/nM3S3xKxcpIJOpO3HOvde6AYMC0QgHMRkd789ni3WxKIoTEPpcDRtlTEk0jr9mT6GFJUolPvv5UkzI7Bo0xfXLKlFALknZHR6KZ0g07n9t7E8iLQ9/vhQTAvCD5Go+W2ywi6EoAcF1NSxkbcg9dfItXFS5kYvr5MdLNxdWyaAoypVVjIDguhoOyqJ68I2lxXHw2tifRr88//3SIjn9KVlcA6IYV1ZJAoLrqnIkHCffxE1VKnJvnfwEIRkAxbiyihAQXFd1g3DUBUIyCIpwZfUuILiu6gXhqBuEpHp6d2WVICAUDFaGguMKjL/z5tifxDD48NNlwJ1ge3X0XmDYq4BMpu6Bc+6D1g0oFlkcCpATHB8WCrYr0C6LBKri3fmsv0OoehMQzjavC9VxnH1neOm42n2HWlJf+b5zp381rH5dSv89/hF1JBXR61nqfR5pe4p4lI/iHOd/7dynD4YlHtpxv3nq3IN/aN3qjGIHR3/n3Ns/Wv59Q0DvWO9a71zvHornwK+lvdCLBTKZLvx2n7ZuQFHIVSWXVZ/uKu2ItRv+i5vO/fmftm4HodYfdz946fOfz8L+nsn05e/V10sWWqz2LP/4G+e+8Af9irZEUS4tubageN6czxbx5Kz0ZYFUdXD82NBi+Phd5z74dj/iIdGQa+mNHzh362+XO/1Y4qHMo8MfxA8YX3pRuorU2PBff3FpHekZ6FnomeRG715jQGPhkL5lpdPLmprdAiFwXjayOrRo5Ea7XbXd0G53tbusFq7Pvhfnw0g85N9fJ4YFsooskRipzXomErsmzVbPQu9H7WH6EPZ3P8YaKZzsAfWsAkLgvFzk79bCl/vEP53Apy6yarexjtKFL/8mjhtnm3i4BALiIoqIns/dDdsttYlRV+M+3peeI7UjRZI9oJ7bhXWCeJSHdrSX38u3GGlnrQVdWUxaHDeJh4jVhHGXeKRC/54WWyt6J7I61tEz07PTM9T3yxXE1+fRWDmi6VCJHPg1NhvZLBB/RO2vWjegN7TDVxpqrkpy+fFlbcgNcl0MQmnDygay0kU8Ulggzj9fxQ+sgfV1V9Ym9G8tGlh+PV/gXc9WcRoKEIvjK7mOwM1pgRA4L4gmUJ5DPCQcSnVVQFxZPdctOFoM5QKyooC2JU3Xir6nrASrdXDQ4Xk88xlTesZ61jmC7ho7BNiLJNtam0VAfNruvdYN6AW5H2LsjK9jVTi2uak2oZ20dRf9/Pevpur2RSwR2ebK2oSedS4hue03Iri0iuKeX3OTk8sCKe4s37Eil9Un302bxaPFMkQ4nLeM3vtm6/LelCAeDZeRLCHV5NzY472tCknKGInGksaUxhYUQ5Y1N7mAeCWkWWLPaOFRdXHKBohapN7/SZhwNMRYhJRuehmpHiMWeh4PA59Jw8FrYc+nERK9m5RCorGlMbaPyEEy7uSwQnJYIGetK5AVpejKzZCyZ1NToNclxrENpaZaM8GU+VRqrYKsEGuhoeIOSjDYlyZGondkFbJdaIxprNEGpQiSr71JBWQydcdqr9O6AdmQS0hpl6niHfKxq6eUtTbgRuDuehXtrtWbqlS0iMdIJz41FHrqHekz6J3Fqppf57YfcwTXe+emX4OTkdoCIfbRI9qpajeYKt7RuKtidG6N0SJeC2PpKaVyrb1vbJmuBfrYmD2ndyZrxPpZtnHgU5hDrCWIStI1OJmAYH30ixYY1VGkEA+5iVTAFuvsCLk7rIHzR79YtkKpAT036+5fRZYxYg36LHqXMYoe19HY0xi0ih2YSGqFpLRAsD56QhP2o2vqBkJRgFoZTjFbWZwYxUOuq+OHrctFY3VlKc25a1rvdehd6p3q3aZAYxER6ZVka3ESAcH66I9U4qEdszrDxg5Qy8VhLWassRo6hitLAhIz40nvVu84RWwEEemVZFZIKgsE66MHUomH2onLX54iNdZqfSyaMSbMKkqJFmxLod+BP5s+JnrHh76FfGwQkV5JsiZHFxCfe4z1kZkU4iHX0Fs/TNcORNaHNW03d5PEmMhqsj5b1V6kSJnV59K7j103goj0xs0UdSEpLBCsj8ykEI8rvxNNGZi2Wh/aJdfeVlzP1xrAtj7HbeizHSZwaSEivRF9bY4qIFSd5yeFeDz8efxA+TpW62Nx3OqPW5erxGpFKYaUqnCvCbDHLj5ERHohenV6bAskQgNu6EoK8VAmTo56Cuuu2VLxXhpapK0xh1RWiFspgIydpYWI9ELUNTqagPjzPui4mwnt4GOKR9MAMUcbEKv1ocDz0I5WlTVliTektEIa9MxjN2bUGKbYMCv3/FodhZgWCLGPTKhFxPl34/1bTevzXNlMZutjIK6rVbTLt4pirLqQXTQnIcYUEY1l2p5kJdpaHUVA/FnnR60bEJ2mMWKsCnMFSLUg5Opea7U+ak7bvQ4JiGVhljsoRyfcSz9mYgXXm7YnNGDMxpFfs83EskCOOes8PYuW7BHP8sgtHs7Zfd6x2qeUiNUKOXgtjxXiEomIxjat4LNw4NdsM7EEhOB5Bs7ux+uq24hHzkC0dpiWqnNZHzEaN5aMBNJSXBi7On0XzWmLsUREY1tjHLIQZc02CwiFg3lQq/NY53n0IR4uUubVGLDEeLSTz3m8bGwR0RjnZMMsRCksjGGBYH0kRgtCrJME+xKPG8aFbQzWR4NiPJZYSOz2JtcRW0Q01jljPQvmtdskIKTupkfZKWeR0nX7Eg9x/HVb7GYs1keDJRaiTr25F+DYIqIxT2ZWcswpvVYLJOlpV2NHu3ZNpBhB8z7FwxlTTBUTGIv10WDNyMoVTF8lpogc+LFPUD05pjUcASkY+YJjBM37Fg/thrUrDmWIdR/XYc3IUqp0H2mxMUVEY594SHL6ERCC52lRuqv1nAzXHLbU81GvVutjqHUf11FDYeEmmtYnMYoNNQdod5IUUzDdYoFgfSRCO8cYO6+mwjxnncc6+i6WwsGhtSzZBy3EliaGuQoLN9HUicQQEc0FigyTEryWBwkIledpiRX30JkOfYqHM+6Ctfic/ax1eVRYkgdyp/Suo7EX4yyZJh4CyQiuTA+1QI6oPE+DaiWshyw531W3BNePxf2gzz+UjruhqFOv5byQvtxYDXqHMbr4ak6k7Dg8cg5CDQKLgEBklLb4XoRJIrdHCa4fiYfFkhqz+2oVy3NQILrvdFh9/hjniWhukNqbjDwC4k0daj8SECPucRXJbRAD1X6E8ugX9Z82GAudDGhpb2J5D7HQmIyRmUVWVjLuhbixQiwQgucJkKvB6rpSzODoh2W4fazB87HHPtaxWCElZDE982PTGlTXmOrbLTdg9l7bEZAC0GIbw7+r1MlSdu2WRUu77ZRnsdeIRVDlRixBRDQ2rcf3Oh8nJCsrCWkFxJe906UmMjLLrVlXOhK1pEXX4jYh9tHGmtJ7dNi61Asao9bjezVXcGUl4fa+rU32tUAInkdGByxZu+yWFPdw/jtZKs9xX23GklWnMVbKrj1GPETfh6Nwk7DXGo+A9EyM/PYYboGYWNwlD0nd3Yr6gVmC6SV1uI0xZqkNSUIaAfER+jutGxCMfLmWnbrz9R59FwuuY1moiH3spvZgeoPGrLU+RHOH2pDo3NknG2sfCwTrIyI3Ihw/qgKz0uIFEo/QeA7B8+uxuPdUE1JS8Flj11Ik6TKfwDgiOq/1CEhP6NAfa+C8NNeVMwbPEY/rkXtPNTKhlJYCax3DmkO5D9AaAUkExHz8ISzRLtB6wuD7Pymv0E47QUtCANlX3bBYIaWd9Kcx/L7xsDDNJdJ6o9J5re8kIJMpva9iYvXbKoOlxBP6LIuTvhOV592QpRZakKe4QWntQDSWrVlZxEKicuDX/GvpaoFgfURCOyXrOR8PIjSnS4Gl1mCsZ36EYnH3ldDaZB3rmNacwgqJSqc1v6uAEP+IhHWnpDTXEo93tbqvqP3YD4u7rzQ3lvMpytaGi1ghUYljgfjKRE4ejIDV+pDbokTXlTMuSgoKU/uxH0qDDa0JKdGN5bwry9IrCyskKje7VKV3sUBwX0XCukPSrrPUOIHFfXV+2boEXZ7bwNxYGtvWRAqskKhcu/Z3ERDcVxGIYX2UnKVkcV+RvhvGkLKxGjTGsUKK4dq1HwskE9b8e/UPKtXNg/uqH6xurBIXWo0Fa1832r1Hw2aBTKbukPRdOzeM7bS1SJScpWRqXYL7yoTFeivVCtFYNx2g9TWq0yNx4DVgKzsFBOsjDvI3W6rOT37culQU9L7qD4sbq6TeWOtYxvzi/JMCYzyVslMDEJAMWEzq0q0PZfOEiiPuKzsWN5Z6Y5W6U7daIbixorFTA64TkJ3mC1yP9WyM0q0Py06vxHqWGhmiG8sZx77mHOeFRGGnBkzm83nrontZ//Gr1g3YC51ZYK08B4D9UWFiiQ1HK+Qr85l7sulj77JAdpoucD1yDyAeAP1wn2B6LLZqwS4B2Wm6wPUQyAPoF+ZgFLZqwS4B2ao60I2Ss1wAxgBzMApbtWCXgBQcXisfZSfdLrDfEMCY0Bwsse9XZWzVgo0CMpluVxzoBqYzQBkwF+1s04SNArLL5wXdKDk9EmBMMBejsFETEJAEyGS21H4AQDxKbV9fGRs1YZuAXNsHHraDyQxQFsxJMxs1YZuA3Gldgc5gMgOUBXPSzEZNaAnIdd0XYTdqkY37CqAsSm1fXxObtKElINtMFegGOx2AMmFummlpwyYBaakMdIcGbgBlwtw009IGBCQylqNdAYC5WTAtbfj8hs96o3UFOmHZ4fzX/+3cf/5vrcvF8e03nPv3G8Np1/Pux8vzK0rj0wdhH+jN09alIrC8o+//F+f+x/9tXS6K//CXzv27fxP2iTRHOUYgmJY2bBIQMrACuft6+P/7d/+9joFtOajn9KetS1VT6vt69rtwAfn858ofh+qwGywgryMgBlqj6hUXlj8DBAKxWCC1HO0aWpB18cvWJUiErLzngSc91hAnsMwV4iA21jViPQaCgBi4E2iB1LK4WlKUS3RdDZnHgWMqdAznJnTO1PL9CgYBSYFlZ1OLSW1pB4HbIC+Xvw7/52po+2EZT1ghJhCQFFjiH6G7xdxYFhYskLxYxlQVAmL4fpa5CrsFpJWmBd04/HL4g6pldx66c3v6W+ee/HPrMiTEMqYsYzkXQ/9+BbNTQFppWtCNMQSXQ78j1kc/XAU+91o614bOHTrzmtgpILiwAlBaYWhwuRbrQwH0g9dalzth8cdDOKHCXUugOXTuaK7eCBzLsFtAbvJ89sdiEteyO7c0oqslxjM0LGOrhsaDlu+HGyuYVzTihYBMprivQhlDcNkSeMQC6QfTAluBm2fo369UVrVi1QIhgB5I6G5NxV61BJdDd2wKoD8LLGoDG6ZAcwULrOZOaMEkrd1NvNCKTc0UYU/GEFy+RQFhlQQH0itx8YSOLyyQOKwKCAH0QEIHY03FdbdDRRL3Va88+W3Yvx66YchN6BxCQEy80AoEJAKh2Um1uHYs5j4WSL+ECnjohiE3oXModM7Cgo0CAgGMIYBuERAKCPuFTKztYIXYWRUQsrACuPGF8P+3FveOKQMLC6RXLAJehYAY5pBl7o4csrBiYdnFDD07KTSAC/EY+g7dMoewQIIhCysWoRWtNS2uoT2wSN8tg6eBgfRaqrVD5xLV6HYQECOhZv4YFldauJdBqBurllTe0LmEC8sOMRAjoQJSU3CZQ3jqJtSNVcsOPVggcWGFsjEGcruajz8AxpCdRA+sMtAZ6SHUUq1Npl92XmgFLiwjQ/ejskurn1ALJLTDdC0QA7GDgBgJLbiqZddk8RMTAymDocfbQudSLcWSJYOA9ERoiwmAfQl1YblKzg9nLvUHAgI7CXVhhXZJhfhQzAmpQEBgJ6F+YhYtgOGDgAAAQBAIiAEOpYFaCK1GH3oWHplYNhAQA6ZzwslQgoyEZirVsMCaTl7kbHQTCwGZTGmkCAAA3ZhMl2eCYIEAAMC+LNqZLARkPnOXPD4AAOhCoxlYIAYs1eQ1FGjBcBhysNgylziz3wYCYoAmblALoW07ht4QkzNrbCAgAAAQBAICOwndoXGGCMDwQUBgJ7QkqR9a8kMqEJCeuDXwsxYcVb7FMPSW/GOYS6WCgBgJPdC/ljYollbgVPmWwdCFPHQuhc5deAkCYmToWRy4sOqHlvybIQPLzqqAXNX6JWpkDI0Y7xJIL4JQF1YtmweammbnhVasCsiz4X/v+IROspoG/cXAawGGTqgFUssOPXQuYV0H80IrcGEZCY0RjCHATLV9GQQvsJVUaYfOJUt8D5YgIEZCd2k1HegfmomDa6EMbgZmKdVigYTOJWIgdlYFhIaKAVjM4KFbIaELF8TDUgNSg4vHModwYQXzQiuIgRgZQ5qrpR8SRWz9YrECa+j1ZplDuLCCIQYSC8suppbF1bKQ4MbqF8sYq0JABm5hlc6qgDwZ+8MIJTRfvhYXlmUhwQLpl9Adei1FdqEblKHXuCTmhVYgIBEI3cnUlKUUuqBQjd4voW0+nvy2dalIQjcoWB8mNgoIBBI6GGvanYcuKFgg/RKaoVRLCi8C0i9kYUUg1MVz8Fo9MYLQBUWZWDRV7AfTSX0VLLCaOweBY4vD4Ey0s7DmM7KwQhlDIN2UiYUbqxeGHmAmgN4Pq1qx7sJ6OoLvHx2LuT+GTCx6YvUDGVjb4Sz0YF7RiHUBIZAegCpanwbGCGoJpGtBCc1cwQLph9AFtpbeZ6FzR3OVKvRgXtGIdQHBjRVIqElc09GvY0gWGBLBAfRK3Duhcwf3lYlXNGJdQAikB2IxiWuxQkJ7YhFIz48pgF6Be2fo369gXtEIXFiRsASZa4kRWHZudObNi2VM1bBDt3w/y1yF3S4sBCQQy9nRtSyuCEg9hMadFOeqQkAM46mGc94LBgFJRWjwsZY4iALpockCxEHyErpDH3r8g8PRzGwXkPkMAbFg2dkc3W5dKpIxJAvUjsQ6tMCuht25Za5gfdhY14jPb/jbLjTfW1fhWuRbfS/wMf31v60jtfCf/l/rUmcefGNYGTCluuW+/UbrUmc0Bkt3N2quhEL8w8TF+v88mc/nr16YunPn3L0avk2JzGdjfwIA5TKZ8nIMPJrP3NHq/76pmSKpvAYe/aLajw4waJibZlragIBEBh8rQJkwN820tGGTgBBIN3B+Ve1HBxg0zE0zLW1oCch81lYZ6I4l1RUA0qA5SQt3G5u0oSUgnla0HbrDTgegLJiTZjZqwjYBaZkq0J2zn/GwAEqCOWlmoyZsE5CWqQLdUa0DbiyAMtBcpAOvmY2agIAkApMZoAyYi1HYqAkbBWQ+c49bF2EvMJkByoC5aGebJmwUEA+6bUAm8xVmM0CvaA7ivjKzVQt2CchGxYHunP2chwXQJ8zBKGzVgl0CstHnBd3BdAboF+ZgFLZqwS4B2ao60A11Nn3IDgigFzT3auhwXQFbtaDVjfeVm9NF7u/N1g3ojFpjf/og/Hm9/aOyzfDTv3LunTdblzvx7sfOnf409yduE9pBuZTOrpZ3UPL4Ov6acx99p3W5M2+e0v8qAk/nM3dr21+zywJxu0wX6IYGsKUm5ORbrUtFYXERcMxtHCwHLJWc4moZ+5pziEcUdmrAdQKy1XSB7lh22Tf/aLkTKxVluDwPdBPc+6pzNwJPzoMlOn1QYyQEZSiV6uLRmA/9Xs445+AVdmoAApIB7dJDF1lXgRVi2cXWcpRvqRx/PfyDlewatYx5zTWC59HYqQE7BcR3X3zeugF7oV2eZbKWboWYBOSwdQn2eX4DdF9ZrY8zguexeL6pA+8qOwXEs1OBoBtWk1qB0lLdPZaFCDdWOBb3VantzTUWNNYt4L6KxrVrfxcBOW9dgb3RZLWk9B685tyDb7QuF4PluFDcWGFY3FelWh8a4weGDYXmGOd+ROPatR8LJCMnP7H9W5pct/64dbkIzncaurvBjRWGRXhLjBFobFs3SdY5Bq9gt0Dms0UtyNPWDdibGFbIyTdbl4vA6sYqVRhLxeq+KrE/lMY21kcxPPVr/066WCAON1Y8rDuk+18rs35CQUvcWPmw7NRLdF9pTN83JopgfUSl05rfVUBwY0XCaoWI02+3LhWBxY1VcpZZiQzNfWUd01gf0em05ncSkPlsoUak80bCulO6/aUyXVmWna2+E26sbkg8Ql09JbqvNJb1/k1/B9ZHTJ77Nf9aulogDiskHtopffip7a9775vlLbhWN1bJWWYlMaTsK43h94ybIc0lrI+odF7r9xEQ4iAROfmxrTpdnBkazaXC4h4hDnI9qpNQ0kEopdVIWMew5pDmEkSl81qPgPSEduvWyXzn9fJ27drhhgqjsooQkd1YrA/1vippp66xqzFsQXOIqvPoxBeQ+cw9c85dtG5AMPLbWjr1ig++vUzpLAmLm8SyQI4By4ahpN5XGrMfGAPnmjvEPqJz4df6TuxjgTiskPgc/8j+V5bmyrIsVLQ22Y5SXS09okqKf8QYszHmDrTYa41HQHpGZxZYAs/OZzBZ+wfFxHoGChXr4lAAABCGSURBVFbIZiypzhpjpbivNFatWVf6Ppz3kYR0AuIrEws+gqZOHvyDPaCuE+lKih9YgulkY7WRVWYptLPU6MREYzT09MQGzRXNGYjOVZfq81X2tUDEWesKmNDOMIYvV26BUlJ7re3rCaa/isUqe248TiAWGpsxXFeaK6TtJmHvtR0BKQRlk1z80vZZVFx2/t0yYgia4BbXHG6sV6m9dckNPzYtva6E5gjt2pORXkB8hP5R6waYiWGWlxQPsbhNaLD4ElljtR/vGiPu4SLNEdjIo32yrxpCLBBHMD0NajHxfgRXlnzlJcQR5DaxxHaIhSyxPAfVfvTdukSf39ooUWhulNhFeCAErekWAaE3VgLk37W6spyvDymhQaHF967PP/aUXllhlmK7vq0PvUNrvYfzritqPpLxPKuAeFMHKyQRym+3ZmU57zbou8jQsoDJXz72WIilaabGUJ/xj8NI7lR9D2o+knIe4r5yBgvEEUxPhwLQMXy9WoAfv9uviOi7WCyqMbuxrKm7sv76avOhMaexZw2aOx/3IOsqKcFrebCAzGeLjo2cVJgITX7ruSHOi4hSJ/t0BVmsEAWPx3pWiFU8+3Jf3fBjLoZ4aA6U1IJlgDz1a3kQFgvEYYWkRTuvqwhBw9t+N9iXiMiNYqlMP/lW69Lg0buyCIisvj527Te81Rsj40pjn6yr5JjWcASkYJ79Pl48pG8RsVohJR7jmxKJh2UH34f1EVM8mrgHnXaT05+A+LJ3akISorTFWAHEPkVErU0sQljiCYwpsSQPyNrLHTyPKR7OJ5KQspucR/u2LlnHaoGI09YViIoWA+sJhg19icgzYzsNpbKOxQpRzMdSOJj7gKXY4qGxXtrJiQPFvHabBYRgeh7kC7Z27W3oS0SsbpWxWCGWmE/u1N3Y4qExTtwjC6bgeUMMC8RhheTh+GGcoLrrSUQU1LVklo3BClHsw9q2JFfcILZ4aGxrjEMWoqzZsQTkjMr09GhhOPphnKC6WxGRnHUiWCHb0YJsLRzMFTxv6jxiicdzP7YJmmfheawEqCgCQmV6PrSLv/tBvSKiwKilsFBWyFDrQqyZV3Jd5ViAU4iHxjTFgtkIrjxfJ5YFIk5aVyAJWoS1W4tFU7Gea2G29jQaYl2Ite7DRXiuXdAYiVVh3qCxTMZVVqKt1dEEhJTevOg4z7cj9gfSgvDRd/K0DtFnt1ghihEMrcWJRNGyKCu2lHoHr2f+UaQK8waNYY6mzYo5dXeVmBaII5ieF6XFxhQR57v45mh9YrZCvjmcTr3quGs95jWl9dG0JonRVXcVjV3alGQn6hodVUB8WthF6wYkI4WI3PduipQHOlmtEO2Ch+LKsh7zmtL60BjQWIhxnscqiEcvXMRI3V0ltgXiiIXkJ4WIKEB6+b20Z5Nbd83atdd+aqGer+W8D5fQ+tBn0xiIFSxvQDx6I/raHF1AKCzshxQiol3+J99Nd0Su1QpxEXbvfSLXkPXZqmo7hfWhz/VJhDPM10E8eiNK4eA6KSwQhxXSDylExPmdvnaiKVJ9rVXHNaf1WosGlf4au23Jobc8rTGZTSAevZJkTU4iIPPZokgFK6QHUomI3BiffS9+9pPSN63nnmi3XFtAXQv1e8aiyNhV53q3nyVwWTnEo2+e+jU5OqksEIcV0h+pRMT5LK3YAXarD39xaNb91uWisbre1HE3VtV5EyiPnWXVgHj0TrK1OJmAYIX0iybsm6fxKtZXkdvoV/8xXlsR+fDfN4rIva+mDfjHRM/NusuX6yqG9aHPondpDeRvQmNPYxDx6JVk1odLbIE4rJB+UZA6ZtuTdeSCkb88RoND7aatn7Pvo3u7EMN1paaD1kVZ70zvzvpZttG0J6FIsHeSrsFJBQQrpH8UYzj8QbwuvutoJ/3pg+XibXFraTdtDaiX7spqCvKsPPg4/C/QO9Jn0DtLEetwXuA05mhP0jtJrQ+XwQIRx60rkJWmAWOs80Q2oUIz7WgtFeLaVVvTeuXKKrXNiYL91kVbCQchu/qm06/eUeyiwFU0xmiMWAzJ197JfD5vXYz+j0wX+cd3WjcgO1rEUqRorvLcWxMhbpZDn+1l5Y09dsDzWetSJybT7v+tUo0/Mlofeq63/nb/2If+bb332DUd6yiOlaOhI3RCVed3Uz+qHBaIIxZSDlrY34p4psgmmsaMT/7T/jUaWvRjHN/b19nvm5AoxijG1LvbRzz07PUOYjdAXEdjSWMK8SiKLGtuFgvELXdrOi/kXusG9IIWNfnCU/nBV1HKqbKGulokWvgv/8ZWZOe8L17ulOsW3ZQWiL6LFnHrAi7Xnr5LFyQc6hNmfX5dWJwi+CPiHYWhjrtHOT5SLgtEPGhdgd649IurtYivC1rIGoukS4xEC/5xhDqW25F2/qE0R75axeN5h+fRxDgaiyOHeGjsaAwhHsWRba3NZoG45Y5NrYTfad2AXlH9xFliN8cqWhB1ep5cHruCrbHiNVrodi3AqSwQiUeM+op3P95eNKisKgmH3mHO96fnqXcIxfHhfDZcAbmhpCC5yVs3oVea9M4UBWW7kGvm7Geb3VuxXFnuGhFJISB6ljGynba5ruSmOv56P+9Lz3GX8ENv6KzzW7GOq+1CVgFxy0knddwwJaAElAKbqqXFLhqr5GwtTTVWVpbbISKxBSSWeKxnXelZ6P3ktDZW2WUJQRG8O5/lPdQvu4C45cS7lIu6dQOKoMkayr27bVDQfSEmP1v61+WiiVUxvUlEYglIE/OIlZigzCbt9GVpSDRyxDU2IatDGWDEOormaj5zh7k/YF8CovzkCMmakBLtdrV497HbbZCYyCL5i5vO/fmftm4HsZ6dFUNAYme1/eNvnPvCH/QnGq5pF/8TrI5KeDPFeR/X0YuAuOXkU4l9ZT1Ux4diI7JGVOE9JLQ4Hv1wKU5WAclVqJcTVZTL6iDWUQUP57N+On70KSAE1CtCzffOMqWH5kRFi6GZXl/5/vDEVRafXHw0QayG7IHzVXoTEEdAvUrk0pJra0i7bVhaZHJVUU1eHdkD56v0KiCOPllVsiha+1b6nlqQB1lhsc4Xgaxk6Xe1ixIERJkDn7VuQPE0RWwpu7tCOpSRdl0xJxTNG/PZIqO1N3oXELcUETX+eq91A6oAIakLhGMQvD+f9d+ktggBcdSGDAKEpGwQjsHQS83HJkoSEFxZA0FCokC70lsJtvdLExxXhT/CMRh6d101FCMgDlfW4FCwXRXUuVqLw0uaFvqq6Cc4PiiKcF01FCUgDlfWYFEdiSwS3FtpkZtqvZ8YDIZiXFcNJQoIrqwBI6tEvZ0kJjkOsxoDas0i0VDvMKyNQVOM66qhOAFxuLJGg/pH9d0osFbWG07C4CnKddVQpIA4CgxHB2JyPYjGaOm9YHAbJQvILZ28Sq+s8aEsLgmJ4iZDa+K4L2pqqHiGhIMsqlGiXleH89mib2BxFCsgbikiOhj+k9YNGBUSkruvL3/2dUZJLnT2hgTj8S8JhMOCt+Yzd17qoyhaQBxt32EDEhK5vJqftbq85JKSK0pC0fwEWKG3Nu1dqUFA1Pb9Mam9sA1ldh1+eSkmcn81P0sRFgmF3E8Siebn5a/JmIKdXGmv1Feb9q4ULyDuZWrvY+IhsC8Skxtf8D9fe/l754XHmkqsFNpGCCQMz363/HPze4LdEMBzLx5FpexuogoBcUsRkSn3UesGQALkHvuzP3HuN//i3Bf/0Lm//588ZcjG2/PZwnVfPNUIiFuKiA5Oead1AwBgGHw4ny0O2quCqgTE0eoEAIZLca1KruNz19wvkbveRwgAMBSe+7WtKqoTEJ+VUN2DBgDYQfEZV5uo0QJxPjvh7dYNAID6eLuGjKtNVCkgbikiylL4sHUDAKAePqwl42oT1QXR15lMF2X+91o3AADK5tF8tmjXVC3VWiArHPuqTQCAWrjya1fVVG+BODr3AkBdFN1hdx+GYIE4/yJI7wWA0mnalFQvHm4oAuJeZmZVbxICwKA5rjXjahODERC3FJFz0nsBoFDeLvlsjxAGJSDuZXovIgIAJVFNg8R9GJyAuJci8rB1AwAgPw+HKB5uqALiliJyjIgAQM8Uf6qghcEKiENEAKBfBi0ebugC4hARAOiHwYuHG0ohYRcm08WRuHfK/6QAUDkX89k4OoYP3gJZ4YiWJwCQmCu/1oyC0QjIyjkiiAgApOCq1nM9QhmTBbIqIhetmwAA4Twam3i4McVA1plMF3nZ91s3AAD2YxQB802MygJZhewsAIjAaMXDjVlAHCICADZGLR5u7ALiEBEACGP04uEQkCV+ILzbugEA0OZtxGPJaIPom5hMF4Piow23AADcULvqhoIFsoIfGG9xsiEArKE14S3E41WwQDYwmbpD5xatTzhjHQCaY2gHc5JgLLBANuAHyiFV6wCjR2vAIeKxGQRkC/7Q+7u+whQAxkdTXf6Ed78ZXFgdmEzdqXPuneI/KADE4sP5zD3gae4GAekIGVoAo4FMq44gIHtAcB1g0BAs3xNiIHvgB9YtgusAg0Nz+hbisR9YIIEQFwEYDMQ7AsECCcQPuLcpOgSoluc+3oF4BIIFYsTHRRRwu131FwEYF3JZHeOysoEFYsQPwLt09AWohocEy+OABRKRyXRxmP4ZWVoARfLcWx3nvJ44YIFExA/MQ85cByiOC9+SBPGICBZIIiZTd+Kce2+QXw6gLt6fzxbzESKDgCSEADtArxAoTwwCkgGsEYDsYHVkAAHJBNYIQBawOjKCgGQGawQgGVgdmUFAesBbI2qFcmd0Xx4gPsqweoDVkR8EpEcm00ULhRPqRgCCUF3HyXy22IxBDyAgPTOZuhveGrk/6gcBsB8PvdXxjOfWHwhIIUymi3YopwTZAXZy5YXj8a7/CPKAgBQGbi2AjeCuKhBamRSGnyA6tOrDsT8LAM+H/rAnxKMwsEAKZjJdCIkmzb2xPwsYJY+8u+oJr79MEJAK8PGRE9J+YSRceHcVcY7CQUAqwguJqtlvjv1ZwCB56qvIEY5KQEAqZDJ1x94iQUhgCDz1FscZb7MuEJCKQUigchCOykFABgBCApWBcAwEBGRAEGyHwiE4PjAQkAHiheQB6b9QCErHPUU4hgcCMmB8HYkskiMq2yEzqhw/9xYHdRwDBQEZAb5h47G3SoiTQEqe+uLXMxodDh8EZGTg3oJE4KYaIQjISPHurWP/C6sEQnjqC1vPcFONEwQEGqvkmFgJdKCJbZxhbQACAi/wsZIj/wsXF6zyyAvHObENaEBAYCMrgfdjDrkaLVcrLipEA1ogIHAtPl7SWCYUKQ6bixVLg7gG7AQBgb1Yc3PdJWZSPYppPMY9BSEgIGBiMn0hJEdkc1XDUy8Yj+ezxU+AIBAQiIZ3dd3FOimOVSvjMa4piAUCAsmYTN2hFxL9OsRCyYYsjEsvGhKMy5F8b8gMAgLZWLFQGmEhuysOF14wLrEwICcICPSKL2I89L9ukeV1LRKLJ41gUMwHfYKAQHF419etFWG5MUJhkVA8W7EsnuCKgtJAQKAavAts26/a4itPvSXR+oULCmoBAYHB4GtUDv33aYTGeQvmcOV73kgQf7nyFkPD5cqfG5Fw3u1ErQUMAgQEAACC+ByPDQAA9sY59/8BuntOg3Sc724AAAAASUVORK5CYII=;" vertex="1" parent="1">
          <mxGeometry x="120" y="320" width="40" height="40" as="geometry" />
        </mxCell>
        <mxCell id="BB8o8y4dJ1L9ylsIL_xW-37" style="edgeStyle=orthogonalEdgeStyle;rounded=0;orthogonalLoop=1;jettySize=auto;html=1;" edge="1" parent="1" source="BB8o8y4dJ1L9ylsIL_xW-4">
          <mxGeometry relative="1" as="geometry">
            <mxPoint x="240" y="380" as="targetPoint" />
          </mxGeometry>
        </mxCell>
        <mxCell id="BB8o8y4dJ1L9ylsIL_xW-4" value="" style="shape=image;verticalLabelPosition=bottom;labelBackgroundColor=#ffffff;verticalAlign=top;aspect=fixed;imageAspect=0;image=data:image/png,iVBORw0KGgoAAAANSUhEUgAAAZAAAAGQCAYAAACAvzbMAAAACXBIWXMAAGl0AABpdAForRwYAAAgAElEQVR4nO2dT4hcyZ3nI40ZaB+mxAwDHrCRDNMLuwNWNczBPixS+zB7sEHV4Lla1ScPuYdW3xbPmK5mF7O3rr4kYxjokq/T0CXWPuwe3Cp2F/u0XeXDDqxZLOE5+DJeaQ72MZdvZjwplS8z62X8IuJFvPf5gCjpvW4p872I+Mbvb0zm87kDAADYl8/xxAA2M5m6w8nU3dp4EwAcFggMhsnU3XDOHfrvc8v/EqvXmz/fjvy9r5xzz1b+fLny5yf+1+L6fPbKfwdQLQgIVIO3BlZ/HXox0O9vVvYmn3pReebFphGZJ/PZC7EBKBoEBIpDriP3UiAakbgzsjd1sSIul15YLlv/FUCPICDQK5Opu7siFLdGKBT7cuEtlUvvDntc18eHIYGAQDa8C6oRjLsJ4hBjRfGXx15UHuMCg1wgIJAM74q6uyIatcUpauVpIyZeUHB9QRIQEIjGioVx5H8e8HSL4LkXk3MsFIgJAgImJtMXYnGEhVENT1fE5HzsDwPCQUBgL3ytxRFWxmBYtU7OqVGBfUBA4Fq8a6oRDbKkhs3Fipjg6oKdICCwEW9pHPtfZEuNE2V3nekXlglsAgGBF6y5p+7xZGCFR7i5YB0EBJpivmMvHMQ0YBfPvZCcUcQICMhI8XGNxkVF9hSE8HTFxUW8ZIQgICPDWxsPcFFBZOTiOsUqGRcIyAhYCYg/wNqAxMgqOSXwPg4QkAHj3VQnxDagB5pYyQnureGCgAwQ3FRQGLi3BgoCMiC8cJxQ7AeFcuEtEoRkICAgA2AyXcQ3TohvQCU89UJyxgurGwSkYhAOqByEpHIQkApBOGBgICSVgoBUhI9xnCEcMFAkJMfESOoBAakAguMwMgi2VwICUjC+juOUdFwYKUr/fUAdSbkgIAXiK8dlcbwz9mcB4Jz70FskVLYXxufG/gBKYzJdFAA+QTwAXqC58MTPDSgILJBC8HGOUw5vAtjJlXdrER8pAASkZ7y7SsJxf9QPAmA/Hnohwa3VI7iwemTFXYV4AOzHfdxa/YMF0gOTqTv0VgdpuQB2Lrw1csmzzAsWSGYm00V21WeIB0A0NJc+83MLMoIFkglvdZwRJAdIypWvZscayQAWSAZWrA7EAyAtt7FG8oEFkhCsDoBewRpJDBZIIrA6AHoHayQxWCCR8f2rzgiSAxTFhbdG6KsVESyQiEym7si5hbmMeACUhebkpZ+jEAkskAhQTQ5QFVSxRwIBMUKgHKBKCLBHABeWAX+07GPEA6A6NGcf+zkMgSAggUymC5fVR865gyq/AABo7n7k5zIEgAtrT3y8A6sDYFjIpXWXuMh+YIHsgY93PEE8AAbHbd/d95BX2x0EpCPeV/oZLiuAwXLgCw+Ji3QEAenASrwDAIYPcZGOEAPZgY93KEX33vb/CgAGyiOf6ktcZAsIyBZ8S5Jz4h0Ao0bB9SNaoGwGAdmAD6Q9Jt4BAM655z5Di6LDNYiBrOF75SAeANBw4IsO6aO1BgKygs+++ATxAIA1tCZ8QobWqyAgnsnUPSDTCgCu4SO/VoweRwxkyWS6yLSiky4AdOXhfIY1MnoLBPEAgADu+7Vj1IxaQBAPADAwehEZrYAgHgAQgVGLyOhiIL66/JxjZwEgIhe+4HBUVeujEhBasQNAQkbXEn40LizEAwAS05xyeGMsD3pMMRD6WgFAam77tWYUjEJAfJCLmAcA5ODOWALrgxcQsq0AoAdGkZ01aAFBPACgRwYvIoMVEMQDAApg0CIySAHxzc4QDwAogftD7eI7uDoQ/6LoqgsApfH2fDYsa2RQAuIPfPmkdQMAoAzems+Gk+Y7GAHhGFoAqIBBHY87CAGZTN0t5xYvBPEAgNKRiBzOZ+5J7W+q+iD6SnNExAMAakBr1fkQWp4MIQvrjBYlAFAZt/3aVTVVC8hk6k6dc/daNwAAyueeX8OqpdoYCOm6ADAQqk3vrVJAfMbVZ60bAAB18kaNmVnVCYgPPD0haA4AA0KZWbdqO4yqxhgItR4AMDQO/NpWFVUJiA84kXEFAEPkdm1B9WpcWATNISd3/5Vzf/Ynzv3mX5z74h869/H/cu7Z73kFkIVqgupVCAhtSiCUwy85d+ML/udrL38v9OfbX7I92qt/eiksl/r975Z/bn6vnwB7Uk27k+IFxAfNH+O6gm1ICA6/vBSGW3/88ufNP9ryP2Tm6W+de/LPSzFpfl7+GosGdnLlRaTooHoNAsLBUPAKci9JJJqfpQjFvkhYJCaP/8/LnwArPJzPyj5HpGgBoT07OC8Yd19f/rzz+rAfycUvl0Ly+JcICiwouv17sQJCh93xIvfT0e2lYNz76rifxaNfLIXk/Grp/oLRUXTn3pIFRHGPO60bMEjkijr++lI4anVJpUYuLwnJ2c8Izo+Mi/nM3S3xKxcpIJOpO3HOvde6AYMC0QgHMRkd789ni3WxKIoTEPpcDRtlTEk0jr9mT6GFJUolPvv5UkzI7Bo0xfXLKlFALknZHR6KZ0g07n9t7E8iLQ9/vhQTAvCD5Go+W2ywi6EoAcF1NSxkbcg9dfItXFS5kYvr5MdLNxdWyaAoypVVjIDguhoOyqJ68I2lxXHw2tifRr88//3SIjn9KVlcA6IYV1ZJAoLrqnIkHCffxE1VKnJvnfwEIRkAxbiyihAQXFd1g3DUBUIyCIpwZfUuILiu6gXhqBuEpHp6d2WVICAUDFaGguMKjL/z5tifxDD48NNlwJ1ge3X0XmDYq4BMpu6Bc+6D1g0oFlkcCpATHB8WCrYr0C6LBKri3fmsv0OoehMQzjavC9VxnH1neOm42n2HWlJf+b5zp381rH5dSv89/hF1JBXR61nqfR5pe4p4lI/iHOd/7dynD4YlHtpxv3nq3IN/aN3qjGIHR3/n3Ns/Wv59Q0DvWO9a71zvHornwK+lvdCLBTKZLvx2n7ZuQFHIVSWXVZ/uKu2ItRv+i5vO/fmftm4HodYfdz946fOfz8L+nsn05e/V10sWWqz2LP/4G+e+8Af9irZEUS4tubageN6czxbx5Kz0ZYFUdXD82NBi+Phd5z74dj/iIdGQa+mNHzh362+XO/1Y4qHMo8MfxA8YX3pRuorU2PBff3FpHekZ6FnomeRG715jQGPhkL5lpdPLmprdAiFwXjayOrRo5Ea7XbXd0G53tbusFq7Pvhfnw0g85N9fJ4YFsooskRipzXomErsmzVbPQu9H7WH6EPZ3P8YaKZzsAfWsAkLgvFzk79bCl/vEP53Apy6yarexjtKFL/8mjhtnm3i4BALiIoqIns/dDdsttYlRV+M+3peeI7UjRZI9oJ7bhXWCeJSHdrSX38u3GGlnrQVdWUxaHDeJh4jVhHGXeKRC/54WWyt6J7I61tEz07PTM9T3yxXE1+fRWDmi6VCJHPg1NhvZLBB/RO2vWjegN7TDVxpqrkpy+fFlbcgNcl0MQmnDygay0kU8Ulggzj9fxQ+sgfV1V9Ym9G8tGlh+PV/gXc9WcRoKEIvjK7mOwM1pgRA4L4gmUJ5DPCQcSnVVQFxZPdctOFoM5QKyooC2JU3Xir6nrASrdXDQ4Xk88xlTesZ61jmC7ho7BNiLJNtam0VAfNruvdYN6AW5H2LsjK9jVTi2uak2oZ20dRf9/Pevpur2RSwR2ebK2oSedS4hue03Iri0iuKeX3OTk8sCKe4s37Eil9Un302bxaPFMkQ4nLeM3vtm6/LelCAeDZeRLCHV5NzY472tCknKGInGksaUxhYUQ5Y1N7mAeCWkWWLPaOFRdXHKBohapN7/SZhwNMRYhJRuehmpHiMWeh4PA59Jw8FrYc+nERK9m5RCorGlMbaPyEEy7uSwQnJYIGetK5AVpejKzZCyZ1NToNclxrENpaZaM8GU+VRqrYKsEGuhoeIOSjDYlyZGondkFbJdaIxprNEGpQiSr71JBWQydcdqr9O6AdmQS0hpl6niHfKxq6eUtTbgRuDuehXtrtWbqlS0iMdIJz41FHrqHekz6J3Fqppf57YfcwTXe+emX4OTkdoCIfbRI9qpajeYKt7RuKtidG6N0SJeC2PpKaVyrb1vbJmuBfrYmD2ndyZrxPpZtnHgU5hDrCWIStI1OJmAYH30ixYY1VGkEA+5iVTAFuvsCLk7rIHzR79YtkKpAT036+5fRZYxYg36LHqXMYoe19HY0xi0ih2YSGqFpLRAsD56QhP2o2vqBkJRgFoZTjFbWZwYxUOuq+OHrctFY3VlKc25a1rvdehd6p3q3aZAYxER6ZVka3ESAcH66I9U4qEdszrDxg5Qy8VhLWassRo6hitLAhIz40nvVu84RWwEEemVZFZIKgsE66MHUomH2onLX54iNdZqfSyaMSbMKkqJFmxLod+BP5s+JnrHh76FfGwQkV5JsiZHFxCfe4z1kZkU4iHX0Fs/TNcORNaHNW03d5PEmMhqsj5b1V6kSJnV59K7j103goj0xs0UdSEpLBCsj8ykEI8rvxNNGZi2Wh/aJdfeVlzP1xrAtj7HbeizHSZwaSEivRF9bY4qIFSd5yeFeDz8efxA+TpW62Nx3OqPW5erxGpFKYaUqnCvCbDHLj5ERHohenV6bAskQgNu6EoK8VAmTo56Cuuu2VLxXhpapK0xh1RWiFspgIydpYWI9ELUNTqagPjzPui4mwnt4GOKR9MAMUcbEKv1ocDz0I5WlTVliTektEIa9MxjN2bUGKbYMCv3/FodhZgWCLGPTKhFxPl34/1bTevzXNlMZutjIK6rVbTLt4pirLqQXTQnIcYUEY1l2p5kJdpaHUVA/FnnR60bEJ2mMWKsCnMFSLUg5Opea7U+ak7bvQ4JiGVhljsoRyfcSz9mYgXXm7YnNGDMxpFfs83EskCOOes8PYuW7BHP8sgtHs7Zfd6x2qeUiNUKOXgtjxXiEomIxjat4LNw4NdsM7EEhOB5Bs7ux+uq24hHzkC0dpiWqnNZHzEaN5aMBNJSXBi7On0XzWmLsUREY1tjHLIQZc02CwiFg3lQq/NY53n0IR4uUubVGLDEeLSTz3m8bGwR0RjnZMMsRCksjGGBYH0kRgtCrJME+xKPG8aFbQzWR4NiPJZYSOz2JtcRW0Q01jljPQvmtdskIKTupkfZKWeR0nX7Eg9x/HVb7GYs1keDJRaiTr25F+DYIqIxT2ZWcswpvVYLJOlpV2NHu3ZNpBhB8z7FwxlTTBUTGIv10WDNyMoVTF8lpogc+LFPUD05pjUcASkY+YJjBM37Fg/thrUrDmWIdR/XYc3IUqp0H2mxMUVEY594SHL6ERCC52lRuqv1nAzXHLbU81GvVutjqHUf11FDYeEmmtYnMYoNNQdod5IUUzDdYoFgfSRCO8cYO6+mwjxnncc6+i6WwsGhtSzZBy3EliaGuQoLN9HUicQQEc0FigyTEryWBwkIledpiRX30JkOfYqHM+6Ctfic/ax1eVRYkgdyp/Suo7EX4yyZJh4CyQiuTA+1QI6oPE+DaiWshyw531W3BNePxf2gzz+UjruhqFOv5byQvtxYDXqHMbr4ak6k7Dg8cg5CDQKLgEBklLb4XoRJIrdHCa4fiYfFkhqz+2oVy3NQILrvdFh9/hjniWhukNqbjDwC4k0daj8SECPucRXJbRAD1X6E8ugX9Z82GAudDGhpb2J5D7HQmIyRmUVWVjLuhbixQiwQgucJkKvB6rpSzODoh2W4fazB87HHPtaxWCElZDE982PTGlTXmOrbLTdg9l7bEZAC0GIbw7+r1MlSdu2WRUu77ZRnsdeIRVDlRixBRDQ2rcf3Oh8nJCsrCWkFxJe906UmMjLLrVlXOhK1pEXX4jYh9tHGmtJ7dNi61Asao9bjezVXcGUl4fa+rU32tUAInkdGByxZu+yWFPdw/jtZKs9xX23GklWnMVbKrj1GPETfh6Nwk7DXGo+A9EyM/PYYboGYWNwlD0nd3Yr6gVmC6SV1uI0xZqkNSUIaAfER+jutGxCMfLmWnbrz9R59FwuuY1moiH3spvZgeoPGrLU+RHOH2pDo3NknG2sfCwTrIyI3Ihw/qgKz0uIFEo/QeA7B8+uxuPdUE1JS8Flj11Ik6TKfwDgiOq/1CEhP6NAfa+C8NNeVMwbPEY/rkXtPNTKhlJYCax3DmkO5D9AaAUkExHz8ISzRLtB6wuD7Pymv0E47QUtCANlX3bBYIaWd9Kcx/L7xsDDNJdJ6o9J5re8kIJMpva9iYvXbKoOlxBP6LIuTvhOV592QpRZakKe4QWntQDSWrVlZxEKicuDX/GvpaoFgfURCOyXrOR8PIjSnS4Gl1mCsZ36EYnH3ldDaZB3rmNacwgqJSqc1v6uAEP+IhHWnpDTXEo93tbqvqP3YD4u7rzQ3lvMpytaGi1ghUYljgfjKRE4ejIDV+pDbokTXlTMuSgoKU/uxH0qDDa0JKdGN5bwry9IrCyskKje7VKV3sUBwX0XCukPSrrPUOIHFfXV+2boEXZ7bwNxYGtvWRAqskKhcu/Z3ERDcVxGIYX2UnKVkcV+RvhvGkLKxGjTGsUKK4dq1HwskE9b8e/UPKtXNg/uqH6xurBIXWo0Fa1832r1Hw2aBTKbukPRdOzeM7bS1SJScpWRqXYL7yoTFeivVCtFYNx2g9TWq0yNx4DVgKzsFBOsjDvI3W6rOT37culQU9L7qD4sbq6TeWOtYxvzi/JMCYzyVslMDEJAMWEzq0q0PZfOEiiPuKzsWN5Z6Y5W6U7daIbixorFTA64TkJ3mC1yP9WyM0q0Py06vxHqWGhmiG8sZx77mHOeFRGGnBkzm83nrontZ//Gr1g3YC51ZYK08B4D9UWFiiQ1HK+Qr85l7sulj77JAdpoucD1yDyAeAP1wn2B6LLZqwS4B2Wm6wPUQyAPoF+ZgFLZqwS4B2ao60I2Ss1wAxgBzMApbtWCXgBQcXisfZSfdLrDfEMCY0Bwsse9XZWzVgo0CMpluVxzoBqYzQBkwF+1s04SNArLL5wXdKDk9EmBMMBejsFETEJAEyGS21H4AQDxKbV9fGRs1YZuAXNsHHraDyQxQFsxJMxs1YZuA3Gldgc5gMgOUBXPSzEZNaAnIdd0XYTdqkY37CqAsSm1fXxObtKElINtMFegGOx2AMmFummlpwyYBaakMdIcGbgBlwtw009IGBCQylqNdAYC5WTAtbfj8hs96o3UFOmHZ4fzX/+3cf/5vrcvF8e03nPv3G8Np1/Pux8vzK0rj0wdhH+jN09alIrC8o+//F+f+x/9tXS6K//CXzv27fxP2iTRHOUYgmJY2bBIQMrACuft6+P/7d/+9joFtOajn9KetS1VT6vt69rtwAfn858ofh+qwGywgryMgBlqj6hUXlj8DBAKxWCC1HO0aWpB18cvWJUiErLzngSc91hAnsMwV4iA21jViPQaCgBi4E2iB1LK4WlKUS3RdDZnHgWMqdAznJnTO1PL9CgYBSYFlZ1OLSW1pB4HbIC+Xvw7/52po+2EZT1ghJhCQFFjiH6G7xdxYFhYskLxYxlQVAmL4fpa5CrsFpJWmBd04/HL4g6pldx66c3v6W+ee/HPrMiTEMqYsYzkXQ/9+BbNTQFppWtCNMQSXQ78j1kc/XAU+91o614bOHTrzmtgpILiwAlBaYWhwuRbrQwH0g9dalzth8cdDOKHCXUugOXTuaK7eCBzLsFtAbvJ89sdiEteyO7c0oqslxjM0LGOrhsaDlu+HGyuYVzTihYBMprivQhlDcNkSeMQC6QfTAluBm2fo369UVrVi1QIhgB5I6G5NxV61BJdDd2wKoD8LLGoDG6ZAcwULrOZOaMEkrd1NvNCKTc0UYU/GEFy+RQFhlQQH0itx8YSOLyyQOKwKCAH0QEIHY03FdbdDRRL3Va88+W3Yvx66YchN6BxCQEy80AoEJAKh2Um1uHYs5j4WSL+ECnjohiE3oXModM7Cgo0CAgGMIYBuERAKCPuFTKztYIXYWRUQsrACuPGF8P+3FveOKQMLC6RXLAJehYAY5pBl7o4csrBiYdnFDD07KTSAC/EY+g7dMoewQIIhCysWoRWtNS2uoT2wSN8tg6eBgfRaqrVD5xLV6HYQECOhZv4YFldauJdBqBurllTe0LmEC8sOMRAjoQJSU3CZQ3jqJtSNVcsOPVggcWGFsjEGcruajz8AxpCdRA+sMtAZ6SHUUq1Npl92XmgFLiwjQ/ejskurn1ALJLTDdC0QA7GDgBgJLbiqZddk8RMTAymDocfbQudSLcWSJYOA9ERoiwmAfQl1YblKzg9nLvUHAgI7CXVhhXZJhfhQzAmpQEBgJ6F+YhYtgOGDgAAAQBAIiAEOpYFaCK1GH3oWHplYNhAQA6ZzwslQgoyEZirVsMCaTl7kbHQTCwGZTGmkCAAA3ZhMl2eCYIEAAMC+LNqZLARkPnOXPD4AAOhCoxlYIAYs1eQ1FGjBcBhysNgylziz3wYCYoAmblALoW07ht4QkzNrbCAgAAAQBAICOwndoXGGCMDwQUBgJ7QkqR9a8kMqEJCeuDXwsxYcVb7FMPSW/GOYS6WCgBgJPdC/ljYollbgVPmWwdCFPHQuhc5deAkCYmToWRy4sOqHlvybIQPLzqqAXNX6JWpkDI0Y7xJIL4JQF1YtmweammbnhVasCsiz4X/v+IROspoG/cXAawGGTqgFUssOPXQuYV0H80IrcGEZCY0RjCHATLV9GQQvsJVUaYfOJUt8D5YgIEZCd2k1HegfmomDa6EMbgZmKdVigYTOJWIgdlYFhIaKAVjM4KFbIaELF8TDUgNSg4vHModwYQXzQiuIgRgZQ5qrpR8SRWz9YrECa+j1ZplDuLCCIQYSC8suppbF1bKQ4MbqF8sYq0JABm5hlc6qgDwZ+8MIJTRfvhYXlmUhwQLpl9Adei1FdqEblKHXuCTmhVYgIBEI3cnUlKUUuqBQjd4voW0+nvy2dalIQjcoWB8mNgoIBBI6GGvanYcuKFgg/RKaoVRLCi8C0i9kYUUg1MVz8Fo9MYLQBUWZWDRV7AfTSX0VLLCaOweBY4vD4Ey0s7DmM7KwQhlDIN2UiYUbqxeGHmAmgN4Pq1qx7sJ6OoLvHx2LuT+GTCx6YvUDGVjb4Sz0YF7RiHUBIZAegCpanwbGCGoJpGtBCc1cwQLph9AFtpbeZ6FzR3OVKvRgXtGIdQHBjRVIqElc09GvY0gWGBLBAfRK3Duhcwf3lYlXNGJdQAikB2IxiWuxQkJ7YhFIz48pgF6Be2fo369gXtEIXFiRsASZa4kRWHZudObNi2VM1bBDt3w/y1yF3S4sBCQQy9nRtSyuCEg9hMadFOeqQkAM46mGc94LBgFJRWjwsZY4iALpockCxEHyErpDH3r8g8PRzGwXkPkMAbFg2dkc3W5dKpIxJAvUjsQ6tMCuht25Za5gfdhY14jPb/jbLjTfW1fhWuRbfS/wMf31v60jtfCf/l/rUmcefGNYGTCluuW+/UbrUmc0Bkt3N2quhEL8w8TF+v88mc/nr16YunPn3L0avk2JzGdjfwIA5TKZ8nIMPJrP3NHq/76pmSKpvAYe/aLajw4waJibZlragIBEBh8rQJkwN820tGGTgBBIN3B+Ve1HBxg0zE0zLW1oCch81lYZ6I4l1RUA0qA5SQt3G5u0oSUgnla0HbrDTgegLJiTZjZqwjYBaZkq0J2zn/GwAEqCOWlmoyZsE5CWqQLdUa0DbiyAMtBcpAOvmY2agIAkApMZoAyYi1HYqAkbBWQ+c49bF2EvMJkByoC5aGebJmwUEA+6bUAm8xVmM0CvaA7ivjKzVQt2CchGxYHunP2chwXQJ8zBKGzVgl0CstHnBd3BdAboF+ZgFLZqwS4B2ao60A11Nn3IDgigFzT3auhwXQFbtaDVjfeVm9NF7u/N1g3ojFpjf/og/Hm9/aOyzfDTv3LunTdblzvx7sfOnf409yduE9pBuZTOrpZ3UPL4Ov6acx99p3W5M2+e0v8qAk/nM3dr21+zywJxu0wX6IYGsKUm5ORbrUtFYXERcMxtHCwHLJWc4moZ+5pziEcUdmrAdQKy1XSB7lh22Tf/aLkTKxVluDwPdBPc+6pzNwJPzoMlOn1QYyQEZSiV6uLRmA/9Xs445+AVdmoAApIB7dJDF1lXgRVi2cXWcpRvqRx/PfyDlewatYx5zTWC59HYqQE7BcR3X3zeugF7oV2eZbKWboWYBOSwdQn2eX4DdF9ZrY8zguexeL6pA+8qOwXEs1OBoBtWk1qB0lLdPZaFCDdWOBb3VantzTUWNNYt4L6KxrVrfxcBOW9dgb3RZLWk9B685tyDb7QuF4PluFDcWGFY3FelWh8a4weGDYXmGOd+ROPatR8LJCMnP7H9W5pct/64dbkIzncaurvBjRWGRXhLjBFobFs3SdY5Bq9gt0Dms0UtyNPWDdibGFbIyTdbl4vA6sYqVRhLxeq+KrE/lMY21kcxPPVr/066WCAON1Y8rDuk+18rs35CQUvcWPmw7NRLdF9pTN83JopgfUSl05rfVUBwY0XCaoWI02+3LhWBxY1VcpZZiQzNfWUd01gf0em05ncSkPlsoUak80bCulO6/aUyXVmWna2+E26sbkg8Ql09JbqvNJb1/k1/B9ZHTJ77Nf9aulogDiskHtopffip7a9775vlLbhWN1bJWWYlMaTsK43h94ybIc0lrI+odF7r9xEQ4iAROfmxrTpdnBkazaXC4h4hDnI9qpNQ0kEopdVIWMew5pDmEkSl81qPgPSEduvWyXzn9fJ27drhhgqjsooQkd1YrA/1vippp66xqzFsQXOIqvPoxBeQ+cw9c85dtG5AMPLbWjr1ig++vUzpLAmLm8SyQI4By4ahpN5XGrMfGAPnmjvEPqJz4df6TuxjgTiskPgc/8j+V5bmyrIsVLQ22Y5SXS09okqKf8QYszHmDrTYa41HQHpGZxZYAs/OZzBZ+wfFxHoGChXr4lAAABCGSURBVFbIZiypzhpjpbivNFatWVf6Ppz3kYR0AuIrEws+gqZOHvyDPaCuE+lKih9YgulkY7WRVWYptLPU6MREYzT09MQGzRXNGYjOVZfq81X2tUDEWesKmNDOMIYvV26BUlJ7re3rCaa/isUqe248TiAWGpsxXFeaK6TtJmHvtR0BKQRlk1z80vZZVFx2/t0yYgia4BbXHG6sV6m9dckNPzYtva6E5gjt2pORXkB8hP5R6waYiWGWlxQPsbhNaLD4ElljtR/vGiPu4SLNEdjIo32yrxpCLBBHMD0NajHxfgRXlnzlJcQR5DaxxHaIhSyxPAfVfvTdukSf39ooUWhulNhFeCAErekWAaE3VgLk37W6spyvDymhQaHF967PP/aUXllhlmK7vq0PvUNrvYfzritqPpLxPKuAeFMHKyQRym+3ZmU57zbou8jQsoDJXz72WIilaabGUJ/xj8NI7lR9D2o+knIe4r5yBgvEEUxPhwLQMXy9WoAfv9uviOi7WCyqMbuxrKm7sv76avOhMaexZw2aOx/3IOsqKcFrebCAzGeLjo2cVJgITX7ruSHOi4hSJ/t0BVmsEAWPx3pWiFU8+3Jf3fBjLoZ4aA6U1IJlgDz1a3kQFgvEYYWkRTuvqwhBw9t+N9iXiMiNYqlMP/lW69Lg0buyCIisvj527Te81Rsj40pjn6yr5JjWcASkYJ79Pl48pG8RsVohJR7jmxKJh2UH34f1EVM8mrgHnXaT05+A+LJ3akISorTFWAHEPkVErU0sQljiCYwpsSQPyNrLHTyPKR7OJ5KQspucR/u2LlnHaoGI09YViIoWA+sJhg19icgzYzsNpbKOxQpRzMdSOJj7gKXY4qGxXtrJiQPFvHabBYRgeh7kC7Z27W3oS0SsbpWxWCGWmE/u1N3Y4qExTtwjC6bgeUMMC8RhheTh+GGcoLrrSUQU1LVklo3BClHsw9q2JFfcILZ4aGxrjEMWoqzZsQTkjMr09GhhOPphnKC6WxGRnHUiWCHb0YJsLRzMFTxv6jxiicdzP7YJmmfheawEqCgCQmV6PrSLv/tBvSKiwKilsFBWyFDrQqyZV3Jd5ViAU4iHxjTFgtkIrjxfJ5YFIk5aVyAJWoS1W4tFU7Gea2G29jQaYl2Ite7DRXiuXdAYiVVh3qCxTMZVVqKt1dEEhJTevOg4z7cj9gfSgvDRd/K0DtFnt1ghihEMrcWJRNGyKCu2lHoHr2f+UaQK8waNYY6mzYo5dXeVmBaII5ieF6XFxhQR57v45mh9YrZCvjmcTr3quGs95jWl9dG0JonRVXcVjV3alGQn6hodVUB8WthF6wYkI4WI3PduipQHOlmtEO2Ch+LKsh7zmtL60BjQWIhxnscqiEcvXMRI3V0ltgXiiIXkJ4WIKEB6+b20Z5Nbd83atdd+aqGer+W8D5fQ+tBn0xiIFSxvQDx6I/raHF1AKCzshxQiol3+J99Nd0Su1QpxEXbvfSLXkPXZqmo7hfWhz/VJhDPM10E8eiNK4eA6KSwQhxXSDylExPmdvnaiKVJ9rVXHNaf1WosGlf4au23Jobc8rTGZTSAevZJkTU4iIPPZokgFK6QHUomI3BiffS9+9pPSN63nnmi3XFtAXQv1e8aiyNhV53q3nyVwWTnEo2+e+jU5OqksEIcV0h+pRMT5LK3YAXarD39xaNb91uWisbre1HE3VtV5EyiPnWXVgHj0TrK1OJmAYIX0iybsm6fxKtZXkdvoV/8xXlsR+fDfN4rIva+mDfjHRM/NusuX6yqG9aHPondpDeRvQmNPYxDx6JVk1odLbIE4rJB+UZA6ZtuTdeSCkb88RoND7aatn7Pvo3u7EMN1paaD1kVZ70zvzvpZttG0J6FIsHeSrsFJBQQrpH8UYzj8QbwuvutoJ/3pg+XibXFraTdtDaiX7spqCvKsPPg4/C/QO9Jn0DtLEetwXuA05mhP0jtJrQ+XwQIRx60rkJWmAWOs80Q2oUIz7WgtFeLaVVvTeuXKKrXNiYL91kVbCQchu/qm06/eUeyiwFU0xmiMWAzJ197JfD5vXYz+j0wX+cd3WjcgO1rEUqRorvLcWxMhbpZDn+1l5Y09dsDzWetSJybT7v+tUo0/Mlofeq63/nb/2If+bb332DUd6yiOlaOhI3RCVed3Uz+qHBaIIxZSDlrY34p4psgmmsaMT/7T/jUaWvRjHN/b19nvm5AoxijG1LvbRzz07PUOYjdAXEdjSWMK8SiKLGtuFgvELXdrOi/kXusG9IIWNfnCU/nBV1HKqbKGulokWvgv/8ZWZOe8L17ulOsW3ZQWiL6LFnHrAi7Xnr5LFyQc6hNmfX5dWJwi+CPiHYWhjrtHOT5SLgtEPGhdgd649IurtYivC1rIGoukS4xEC/5xhDqW25F2/qE0R75axeN5h+fRxDgaiyOHeGjsaAwhHsWRba3NZoG45Y5NrYTfad2AXlH9xFliN8cqWhB1ep5cHruCrbHiNVrodi3AqSwQiUeM+op3P95eNKisKgmH3mHO96fnqXcIxfHhfDZcAbmhpCC5yVs3oVea9M4UBWW7kGvm7Geb3VuxXFnuGhFJISB6ljGynba5ruSmOv56P+9Lz3GX8ENv6KzzW7GOq+1CVgFxy0knddwwJaAElAKbqqXFLhqr5GwtTTVWVpbbISKxBSSWeKxnXelZ6P3ktDZW2WUJQRG8O5/lPdQvu4C45cS7lIu6dQOKoMkayr27bVDQfSEmP1v61+WiiVUxvUlEYglIE/OIlZigzCbt9GVpSDRyxDU2IatDGWDEOormaj5zh7k/YF8CovzkCMmakBLtdrV497HbbZCYyCL5i5vO/fmftm4HsZ6dFUNAYme1/eNvnPvCH/QnGq5pF/8TrI5KeDPFeR/X0YuAuOXkU4l9ZT1Ux4diI7JGVOE9JLQ4Hv1wKU5WAclVqJcTVZTL6iDWUQUP57N+On70KSAE1CtCzffOMqWH5kRFi6GZXl/5/vDEVRafXHw0QayG7IHzVXoTEEdAvUrk0pJra0i7bVhaZHJVUU1eHdkD56v0KiCOPllVsiha+1b6nlqQB1lhsc4Xgaxk6Xe1ixIERJkDn7VuQPE0RWwpu7tCOpSRdl0xJxTNG/PZIqO1N3oXELcUETX+eq91A6oAIakLhGMQvD+f9d+ktggBcdSGDAKEpGwQjsHQS83HJkoSEFxZA0FCokC70lsJtvdLExxXhT/CMRh6d101FCMgDlfW4FCwXRXUuVqLw0uaFvqq6Cc4PiiKcF01FCUgDlfWYFEdiSwS3FtpkZtqvZ8YDIZiXFcNJQoIrqwBI6tEvZ0kJjkOsxoDas0i0VDvMKyNQVOM66qhOAFxuLJGg/pH9d0osFbWG07C4CnKddVQpIA4CgxHB2JyPYjGaOm9YHAbJQvILZ28Sq+s8aEsLgmJ4iZDa+K4L2pqqHiGhIMsqlGiXleH89mib2BxFCsgbikiOhj+k9YNGBUSkruvL3/2dUZJLnT2hgTj8S8JhMOCt+Yzd17qoyhaQBxt32EDEhK5vJqftbq85JKSK0pC0fwEWKG3Nu1dqUFA1Pb9Mam9sA1ldh1+eSkmcn81P0sRFgmF3E8Siebn5a/JmIKdXGmv1Feb9q4ULyDuZWrvY+IhsC8Skxtf8D9fe/l754XHmkqsFNpGCCQMz363/HPze4LdEMBzLx5FpexuogoBcUsRkSn3UesGQALkHvuzP3HuN//i3Bf/0Lm//588ZcjG2/PZwnVfPNUIiFuKiA5Oead1AwBgGHw4ny0O2quCqgTE0eoEAIZLca1KruNz19wvkbveRwgAMBSe+7WtKqoTEJ+VUN2DBgDYQfEZV5uo0QJxPjvh7dYNAID6eLuGjKtNVCkgbikiylL4sHUDAKAePqwl42oT1QXR15lMF2X+91o3AADK5tF8tmjXVC3VWiArHPuqTQCAWrjya1fVVG+BODr3AkBdFN1hdx+GYIE4/yJI7wWA0mnalFQvHm4oAuJeZmZVbxICwKA5rjXjahODERC3FJFz0nsBoFDeLvlsjxAGJSDuZXovIgIAJVFNg8R9GJyAuJci8rB1AwAgPw+HKB5uqALiliJyjIgAQM8Uf6qghcEKiENEAKBfBi0ebugC4hARAOiHwYuHG0ohYRcm08WRuHfK/6QAUDkX89k4OoYP3gJZ4YiWJwCQmCu/1oyC0QjIyjkiiAgApOCq1nM9QhmTBbIqIhetmwAA4Twam3i4McVA1plMF3nZ91s3AAD2YxQB802MygJZhewsAIjAaMXDjVlAHCICADZGLR5u7ALiEBEACGP04uEQkCV+ILzbugEA0OZtxGPJaIPom5hMF4Piow23AADcULvqhoIFsoIfGG9xsiEArKE14S3E41WwQDYwmbpD5xatTzhjHQCaY2gHc5JgLLBANuAHyiFV6wCjR2vAIeKxGQRkC/7Q+7u+whQAxkdTXf6Ed78ZXFgdmEzdqXPuneI/KADE4sP5zD3gae4GAekIGVoAo4FMq44gIHtAcB1g0BAs3xNiIHvgB9YtgusAg0Nz+hbisR9YIIEQFwEYDMQ7AsECCcQPuLcpOgSoluc+3oF4BIIFYsTHRRRwu131FwEYF3JZHeOysoEFYsQPwLt09AWohocEy+OABRKRyXRxmP4ZWVoARfLcWx3nvJ44YIFExA/MQ85cByiOC9+SBPGICBZIIiZTd+Kce2+QXw6gLt6fzxbzESKDgCSEADtArxAoTwwCkgGsEYDsYHVkAAHJBNYIQBawOjKCgGQGawQgGVgdmUFAesBbI2qFcmd0Xx4gPsqweoDVkR8EpEcm00ULhRPqRgCCUF3HyXy22IxBDyAgPTOZuhveGrk/6gcBsB8PvdXxjOfWHwhIIUymi3YopwTZAXZy5YXj8a7/CPKAgBQGbi2AjeCuKhBamRSGnyA6tOrDsT8LAM+H/rAnxKMwsEAKZjJdCIkmzb2xPwsYJY+8u+oJr79MEJAK8PGRE9J+YSRceHcVcY7CQUAqwguJqtlvjv1ZwCB56qvIEY5KQEAqZDJ1x94iQUhgCDz1FscZb7MuEJCKQUigchCOykFABgBCApWBcAwEBGRAEGyHwiE4PjAQkAHiheQB6b9QCErHPUU4hgcCMmB8HYkskiMq2yEzqhw/9xYHdRwDBQEZAb5h47G3SoiTQEqe+uLXMxodDh8EZGTg3oJE4KYaIQjISPHurWP/C6sEQnjqC1vPcFONEwQEGqvkmFgJdKCJbZxhbQACAi/wsZIj/wsXF6zyyAvHObENaEBAYCMrgfdjDrkaLVcrLipEA1ogIHAtPl7SWCYUKQ6bixVLg7gG7AQBgb1Yc3PdJWZSPYppPMY9BSEgIGBiMn0hJEdkc1XDUy8Yj+ezxU+AIBAQiIZ3dd3FOimOVSvjMa4piAUCAsmYTN2hFxL9OsRCyYYsjEsvGhKMy5F8b8gMAgLZWLFQGmEhuysOF14wLrEwICcICPSKL2I89L9ukeV1LRKLJ41gUMwHfYKAQHF419etFWG5MUJhkVA8W7EsnuCKgtJAQKAavAts26/a4itPvSXR+oULCmoBAYHB4GtUDv33aYTGeQvmcOV73kgQf7nyFkPD5cqfG5Fw3u1ErQUMAgQEAACC+ByPDQAA9sY59/8BuntOg3Sc724AAAAASUVORK5CYII=;" vertex="1" parent="1">
          <mxGeometry x="120" y="400" width="40" height="40" as="geometry" />
        </mxCell>
        <mxCell id="BB8o8y4dJ1L9ylsIL_xW-6" style="edgeStyle=orthogonalEdgeStyle;rounded=0;orthogonalLoop=1;jettySize=auto;html=1;entryX=0;entryY=0.5;entryDx=0;entryDy=0;exitX=1;exitY=0.5;exitDx=0;exitDy=0;" edge="1" parent="1" source="BB8o8y4dJ1L9ylsIL_xW-5" target="BB8o8y4dJ1L9ylsIL_xW-2">
          <mxGeometry relative="1" as="geometry" />
        </mxCell>
        <mxCell id="BB8o8y4dJ1L9ylsIL_xW-7" style="edgeStyle=orthogonalEdgeStyle;rounded=0;orthogonalLoop=1;jettySize=auto;html=1;" edge="1" parent="1" source="BB8o8y4dJ1L9ylsIL_xW-5" target="BB8o8y4dJ1L9ylsIL_xW-3">
          <mxGeometry relative="1" as="geometry" />
        </mxCell>
        <mxCell id="BB8o8y4dJ1L9ylsIL_xW-9" style="edgeStyle=orthogonalEdgeStyle;rounded=0;orthogonalLoop=1;jettySize=auto;html=1;entryX=0;entryY=0.5;entryDx=0;entryDy=0;" edge="1" parent="1" source="BB8o8y4dJ1L9ylsIL_xW-5" target="BB8o8y4dJ1L9ylsIL_xW-4">
          <mxGeometry relative="1" as="geometry" />
        </mxCell>
        <mxCell id="BB8o8y4dJ1L9ylsIL_xW-5" value="" style="shape=image;verticalLabelPosition=bottom;labelBackgroundColor=#ffffff;verticalAlign=top;aspect=fixed;imageAspect=0;image=data:image/png,iVBORw0KGgoAAAANSUhEUgAAAZAAAAGQCAYAAACAvzbMAAAACXBIWXMAAGl0AABpdAForRwYAAAgAElEQVR4nO3dS4xc1Z3H8eNXhZRKscmSSLgjZjWA3ZFAmkli7GyIUILaWcVRLNFe8VrEYUECWcQsQkIWjFnYMSvakhFmFbcgQcmGbkwyCyzRbSCrWHFbAmk2QGdqaphy2x79q8+1q+veqq6655x7z+P7kSygi8zQ9Ti/+p//eWy5ceOGAgBgUlt5xoBi7U53Wv4UPghAUYEgGu1Od5dSKhvwp/Qf0f/z7J/3Wv69l5VSn/f981LfP1/Wf3o/bzUbn+f+10CACBAEo93pTvUFw5QOhV3673cH9kqu6FD5XIdNFjKXW83G5dy/DXiIAIF39LRRFhBZSOxP7JVa7AuXJR0sS7l/C6gRAYJatTvdA31BMZVgUExqUVcqS3o6bCGs/3zEhABBZfQUVBYYBxz0IVIl/ZcFHSoLTIGhKgQInNFTUQf6QiO0PkWoVrIw0YHC1BecIEBgTV+FcVD/dSfPrhdWdZico0KBTQQIjLQ73YN9oUGFEYaVvjA5l/qTgfIIEExE77U4SJURjf7q5Bx7VDAJAgSb0lNTWWiwSipui31hwlQXRiJAUEhXGrP6D6ul0iSru+bkD5UJihAguGlgemqGZwZ95pnmwiACBNlmvlkdHPQ0MMqqDpI5NjGCAEmU7mtkU1SsnkIZK31TXPRLEkSAJEZXG0eZooJlMsV1nKokLQRIAvoa4kepNuCYVCXHabyngQCJmJ6mOkZvAzXIeiXHmN6KFwESIaap4BmmtyJFgEREB8cxNvvBU4u6IiFIIkGARKDd6c7q4KC/gRCs6CCZ49UKGwESMIIDgSNIAkeABIjgQGQIkkARIAHRPY45ggORkiCZpUcSjq2pPwEhkOBod7ryoXqb8EDE5L39trzX9ZcleI4KxGN6H8dxluMiUbL89yj7SPxFgHhI7xyXHsdPUn8uAKXUS7pHws52zzCF5Zl2pysbAC8THsBN8lm4rD8b8AgViCf0nO9xLm8CRlrW01o02j1AgNRMT1dJcDyS9BMBTOa0DhKmtWrEFFaN+qarCA9gMo8wrVU/KpAatDvdaV11cGYVYG5RVyNLPJfVogKpWLvTldVV7xMegDXyWXpff7ZQISqQiuiqY44mOeDUst7NTjVSASqQCvRVHYQH4NZeqpHqUIE4RNUB1IpqxDEqEEeoOoDaUY04RgVimT6/ao4mOeCVRV2NcK6WRVQgFrU73YNKqSXCA/COfCaX9GcUllCBWMBuciAo7GK3hAAxRKMcCBINdguYwjKgr5ZdIDyA4MhndkF/hlESAVJSu9OVKatXlFI7g/wFAMhn9xX9WUYJTGFNSPc7qDqAuMiU1gH6IpOhApmA7ndcJjyA6OzVp/tO89KOjwAZk54rfZ8pKyBaO/XGQ/oiYyJAxtDX7wAQP/oiY6IHMoLud8gS3Znh/xaASM3rpb70RYYgQIbQR5Kco98BJE2a6wc5AqUYAVJAN9IW6HcAUEqt6hVabDocQA9kgD4rh/AAkNmpNx1yjtYAAqSPXn3xe8IDwAAZE37PCq2NCBCt3ekeZaUVgE28oseK5Cl6IOvane4cJ+kCmMDpVrORfDWSfAVCeAAo4RE9diQt6QAhPAAYSD5Ekg0QwgOABUmHSHI9EL27/BzXzgKwaFFvOExq13pSAcJR7AAcSu5I+GSmsAgPAI5ltxzuSuWJTqkHwrlWAFzbq8eaJCQRILrJRc8DQBX2p9JYjz5AWG0FoAZJrM6KOkAIDwA1ij5Eog0QwgOAB6IOkSgDRB92RngA8MEjsZ7iG90+EP1CcaouAN8caTUbUVUjUQWIvvDl97kHAMAPP2g1G9Es840mQLiGFkAAoroeN4oAaXe6U0qpJcIDQAAkRKZbzcbl0F+s4JvofYcjEh4AQiBj1bkYjjyJYRXWHEeUAAjMXj12BS3oAGl3useVUjO5BwDAfzN6DAtWsD0QlusCiESwy3uDDBC94ur93AMAEKZvhLgyK7gA0Y2nyzTNAUREVmZNhXYZVYg9EPZ6AIjNTj22BSWoANENJ1ZcAYjR3tCa6sFMYdE0B5CIYJrqQQQIx5SgKqv/q9TFT/KF+e7bb6g7vxrXwaPwVjDHnXgfILppvsDUFWy4+MkWdeXTLb2/Xvx4i1r9Qv5ZqSufbRn7//pXblNqz9fWPzf77rquw2X97wFLlnWIeN1UDyFAuBgKpZ2/tFWdv7Sl99d3L40fEmXde8eNXpDsu2v9rzu/zGuH0k63mg2v7xHxOkA4nh2TkimoNz/cqt74cKv6w0f5qaiqSaD8+P7r6uG7rzMFhjK8Pv7d2wDhhF1M4tX3/AmNYbIwOXzfNSoTjMvrk3t9DhDpe+zPPQBo0ss4cX6rOvPeNvXPL8J6Vn583/VemNA3wRgWW83GAR+fKC8DpN3pHlNK/TL3AKCD4/k/b1OvXgj/MOlv33VDPbnvmvr+PQQJRnqu1WwcG/Uv1MG7AOGcKwwTU3AMuvP2G+rUoWtUJBjFu/OyfAyQJZbsop80xn82vz3K4BgkFckLM2tqzx003JGz3Go2pnM/rZFXAcLUFQadOL9NPf+n8Hocpp7Yd009+yDNduR4NZXlTYAwdYV+stHvsbPb1QefuN+74SvZsPjyoTX6IxjkzVSWTwHC1BV6pOr4+fw2ngzte3df7wUJ1Qg0b6ayvJhU1lNXhEfipNfx0O92EB4DZG/LN1/c0avKAH1qrxfTWLVXIExdQekpq4dO7kiu1zGpUz9c6+0fAXyYyvKhAgn6UnmYk13k33qR8BjHY69v7/WGAB/GzlorkHane1Qp9R+5B5CMn81vUyfP1zNlJUeLyP4LOVk3O1FXFRzd3n/E+/rfr5/ou/LZlkoOaCwiy33Pzl6lL4KftpqN2oKktgDhbnPIN+kq93Z8+66NJ+XaIoHSO/X37+t/raqSkgB863FCJHG13qVeZ4BwTHvCqgoPWcH08D3Xe0thqxpo5TTg7ERg12FCiKDOY99rCZB2pysHg72dewBJcB0eMi21fuptvUeoZ0fLy7Jkl/tZCBEopb7TajYWqn4i6goQ9nwkymV4SHDI7m0fVynJ1Jac4+WqZ0KIJK+WvSGVBwiN83S5Cg+fg2OQyyAhRJJXeUO90gChcZ4uV7vLn3nwWu849NAGTVm6/PT8dus9ElkoICGCJFXeUK96H8gxwiM90gewHR7ybfsvT10N9sBBqZb+9otu79BEm6SyYZ9IsnbqMbYylVUg+oraf+QeQNRc7DCXqkOCIxYSsI+etVuNsGM9aV+v6grcKisQdpwnRlYhPWZxYJTTaf/4+FpU4SFkibFUI/davANEpsc4OytZlY21lQSIXrY7k3sAUZNLoGwtX5XBVQbZWG/sk2m4vz51tXdXug0S2hLeEuJIzowec52rqgLx7i5fuCXTMrZWXMmgmsrqolOH1tRvZuxUWBLesuILSapkzHXeA2HTYHrkW++//qphZepKwkMG1dTIKi05ONEGmfbjrvUkOd9cWEUFMpf7CaJmqyGcangovUpLGuE2PHZ2G1NZaXI+9joNkHanK+ez7M49gGjJRjm5AMlUyuGRsRUiVz7b0tuHg+Ts1mOwM06nsNqd7mUCJC13/2pHb8AywWa4jaSP8WsLvYyPnr1a69lgqMVKq9mYcvX/2FkFQvWRHpm3Nw0PWW0l91zglt4xLRZWZz3NVcEpclqFuJzCYuVVQmSOXfYemJB9HjJtxVlOeS/MrBnvE5GpRZliRHKcjcVO3k1UH+mROXbTxvnLh9bUHoub6WIioXp2dq0XsiZY1pskZ1WIq68jVB8JkerjxDtmA5NM0ciObAwn/YuXDRcWyFlZVCFJcjImW38n6X0fVB8JedPw5j05jl2maLA5CVm5ZdHEiXcIkATtdrE73cU7ieojMabTIi/MhHmibl2kCjGZypJeyJVPOScrQdbHZqsBohNuf+4BREuqD5OVV7Jkl6mryUjYPvtds+NOTpynCknQfttViO130dHcTxC1M++ZvYVetrTbOjVyiZZM/ZV15j2a6YmyOkZbCxB93wcn7iZEmucmu86lcc7GtvJMjrWXntWrhuGPIM3osdoKm+8geh+JOXPB7FtsbPd6VE2OOjGpQt74kABJlLWx2so7SN91fjD3AKJm8g2W6sMOkxCW6pFDFpN0UI/Zxmx9BZnlrvO0yCoek8uiqD7sMK1C3qQKSdFOPWYbs/XuoXmemPOXzFZeUX3YY3L3OdNYybIyZhu/e9g4mCaTgefwfVQfNh02OGiRXenJsrKx0Ma7h+ojQSYDD/s+7JJqruzudFmNddHSvfUIjvHYbRQgLN1Nkww4ZY8ukYGOXef2PWwQylQhyTJe0mv6znF62xX8ZDLgmAx0GG7fXeV7Suf/TgWSMKMxnADBxD74uPyAw/SVGzKNVfa+EJPVdAhePQFC8zxdKyXPvpIBjukrd/bdVS6c5Swz9oMky6iZblKBUH0k6t2SS3jLDnAY9/ktP4118RP6IAkrPZaXetew8zxdJseAc9ugWybPLyuxklZ6Z3rZrx0H2XmeprLTV+LerxEgLkkfpOw9IUxhJW1n2YLAJECQoCuflv+dqUDc21MypC8aLIxAFKoJEF3qsPcjUWUrEJPzmjC+3SWf59UvCJDEzZSZxipTgdA8x8Tu/CrPWRU4YwwGJh7bCRBMhKkOv5VdJl12ZR2i4jZA9Lb3vbkHkIyyUx0s4a0GfSYY2Dvp0SaTViA0zwEgXhON8QQIACDjJkB0h35/7gEAQCz2T7Iaa5IKhOoDAOI39lhPgAAA+jkJEOPrD5Eulv9Ww+SkAEAbe6wfK0DanS5nX6Fnzx3lluOy07kanBQAC3bqMX9T41YgVB/oKbtRjcP6/MZJARgw1pg/boDQ/4ARbr2rBvebwxI7FYjemcjNg+gxubTI5C4RjPsc5340lrJTk4jW7nF2pY/zdYXpK1hhcpcIxnOl5HPMVcMosOnYP06AMH2Fm0zOtDrPgX1OmUxfmVSWiNamYz8VCCZWdsUO8/NumVxLW/YeEUTNrAJpd7rTLN/FoHtLnvjKkeFunf97+eeXe0RQYKfOgKFGBgjVB4qUvTZVUYU49YePyj2332b6CsONzAACBBMzmS9/80OqEBfe/NCk/8EKLAw1MgM2e9eNLF+QJpMlnyYDHYYzeV65hAojjMyAoe869n9gGFnyWbYPIstMTZq9KPYGFQjcGLkfZNS7bmTpgrR9/57yg87Jd7blfobyXn1vq/rnF+X+5/JFgD0g2MTQLBgVICNLF6TNJEDk2zJnY9lz5kL5QP7x/VQf2NTQLBgVIENTB5B587L7QeTbssmgh1vkeBiT5dFMX2EMQ7NgVIDszf0E6GM2jTXqrYdxPf/n8kEsXwBooGMMQ7Og8FPc7nSHJg6QMZn+kGa6zN2jPKk+Xr1Q/jl84gGqD4xnWCYMe/cNnfMCMibTWMrw2zPMn7+H7yZAMLbCTCBAYMTkW6xUIYRIObKj36T6+N7d1zm+BJMozIRh78Ch636Bfofvu2b0fJx4Zxv3hJRgGryHWX2FyRRmwrAA2Z/7CVBA9hD8+L7yg5GsyHp6nipkEifObzNaeSXTjiYLIJCkwkzIBchmpy8Cg5590KwKkUMAOeJkPFKtPf8ns8A1fb2QpqJsKPrUFpYqwDAyl25ShYhHz25nKmsMh+a2l951rnT1weZBlJTLhqIAyaUMsBnTb7UyKMrgiOGk7/GB4TliVB8wkMsGAgRW2KhCZHB87CwhUkSm+H5t2Din+oChXDYUBciu3E+AMci326/cZvZMydJUNhhuJKcXP2ohWKk+YCiXDUWf1MJuO7AZqUKefMB8kHrs9e2EiCbh8dDJHUZ9D6VvHaT6gKFcNmz4lI469x0Yh3zLNdmdnpEQSf3eEDmxWKb0TMNDvDCzlvsZMKnBjBj8mkeAwNipQ3amSuSbd6ohIuHx0O92GDfNxTMPXuPQRNhCgMAtOSL8iX3mISLfvL/14o7kprMkNL/5op3wkAuj6H3AIgIE7tmaylKJ9USynoecE2bDqUNMXcGqkQGSW6YFlCFHnLx2xN7gJSES+xJfCUmpuGz0PMRvZpi6gnUjAyS3TAsoSwYvGcRskSW+MrUT2471rFkuIWmLnLb7pIVpRGDAyABhCgtWySBmusGwn/QF/v3FHb0DBWMgx7JLKJoczT5I+h4vM3UFNzZkxJYbN26VuO1Ol3oXTthqCveTvQ0v/3AtyHstpOqQo0lOWg5C2cj51hNXmbqCM61m4+YH+WaAtDtdmb76jKcdLthcljpIlqlKpSN9lxBIr+PpeTv7Owb95SnCA87d3mo2PlcDASJ33r7Ncw9XbO2qLiLfvGUXvM9BIsEhVYetFVaDTv1wjd3mqMJ3Ws3GgiJAUDWXIaL6guTwfX5c2SqVlxyE6DI4FOGBahUGyKxS6hVeCLjmOkQyshLp4Xuu1zKwyu948p1t6o0Ptzr/PQkPVOxIq9mYUwMBckwp9UteCVShqhBRuiqR3fESJvvuuuGkMpFKQ1ZUSbVx/tIWp9VGP8IDNXiu1WxIXiguX0AtpNH7n09d7V0i5aKx3k9CSq7NlT9K34shQXLv1270/jt23z5ZqEhYXPxkq7ry6XoQSnC4/h0GSSjKUl3uNked+gOETYSolAzabz1+1dnqrGGkOnj1whalLmz8F760Xanbdgz5Hyml1q4p9T/d3I8rx1Jd1OxmVvRPYS0UnfcOVEF2YtvcTBcr2SQooRvKkmVEabHVbMiiq9xOdKAWcuifzOeb3mgYMznh+K9PER7wBwECb0gzWKZm7mVqZgMJ1ddm19QLFs8VA2zoDxB6IKjdHn1/xf13EiKZf5u6rlY+2xLdIZIIVmEPhE8saiPLX+VPFfsmQibVmVRqD9/tx0ZJpCk7D4sAQW0IDTNZmBy+L5xzwBAHAgS1kGmYMxe29s6FqmqzXQpk1/3h+6+zLwSVIEBQKak0zrx3azMf3JBNklKVhHQ6McJDgMC5qg4SRDG5yKt3Nz29ElhGgMAZCQ65MfDEO9vobXigd73tA9d754EBNhAgsI7g8Jvc4CgVCUECUwQIrCE4whLyVcDwAwECK1zfsgd36JGgrA0B0u50p5VS7/NsYlxyhPnP5rdVfoy5Kfn2nZFj3L+0Q6n/u6rUF2tK/dd/b/677PzyDbVLn9eVDbyyNHlFB6hUYyE9J9kNjhIkwAS+3mo2LhMgmIgMkI+e3e7tctw7e3d7rF8gtVv//aT3fdgiIat6f91y8w6Rix9v8XKaT563U4foj2Bs32g1G0tMYWFs0ud4/k/+9DkGL4YKZfCTikUuosouo3r3kj8Vi6zYkouq2EOCUeiBYGwy0P1sfnvtA10WGBIUrq6mrYsEiVQqPgSKTGs9+91rvc2IQBECBGORquPn89tqe7Ky854kNFK5ga//fvU6zwmTftHZWe4fQR4BgpFkmuXR1+upOjhxdqM6D53k7nUUIUAwlAxW0iivcrCS6SkZpJ7cR2iMIsumz1zYVnmwy5LfF2bojWAdAYIcmTqRXkeVd5PLNInMtfMNdzJSIZ44LwdUVreoQSpDuXo4lalEDEeAYAMZkA7Nba9sDwOb2Oyo+sBKmdL67cxab4oR6SJAcJM0bA+94n7KKtu0xlHjblR5KsAT+65xR3vCCBD0VLHKiuCollQkckqA6yBhlVa6igJkSSm1N/UnJiWPnXXf75BvqjJVxSBTvSoqEvoiSVpuNRtyesmGAFlQSu1P/ZlJgcybH5rb4XQlj+xo/u0MPQ4fSIi4PClZKsy3nrhKiKRjsdVsHJDflvtFEyPh8dDv3IWHLMf94+Nr6uwRjgv3hVSAf/tFt7dwwQUJpodO7uhVPEgLr3hC5EiSb764w9lKq2cevKY++sVVDuTzkEwhylSThLuEvG0SIo+9vp0QSUz/q72U+pMRMwkP+ZboYj5cmqkfPXuVI8EDIOEuIf+Mo9eKEEnCzazof6U/T/1ZiVUWHi7mwH8zc0299fhVpqsCI2H/l6eu9prgthEi0buZFbzKkXMVHjLwyADEia3hkqa3hP8TDl5DQiQN/a/w5dSfjNi4Cg8ZcGTgYdVN+KQ3IhsCX5td662msokQidbNrCBAIuUiPGSAkYFGBhz2dcRFziL7TwdTWoRIlAoDBJHoLdW1HB4ysMhafw49jJf0sf761FXry30JkXj1byTcpZT6LPUnJHTZPg+bS3W55jQ9MuDLwG+T9MyY9ozC7a1mo9dIvxkgivOwguciPOTbqOwfQHps3wvDjvU4ZOdgqYIprJXUn5yQyV0eNsPj1A/XCI+EyXSlDPi2musSRD96ZXvviw6CtSEjBgOERnqg5LwjmwcjSnhw5wOkWrDZXJeNrFIlEyLB2pARgyMOmwkDJPPVv/6znSPZ5dumHHdBeCAjzXVZtm0rRKRKlmoZQdqQEYMBwnEmgZHluk9b+jBmc9ScZYVBsoDCZohItSx30SA4GzKCKayAyTTAjyzdJEiDE5uxHSJykdnFiq5QhjUjp7AIkIDIChkbhyMSHhiX7RCR/Ur0Q4JCgMRAyv8/fGTeNCc8MCmbISLVs1xuhmAMD5BWs0GABEDKflv3mP92hutIMbksRGzcLSKXm9EPCcNgRhR9hV3M/QTekHJf7jK3gaW6MCEh8toRO4cw0g8JQi4bigKEpbwek/0eNjYLyoVChAdM7dFnpNlg64sRnMllQ1GAsJTXU+cvbVUnLZT6cjwJtwfCFgkRqWZNyRej5y3tZ4ITuWwgQAKxPnVl/uGSxucLMxxPArukmrVxMZVsiGUqy1u5bCgKEBrpHpImo+mSXZmrPjvLqbpwQ+6JkfvxTTGV5a1cNuQCpNVs5FIG9ZJvZDaOKjl7ZI27y+HU2VnzlVkylcWqLP8UZUMuQLRctx31sXFukDTNOaIErmUrs0w9/6dt6sqnTGV5pDAThgVIrlRBPeSgRFknb0KmFWiaoyrSVH/G8P0mGwxpqHulMBOGBUiuVEH1pHFuelCi9D1etrBCBpiEfGEx7YfIgYuy8hBeKMyEYa9O4b+Mask8sOlBiXIVLX0P1EG+uJhuMqQK8UZhJhQGSKvZWMj9EJWS+V/TxrncZS63ygF1kC8uz37XbCpLpm9lGhf1GpYJo16Z5dxPUBnTb169qSuuo0XNntxnPpVFFVK7oVkwKkAKEwfuSfVhej2tHJLIfg/4wHQqS/Y/UYXUamgWjHpVCue84J7pNy75xsc5V/CFTGU9+YDZVBZVSK2GZsGoABmaOnDHRvXBqiv4RlZlmWwwpAqp1dAsGPqK6HPfV3IPwCnTb1pyHhGrruCjU4eoQgK0MuqeqKEBog0tXWCfafUh88xsGISv5CQEk4Y6VUgtRmbAZq/G0NIF9pl+w5IlkzTO4TPT6VWqkMqNzAACxBOy6/yND8t/u5L55SctHKcNuCTTq3IfTVlShbA7vVIjM2DkK6FPX1zNPQDrTHedM3WFUJi+V6lCKrNadAJvv5EBoo1MINhhMrcr1QfLdhEK0ypEdqdzUm8lNh37xxm1zuV+Aqve/HCr0WVRVB8Ijel79sR5prEqsOnYTwXigTNUH0iMaRVy5j2msSpgXoGwH8QtKcX/8FH5AKH6QKhM3rvSL2RJr1Mj939kxn0FmMZy5A2D8JB9H5y2i1BJFWKyL8Rk1SI2NdaYP+4rwDSWIyffKf8hOHw/+z4QNpOl51K5y/J3ODHWmD/W6NVqNs6xnNe+i59sMWqeP7mP6gNhkwra5IysMxfohTiwqsf8TU3y9ZcqxDKTOVy5LIozrxADk0Ug9EGcGHusn+TZpw9i2ZsGc7gP0/tAJA4brMb64BP2hDgw9lhPgNTEZPpKmucs3UUspJKWirqs85cIEMvsB0ir2fhcKbWYewClmJznQ/WB2Ji8p1mNZdWiHuvHMukzTxViicnc7ROGt7sBvpFmetlrb032USFnojGeAKmBLD2UudsyZMXKnjtoniMushzdpAox6SdiA3cBoncmLucewERM3uxsHESs5MKpsuiDWLE8zu7zfmVGsrncTzARk/7H9++h+kCcTL4ccUeIFROP7QRIDcp+W5I5YpNvaYDPZBqr7GosmRJmV7ox9wGiO/TzuQcwFlmzXnb5LuGB2O37l/IVNlWIkflJVl9lyj7jNNNLuliyea5YvosE0AepTakx3SRAOBurBJM3+T6Dk0uBEMgKw7JnY138hAqkpNVKA0SXOlQhJZR9k8uHirOvkIKyX5TepQIp61yZ6StlUIEomunllH2TU30gFfd+jT5IxUqP5aWf7VazscBNhZMx6X+YfKiAkJj0QUw+Y4la0WN5KaZxTRUygQ8+Nul/0EBHGkxOWrjyae5HGM1oDCdAKrRicHkUx5cgJWWvuqWRPrH6AkRve2dPyJjKzs+a3BsNhGjPHeUq7osGVX6C5ic9umSQjbg+nvsJCpUtr3cbXPkJhOjOr5b7j/7nF7kfYTjjsds4QGimj6/sDnSW7yI1JlO2rMQai1HzPGPrmaYK2YTJtZss4UVqyk5hKX1dAjZlZcy2FSBz7EwfzaSBzhQWUiMHK5bFUt5NrdpaAGUlQNiZvjmT5YVMYSFFLB5xpvTO80E2JwuP5X6Cm8pWIGXPBQJSRQ9kU9bGamvPNEt63Si7GgUIHZtnnTBeutvPdlTTTB+i7LeinbdRgQCTYDf6SFbHaKsBopeFLeYeQGl7OAMLiSq7eKTscvkELNpYutvPxWQhvRAAxpi+tc762Gw9QNhYWIyyGkCNrGwcHORquQJVyIDy96AzhQVMis2EOU7GZCcB0mo25qhCAJgw2Y3OqbwbrOgx2TqXzzJVCIDSTHajYwNnY7GzAKEKAYDaOas+lOMKRFGFAECtnI7BTgOEKgQAauO0+lAVVCBiNvcTAIBrzsde5wHC7nQAqJz1XedFthf8zAWZh3ub9xCASfQf6f7uJY4omUAl/edKAkSSsN3pymFOnPYAAAduSURBVEm9M7kHcdO9d9zILV3c+WU2EiJdbz1+ddPfXW77HLwuwWQPSQTmq6g+xJYbN6oZoNqd7pRS6h+5BxLRfxqvHBLHJVEAHPm6zSPbR6ksQNR6iMhRwj/JPQAAsOGlVrNxtKpnsuoA2aWUkmTcmXsQAGBC7jqfsnVd7TgqPTBG/2JsLgQA+45VGR6q6gok0+50l5RSe3MPAADKWG41G9NVP3N1HVlZ2RwdACSgljG1lgDRS8xO5x4AAEzqdFXLdgfVMoWlaKgDgA2VN8771XbrCg11ADBWeeO8X20VSKbd6UrptT/3AABgFDnv6sCIx53z4d5HGuoAMLnax87aA6TVbMiS3udyDwAAhnlOj521qn0KK8PeEAAYSy17Por4MIWV4eIpANicN2OlNwHCVBYAbMqLqauMN1NYGaayAKCQN1NXGZ+msDJMZQFAnndjo3cBwlQWAOR4NXWV8W4KK8MGQwDoqX3D4DA+TmFlZvU5LwCQqlWfp/W9DRB9py/9EAApm63qfvMyfK5AJETOcew7gESd1mOgt7ztgWT0se8LLO0FkJBlpdSBOk/aHYfXFYi6dew7/RAAqVjVU1deh4cKIUDUraW9nNoLIAVHfVyyWySIAFHrITKnlHop9wAAxOMlPdYFwfseyCCOOgEQKe+OKtlMMBVInwP0QwBEZlWPbUEJLkB0Yym4JxoARvB+xVWRECuQrKl+JPcAAITnSChN80FBBoiiqQ4gDkE1zQcF10Qf1O50ZafmTO4BAPDbfKvZOBjyaxRsBdJnVu/aBIBQLMdw1l/wFYhar0KmlFIyh7gz9yAA+EVWXE37fEjiuGKoQLKTe1neC8B3q3rFVfDhoWIJEHVrZRbHvwPw2WyoK66KRBMg6tbx7yzvBeCjI74fzz6pqAJE3VreS4gA8MmRkJfrDhNdgKhbIcJFVAB8cDrG8FCxBohaD5FZQgRAzU7rsShK0QaIIkQA1Cvq8FCxB4giRADUI/rwULFsJBxHu9OVe9X3+/9fCiBwi61mI4kTw6OvQPoc5MgTAI4t67EmCckESN89IoQIABeWQ73Xo6yUKpD+EFnMPQgA5c2nFh4qpR7IoHanK+uyH8k9AACTSaJhXiSpCqQfq7MAWJBseKiUA0QRIgDMJB0eKvUAUYQIgHKSDw9FgKzTb4Sf5h4AgLyfEh7rkm2iF2l3uvKmeKXgIQBQsZ6qWxYVSB/9xvgBNxsCGCBjwg8Ij42oQAq0O91ppdQCd6wD6LuGNpqbBG2hAimg3yjT7FoHkidjwDThUYwAGUJfen9A7zAFkJ5sd/llXvtiTGGNod3pHldK/cT7/1AAtrzUajaO8myORoCMiRVaQDJYaTUmAmQCNNeBqNEsnxA9kAnoN9YUzXUgOvKZniI8JkOATEiOa241G1KJvBTUfziAYaTfMZ3aUew2ECAl6QbbETYdAsFa1f0OmuUl0QMxpPsi0nDbG/QvAqRFpqxmmbIyQwViSL8BD3CiLxCM0zTL7aACsajd6R7U1QirtAD/rOqq4xyvjR1UIBbpN+Y0d64D3lnUR5IQHhYRIJbJsQetZkOmtJ6L6hcDwvWcfCY5ksQ+prAcosEO1IpGuWNUIA7JG1fvGaEaAar1nN7bQXg4RAVSEaoRoBJUHRWiAqkI1QjgHFVHxahAaqCrETkifn9yvzxgn6ywOkpwVI8AqVG705UjFI6xbwQoRfZ1HGs1G8d5+upBgNSs3enu0tXII0k/EcBkTuuqgwMQa0SAeKLd6R7QQUKTHRhuWQfHwtB/A5UhQDzDtBZQiOkqD7EKyzP6AzLFfSPATS/py54ID89QgXis3elO6WmtmdSfCyRpXk9XcQSJpwiQAOj+yDGW/SIRi3q6ij6H5wiQgOggkd3su1N/LhClFb2LnOAIBD2QgMgHq9VsTOmrdFdSfz4QjRV9tewU4REWKpCAtTvdWT21RUWCEK3oqao5Xr0wESARIEgQGIIjEgRIRGi2w3M0xyNDgERIB8lRlv/CE7Ic9zjBER8CJGJ6H4lUJAfZ2Y6Kyc7xc7riYB9HpAiQBOgDG2d1VUKfBC6t6M2vcxx0GD8CJDFMb8ERpqkSRIAkSk9vzeo/VCUoY0VvbJ1jmipNBAiyqmSWXgnGkPU25qg2QIDgJt0rOaj/MMWFfvM6OM7R20CGAEGhvsb7LJdcJWu5b4qK0EAOAYJN6X5JVpmwSTFui32VBn0NjESAYCID01wH6JkET3oaC0xPoQwCBEbanW4WJAdZzRWMFR0YcrrzudSfDJRHgMAaPdV1gOrEO/1VxgJTU7CFAIEz7U53WgeJ/JmmQqmMVBhLOjQkMJYS+b1RMQIElemrULJgYXWXHYs6MJaoMFAlAgS10psYp/WfKVZ5bUrC4nIWGGzmQ50IEHhHT31N9QXLrgSDRYLi877K4jJTUfANAYJg6CmwYX9C66+s6Eoi94cpKISCAEE09B6Vaf37ZEGjdAUz3fd77nLQf1nWFUNmqe+fs5BQetqJvRaIAgECDKGn0hRTR0AxAgQAMDml1P8DSuXEzjpB2zIAAAAASUVORK5CYII=;" vertex="1" parent="1">
          <mxGeometry y="320" width="40" height="40" as="geometry" />
        </mxCell>
        <mxCell id="BB8o8y4dJ1L9ylsIL_xW-13" value="" style="shape=image;verticalLabelPosition=bottom;labelBackgroundColor=#ffffff;verticalAlign=top;aspect=fixed;imageAspect=0;image=data:image/png,iVBORw0KGgoAAAANSUhEUgAAAZAAAAGQCAYAAACAvzbMAAAACXBIWXMAAGl0AABpdAForRwYAAAgAElEQVR4nO3dP2ykx53m8WrjgIOMA2YsBxecjKGBky8zqUxObjhOtcBQgJ1qOJGMTsTZzWQfROFsZQdxkoYVDcepDYgDWKlFbrLKpunsrF2YAzs5YNc7BA42LurD013Fedlvd7P7raq3qt73+wGIsbplDdl8+336V39+NZhMJgYAgE19g1cMWGwwNDuDodla+CQAQwWCzhgMzW1jzI79ebbsl1Qfd/+8HfjnPjfGvKz887jyzxf2a/r4ZHTt3wOKRYCgGLYaqH7t2DDQ/75T2G/yhQ2VlzZsXMhcTEZXYQNkjQBBdjR0ZF4FhAuJuz37TZ1VwmVsg2Vc+7eAhAgQJDUYmt1KUGz1MCg2dWYrlbEdDjst69tHlxAgaI0dgnKBsRthHqKvNP9yakPllCEwtIUAQTR2KGq3EhqlzVOU6oULExsoDH0hCgIEwVQqjD375y1e3Sxc2jA5oUJBSAQIvAyGV2GxR4VRjBeVMDnp+4uB5ggQbMTutdijyuiManVywh4VbIIAwY3s0JQLDVZJddtZJUwY6sJKBAgWspXGvv1itVQ/aXXXsb6oTLAIAYIrc8NT93llUPGMYS7MI0DgNvPt2+BgTgOrXNogOWYTIwiQnrLzGm6IitVTaOJFZYiL+ZIeIkB6xlYbBwxRITANcR1RlfQLAdIDlQnxA6oNRKaq5IiJ934gQDrMDlMdMreBBNxcySHDW91FgHQQw1TIDMNbHUWAdIgNjkM2+yFTZ7YiIUg6ggDpgMFwOr9xyPwGCvHCBskxv7CyESAFIzhQOIKkcARIgQgOdAxBUigCpCB2juOY4EBHKUj2mSMpBwFSACbH0TNMtheCAMmY3cdxxHJc9JSW/x6wjyRfBEiG7M5xVRwf9P21AIwxj21Fws72zHyj7y9AbgbD6QbAC8IDuKL3woV9byAjVCCZsPMcRxzeBKx0boe1mB/JAAGSmB2uUnA86PULAWzmqQ0ShrUSYggrocpwFeEBbOYBw1rpUYEkMBiaHVt1sCwX8Hdmq5Exr2W7qEBaNhhOV1c9JzyAYPReem7fW2gRFUhLbNVxzCQ5ENW53c1ONdICKpAWVKoOwgOIa5tqpD1UIBFRdQBJUY1ERgUSCVUHkBzVSGRUIIHZ/lXHTJIDWTmz1Qh9tQKiAgloMDR7xkzLZcIDyIvek2P7HkUgVCABsJscKAq72AMhQDwxUQ4UiQn2ABjC8mCPlj0lPIDi6D17at/DaIgAaWgwnA5ZPTHG3CryBwCg9+4T+15GAwxhbcjOd1B1AN2iIa1d5kU2QwWyATvfcUF4AJ2zbbv77vCrXR8BsiY7VvqcISugs27ZjYfMi6yJAFlDZb4DQPcxL7Im5kBWsPMdWqJ7f/m/BaCjntmlvsyLLEGALGFbkpww3wH0mibX92iBshgBsoCdSDtlvgOAMebSrtBi0+Ec5kDm2F45hAcA55bddEgfrTkESIVdffE54QFgju4Jn7NC6zoCxBoMzQErrQDc4Im9V/SeYQ5kZjCcrrSiky6AdT2djKhGel+BEB4AGnhg7x291usAITwAeOh9iPQ2QAgPAAH0OkR6Nwdid5efcOwsgIDO7IbDXu1a71WA0IodQES9awnfmyEswgNAZO6Uw9t9eaH7NAdCXysAsW3be00v9CJA7CQXcx4A2nC3LxPrnQ8QVlsBSKAXq7M6HSCEB4CEOh8inQ0QwgNABjodIp0MENvsjPAAkIMHXe3i27l9IPYXRVddALl5OBl1qxrpVIDYA18+rz0BAHl4dzLqzjLfzgQIx9ACKECnjsftRIAMhmbLmOkvhPAAkDuFyM5kZC5K/00VP4leaY5IeAAoge5VJ11oedKFVVjHtCgBUJhte+8qWtEBMhiaI2PM/doTAJC/+/YeVqxi50BYrgugI4pd3ltkgNgVV89rTwBAmd4qcWVWcUNYlXM9gKh2v2fM4Tu8xmhFkeeIlDgHwl4PRKfg+PLAmI/eMWb8oTFb3+Y1R1S3SvxgXNQQlp1w+qD2BBCIguLkfWO237j+37v8mzH7vzLm5JxXGlE9noymvfyKUEyAMGmO2PbfNubox8bcem35X/T0K2MOfm3My7/VngJCKWZSvYgAoU0JYrr92iw4Hry93l9y/udZNTL+c+0pIIRi2p1kHyCVSXM2CyK4nTeMOX6vPmR1E4a0ENm5DZGXOb/QJUyiHxEeiEFDVqePNg8P0TDX5+/PKhcggm1778ta1hUI7dkRi278H9wL8x8/+9qYvV8yL4Iosm7/nm2A0GEXMWi+o2nVscqLv8xChHkRBJZ1596ch7COCQ+EpI2BFz8PHx5y5/VZMO2vOREPrOlWzk0XswyQwdAcGmPu1p4AGjr44Wxj4Kolur70337yHvMiCO6uvSdmJ7shLPpcITStslp3iW4ozIsgguz6ZeVYgXTq0Hmko/kOtSFpOzzk7puzIa2dCMNl6K3s7o1ZBYgt01iyC2+6ccea71iX/m6FiOZegBCXVG5DWdkMYTF0hVDWaUnStoe/Mub4K37FCCKboaycKhCGruBNXXQ1kZ1TeIi+J83FAAFkc6/MIkAYuoIvzXfoBv1Rxud3aC7m5Cez7xXwkM1QVvIhLIau4CvW5sBY1Ixx91NWaMFb8qGsHCqQog+VR1qaLB//NE54qHX7o9/UHva2bSf4WaEFT8nvnUkrkMFwenDKp7UngDVodZMOfwo936FOuzrzw01679jVVDH+nr3PjDn9Q+0pYF2PJqN0QZIsQGyb9gvalaAJrbR6EmFSellPq5jDZKzQggf1ytpK1fY95RDWEeGBJtxKq9C0e3znF/XwEM1X7HwyG9YKTT+LWq0ADdxKOZSVpAIZDM2uMebL2hPADWK1JXn85WzYah262X/6o/Dfg8JJh1QBDdybjKYH77UqVQXCxDk2oiEkLYENHR6ah9AQ0rrhIUe/M+be0ez/G5J+NvaKoKEk99TWKxAmzrGpWPMPCgAtp100ZLWOpsfh3oRlvmio9Qn1VgOEiXNsauvbs5VWud6kY4UbIYIGWp9Qb3sI65DwwLqmezw+DH9z1lxDqJtzrMl114hRAQqs6Za9x7amtQrEHlH7x9oTwAKx9l58/IUxh1/UHg5Cq8NCt1LxHWZDL323rSNw26xAmDjHWva244SHJstjhYfov/0w8CqqW69xrgg21tq9tpUKhGW7WFeMDYJtf4qPUT1RiWBDrSzrbasCyfI8X+QlRni4yeg2b7xj+3dqV3sorhLhcCqsqZV7bvQKhOoD64gZHqlWMsVaoUXrE6wpehXSRgXCQVFYKUZ4hFxp1dRLO+ykFikh6bXaT3DOO4oT/d4bNUAGQ7NvjLlTewKwtBEvRnioJUgOeyhciIRe5kuIYA137D04mtgVCHMfWCpGXyud35FjPyl9T4QIEoh6D44WIFQfWCVGeGhuQH2qcqUQCb3MlxDBDaJWITErEKoPLBQ6PLTE9d3PyphY1vdIiKBl0e7FUQKE6gPLxAgPzTGcnNeeypYLkZDdfAkRrBCtColVgVB9oCZWeJS4ue7YrhIjRNCSKPfk4AFi931QfeCa0OGRYoNgaG7DISGCFtyx9+agYlQgVB+4hvBYjhBBi4Lfm4MGiE24u7Un0FuxwqNL52QQImjJ3dBVSOgK5KD2CHpLZ4cTHutRiGz9bPYzhkKIYIGg9+hgvbA47wNVoduT9OWEvhj9s976hC6+uCbYeSEhKxDmPjBFeDTnWp+ErEQ4TwRzgt2rg1QgnHUOJ3R4uL5WfRO6EuE8EVQEOzs9VAWyT3hAJwkSHmGErkQ42RAVt+w921uoAGHyvOd0YzomPIKKESInP5lVN+i9IPds7wBh4yBCH+FKeLwSOkTuvD77XREivRdkY2GICoTqo8fcWD3hEU/oENm2gY/e8753ewWIXbp7v/YEeiF0eDz7PeGxTIwQCTnkiCLdt/fwxnwrkKinXSFfoVcJ6ca4/7T2MCpCh4g2eRIived1DydA0MjRj8OGR1/2efjSa7T3Wbi2JwoRdQxAb6UJECbP+ytkfyvCY3MX/xa2d9anP6LlSY95Tab7VCBUHz2kGw3hkV7oBozav8Mekd5qfC9vtBOdnef9pI2Cn78f5kcnPMIIuYSa3eq91XhnetMKZI/w6JeQGwV1o9JqK8LDn272mhMJQSGk3zF7RHrnlr2nb8wnQNATIZfr8ik3vNM/zM5YD0ELI7RbHb3T6J6+8RCWHb7699oT6KSQy3UJj7hCNrJkQ2cvfWvTYawmFQiT5z0ScrmubkiERzzHXxnz8Rdh/vNaKMHKrN7Z+N5OgGCpkCcKaojl5Lz2MAI7/GJWPYSgamb3e/yGemTje/tGQ1icOtgfIVdcPfqNMUe/qz2MiDSPcf/7/v99hh17Z6PTCjetQJg874GQK670aZjwaJ/awoRoecLKrN7Z6B5PgOCa2/aGEWLFFc0R03F9s178xf9bmDZefFB7GN0UJ0Ds6qu7tSfQKbpRhJg0pzlietO+Wb8Ms1tdw2GH79QeRvfctff6tWxSgVB9dJwmzUOOm7NRML2QGw0/eodJ9Z5Y+15PgGBKNwY11fNFeOQn5EbDk/eN2fp27WF0S5QA8T7+EHnSvMdJoBVXB79mxU6OtEfk8Zf+39itgNcKsrX2vX6tABkM6X3VZVryGWLSXJvYjgPtQUB4CnctbPClOTJtMEVn3bL3/ButW4FQfXSUJkbvvun/s2m57mGgXdCIJ9Ty3g/uzfYKobPWuuevGyDMf3SQ5j0+CrCyRjckfbpF/kKeaKjl3syHdFaYCsTuPufkwY4JNe9xaW9ITJqXQycahliZxXxIp92x9/6V1qlAGL7qIO33CDHvoRuRbkgoi1ZmqcWML+ZDOu3Ge/86AcLwVceE2u+hG5BuRCiTWsyEaLyo+RD2h3TSjfd+KpCeUZ+rEPs9tJqHHlfl09xViEl1DWXRL6tzbrz3r+zGOxiaHWPM89oTKNb4Q/9WJeqvtPOLvOY9NJnrJnR1I9up/Iy3v3n9n6t8V6DptVg0hKfHqo9P/7nSlyqnyi3Uuer6UKHWKeiUtyYjM172A/2H2iPXUX10iJbs+obHpe2v1FZ4TMPgO9dDwQ2XKDDuvF77v7RKf/+i72HdYNLr6TZe6s+Xf30VNvMhFIv+XjW99G3fr2FRDY9SmXaKMmBpgNxUgZzouqg9geLopvvlgf93rZYYoTcLupBQQOh/63vVn6FOQiydq3JcwJx+Pfsz9I5/TYZrPsOHAnHnExZWdMizyWj5XMhNAXLBEt7y6WY8/uniT8qbCDFEoXBQUKh60J/6CrEarK80f6FqZfynWbDoT5/qMMQQ59nXs35o6IQXk9Hy5bxLA4TTB7sjxCfLJvMeCgcXGPqiomiHfleqTpqEioJdIeIb6pxC2SlLTylcFSA6H/dJ7QkUJdTQ1Vuf3Dxkor9r983ZnyHaoyAcVSoKE03e62tVoIQ4zpihrE55OBmZ40U/0KpJ9J3aIyhOiKNp1SRxUXi4CkM3HAIjb9u2AnSVaDVQTs6vf+v6Z+0PefB28x/JHYXLUFYnLM2CVRWIZt5pl1Ywrbry7XU1P56tsNCXgiP1CiiEo/mtk/EsPFSdhJo3YyirE84no8UhsipAFj+BIqg6eP6h33fqhiH033LBwYR397kw+Zd/NeYf/97vx2UoqxsmIzNY9IMsDJDBcLr2N8DxM0hFG8N8h5X+8Z+N2f4vhEaf/e//Y8x/+89+LwAbDDvh3mRkTud/kGWtTBaWKyjD/tth5iT++38lPPrONzyM3WDI2SHFW5gJBEjHaOya7qjIja5JemUVbWEmLAuQpRtHkLfDv6NqQH40Ga82JyjWwkxYFiB3a48geztv+G8YBGLRikBOMCzWwkyoTaLTgbdcISbOu2K+S+6yxoTT/lIrNtXdZHfJ6z1/Pga/lxnanBSt1pl30UbChaUK8taXzXy6AZlKO/Rqm3TfPlBNLG3L/kXtkSsuXKodhl3H4Rw6DMd013YqWPq6IWdb8515FwXIwskS5K0rE+dtdZ5NqXrznN8F7rjzTbrYoVg71Ld+VnsY+VM2nFS/SwKkA7TjvLRPre4cDNf0T1UEn0pfcUNuV69JpaK51s3YtsEv6ffvJtTZoV6cWjYsmgM5XTZhgvzoU+nFz/NfeaWhp2qH2EXzEWjOnanimlnm3iZfHyBUheR0qiVudDYZXT9kcFGA1LemI1sh+l3FcOY6v35NZZFKtZ1+jm1o1KTzcMVcEfIz39LkWoBwBkhZQp3dEILr7qoxfQIjT7l1T6ZPVpGunQ0yPwfCCqyCqPpIGR4KDR1vq9DgJpA/N+ekuQcNeU0bZO7MWo2koGtX17DOY0cxlBEESOlUffic19CUVknpBkRolE1zDwp/fbkw2f9B+5WJrmENY3EtFeNaRhAghTpsed7jqb3ZMDzVPdUw0QcTNePUKqm2qluqkKJcy4j5Via1ZVrIT5vVh4Lju/9j9gYnPLpPlYAqgtv/YMzDX80qzth0LdPipBgrA+R231+dErTRlK4aHAwv9NO0IvlZO0HSdkWNxlYGCENYmdN49X7E6kPLbwkOVLkg+TjikluqkGKsDJA7fX91chdrbFpLKt/9bNbojuDAIhraeuuT2eq7GGJ+MEIw1zLiah/IYDgdvvp3Xue8vfxf4QNEN4S9zwgOrMcdWhZ6Ho7d6cX41mRkXpq5CoQJ9MzpE1ro8NDYNlUHNqEbvIY4NU8Wkq5tLSVG9q6yYtmBUsiQThsM7eDXfOJDM7p2LgNfO5xaWJZqgDCBnjG1oIjRcZWJSzR1+5vhK2Jd48yFZO8qKwiQQsR6U336o1eHGgHr0jzIyftxXi6GsbK3MECQqdgbB59/yKc+rE/Xo45PjnW4ldqpUBmXoRogbCLMlPoUxfbkvdlJcbczP1cEaWmOQh2gY5+MyFxI1q6yglVYBWjrzaQqZ/xTqhHUTc8xfzQb8myjRxbXYNZYhVWKWJPny+jvUjWim4X+bvSbhpJUmX550G6n3luROy4gDAIkc6neRLpZ6KYxZn6kl/ThQcHxx/+Z5tgA2WNMJHvVnehjY0wLo+3YRIyd501ow+HxP836IrHpsJvcuSAaMo09x7Gub/0D+5QydD4ZzYaxqgHCWeiZ0Zv580hLJX2o4aLCRIdK8eYu3/Rkwu08z01/9JvZAWbIizsbff5AKWSkjdVXTWh4S19PjDHPfm/MyXh2HjqVSTlcYLQ9x7YpDZ8SIPkiQDLmEyD/9/8Z85/+Y+3h4HSetjtTW00ZFSSqTDh8Ki+aDHeBsftmfpXGMhpK0/fOh5M8ESCZ8hlO0I18eoLgo3ZvFHqz6+uDe7N/1lCXgkShMv4Tw11tUneBaVhkEBg6kEoT4u6Dxqb0XqAKyRMBkimf6kMT3eM/z7rsth0iVW6o6yP7mIJtXPmiSglDn9AVGC402lxuexOFx7Ht2ts0QPQzESB5YhI9Uxc/bz42rRMFXcmvlTUx2074Uqhc/GVWoShU9H2PIx1YVDr9Lne+MwsKFxo5hUXVpW35ruFMY793XdNNP8ywGisvTKJnTDeGpuFx/ufr48V60+18MjsAyA0t5cQNe81/OtXPoe/dVSkaBpv+2fGqRb97dbmd/mkDQ3/mGhSLLDqgTL9LhUnTPSWqQlwYIR8ESIZ8doAfLznkR2c36OarIMl51Y3jKiZ34/xo7nkXMPpS9SK6YamakZd/zaeScUHg7NqfyQWFscFRysT2Kjo3/XDJ2ek+AaIhXQIkPwRIhnzmP1a9ydzqKB1MlWM1sonqkNw6Y+saUlkUKNUA2pSGkRZ1jVVg5DpkGIsWTOhDyqLX2Fl1bd6Etjp5ms6BDIbTXYXP+/5i5GIyavaN6FO5hqvW4XoclTQ0gvyoQ8Hhb5dXvvNOftJ8Mr06t4fkvjsZmQt6YWXG55PWJp/w9EbUKq17R7NPj8AmFBxaYbX1s/XDY3qNjmsPrW2XDzs5mbZ0nwbIZGQ8fq0IyedNctogCDSk5YLk6QY3AvSTqtwmwXF1vXl8WGEYKx8uM5gDyUzTN8nl3/xWKE03/P1hNgGq9hE6VrSEyXa0Qx8uFBi+q+BU+SqEmswRcfRyfgiQzDR9k/h8sqvSG/zQrqTRZL6CpOmYNcqmG7028IVumqlrtUmAbNulzewHyQcBkhFNbDddyhljf4RuHPpybb592lGgDAoNVRr6vceasNa12nQVoJZD08EgHwRIRnxK9FXLJ33pE9+xHcJQmGiYLdf239icOirrphwzNKp8rlXNERIg+SBAMuITIG29qdyOYrfiy/VfUpiwJLgMrmuyC422KaS0iqvJHNuifTdIhwDJSNMJ9JTLcF1zRNfsznV/1VBDSW3Du0zXh2teqa8c5hD0/RAg5SNAMtL0zZFT80F3k3L0M7lAybn5X1eU0vFYu/+bzKdx/eSFAMlI02WzOe/O1fd2rO+vsmeg2n5cwbL1ev9af/jSEJBeWwWE6wFW0tyAhtDm+5utiwOm8lENEI2GZnqIavflOoEew/SG92/18XfXidZtptRwWB/7SjkuJNzXeK5Dccl8AoAASe7qnVsNkJf9ex3yoRtnU02bAebGBeHVDXKuq6ubI3KtzqvdbHVTKWXjY7WxowsHY14FRPWxrvIKEDa4pnaVFQxhZcKnAunLxqqrs0HW+AQ+vyBhWYsYd96G7/c0z4WB04dQ2FTTHelMpOeDAMlE05sYjRAXm7+xL7vRI52mH3x8qnWEVe3GS0PFhPhUhb5pOndHT6zkrrKiGiDMgSTUNED4ZI1S6dRIFOkqKzgPBADQSDVALngJAbSlaQdpNhMmd5UVBEgmmr4pQrVxB4A1LQwQAADWxiosAMAm6quwJiNWYQEAVqtmxfwQ1ouV/08AQJ9dy4j5AGEiHQCwzLWMmA8QhrEAAMtcy4j5AGEiHQCwzLWMYAgrE5cNG8vRFwilWtYh+SY6JwXJrBzCIkASadpYzqcVOVAi2uInRYAAABpZHiCTEQFSGtrAo1Q6zAtlmc+IRa1MzmqPILqmQ1gECErVdPi16XsF3mrZsChAWMqbQNOzEZgDQamaXrucI5JMLRsWBQhLeRNoerxnkzOlgRw0vXabvlfgrZYNBEgmfMpyqhCUxmfolSGsZGrZsChAmEhPwKcsZzISpfEJEIawkqllQy1AJqN6yiA+n09VbCZEaXyuWSqQNBZlQy1ArNpsO+JrusOWlVgoTdNrll3oySzMhGUBUitVEF/THbZUIChN02uWXejJLMyEZQFSK1UQX9PSvOl56kAqTa/Z0z/UHkI7FmYCAZKR8Z+afy9UISiFz7VKBZLMwkxYGCCTkTmtPYjoLjzGdwkQlGL3e82/USbQ01iWCQsDxDqvPYKofMpznzcl0CZWYBVnaRasCpCFiYO4zhu+QQgQlKLptXr2de0htGNpFqwKkIVjXojrtOGb5M7rLOdF/nSN6lptguojmaVZsCpAlqYO4vGZSN/brj0EZMXnGmUFVjJLs2BpgNi+7y9qTyCqphWIYRgLBWACvTgvVp0TtTRArKWlC+LQMsWmu23vf7/2EJCVpteo3hMs4U1iZQbcFCBLSxfE41OqM4yFXPlcmydL1wEhspUZQIBkyOfNQoAgV8x/FGllBqwMENt98bL2BKKiAkEXESDFuVzUgbdqZYBYKxMI4enEtaZr3m+9RoggP/tvz67NJp79nlMIE7nx3r9OgJzUHkF0PsNY+z+oPQQktbfT/G+n+kjmxns/FUimfAJEK13YVIhc6Fr0WSHIBHoy/hUI+0HS0JLFpm1NDHMhyIiGr5rSe4Dlu0ms3P/hrFOBGIax0jj+qvlfe/DD2kNAEj5Dqj7vAXhZ656/boAwjJWAT+mufkNUIUhN12DT3leG4auU1rrnrxUgk9E0jVjO2zKV7lqB0hRVCFLzuQZ17TN8lcSlveffaN0KxFCFpHGychX2ajo2lP5YSEXXns9xyz7XPrysfa/fJECYB0lAY8CXHmvgfSYwAR8+1YeueeY/kln7Xk+AFMDnjfTgbZb0on2+S3cJj6TCB8hkZF7qULDaE4ju6Hd+f8PhO7WHgKh8rznfax6Nndl7/Vo2qUAMVUgavpPpqkJ8zqEGNqG5jwceQ6dMnie10T2eACmE7yeyox/XHgKioPooWrwAsTsTWZmdgPoB+exMZ0UW2uC78krXOL2vkjlfZ/d51aYViBzXHkErfD+ZHb9XewgIyvcao/pIauN7OwFSEK1MaXrcrbG709lciFh0bfnsOte1zeqrpOIHiJ2hf1Z7Aq04/K3f36Lx6dsNz2UAltGyXd+5D99rG16ebbL6ymlSgRgm09PxrUJ0qM/xg9rDgBct0mh6YJSh+shBo3u6T4DQGysR309q2uBFo0WEomvJZ9OgHPy69hDac9lqgNhShyokEX1Sa3rkraPJToay4EvXkO/Eua5luu4mddJk+Mp4VCCGyfS0Dr/w++sZykIIuoZ8hq5MgGsZ3hrfyxsHyGQ07djISYWJaK28z+50Y4eyaLaIpnTt+A5d6Rpm30dSL+y9vBGfCsRQhaSlcWOfTr3GTn7SbBGbUmsc3+4GunaZ+0jO6x5OgBRM/YJ8N15p+OHk/drDwFJu3sN36ErXLj2vkksXIHbbO3tCEtL4sc+yXtl+g13qWJ8qj23P5py6Zpn7SO7Zpq1L5vlWIHJUewSt2v+V/9+m7qnMh+AmukZ8Ou06Ia5ZePO+d3sHCJPp6WkS8vGX/t/Gk/do+47l1CjxSYBKVdcqE+fJeU2eOyEqEEMVkp42F/oOZcnpI0IEdbomQsyVTYeuaFmSgyD37FABcszO9LRe/i3MsMCt19hkiOtCTZobO3T10nPlILxdhloAFSRA2Jmeh1BDWZogVSVCiEDXgK4F30lzw9BVThrvPJ8XqgKRw9ojaJ3W1fscPOW4EEF/hQwPXZPs+chGsHt1sABhSW8+NP5CpigAAAuYSURBVEzgu8HQsLy390Is1zV2w+DeZ7WHkYb30t2qkBWIYTI9D+OAn/a0ZJMQ6R/9zkMs1zX2Aw0bBrMR9B4dNEDssrCz2hNonTr2hpgPMYRIr7gJ81DhoWuQTrvZOAuxdLcqdAVimAvJR6j5EGNDZPwhE+td5uY8QoWH2rQz75GV4PfmwWQyqT3o/R8dTsfY7tSeQOt0Uxj/1O+s6ioF0u6nLMXsmpAT5sbu99j5BddJRrRxcCv0txOjAjFUIfnQG3jvl2Em1U1ldRabDbtj542w4XFprznCIytR7slRKhBDFZIdtaH48iDcd6WbhCqRcaAhMqSh60I7zENsEnTuHbHfIzNRqg8TsQIxVCF50Rv6YcAGdrrhPP+QBowl0+9OHypChoeuMcIjO9HuxdEqEEMVkiXdNEI0xKt6+tVsspQhizJovkN7PEJNljsKD63+Q1aiVR8mcgViqELyozf408Bvct2INIbOyYb5c/MdocNDy3UJjyxFvQdHrUAMVUi2Qq71d9wRpdxI8qTqU5VHyCErYytQzvfIUtTqw7RQgch+7REkpzd86EpENyYNj538hP0iOdHvQr+TJ4E66lYRHlmLfu+NXoGYWRWi3Y93a08guRiViLHViG4s7EJOa287XCv2eYRH1rTrfDf2N9hGBWKYC8lXjErE2Grk8/epRlLRfJRe+88DL9F1NOdBeGStlXtuKxWImVUhOi/kfu0JZCHG6ixH1cjhF8Yc/a72FCI4+KExh+/ECQ7DaqsSqOPuXhvfZ5sBosmcP9aeQDZihoix7S322ScQjTYFargqVNuaRQiPInw3ZMv2VVoLEDMLEbUS/qD2BLIRY2fyPDXZU0VCkISh35kqjrtvxvs73Jke/M6y93gyMgF7TqzWdoDcNmaajLdqTyIb2iug8fOYn2SNnYRVkHBWRDOa51BwxFgEUaXKUb2taFuTPZ11vhXquNp1tBogZhYiSsdPa08gK27pZ8xPtY6CRMMifLpdjyoOzXPc/378v0vVIo0Ri/FoMmr3UL/WA8TMQmSsxq61J5AdbTz74F4735VuVppoZ+nvYpqj2v9BO6Fu7EorzvMoxvlkZHba/mZTBYjWJwc6Lw+xxdrBvIyGTI7/aVaV9H14S8NULjhiDyk67OEp0r3Qpw2uI0mAmFmIHKuNUu0JZGm6r+D9cGdGrOvZ7405Gfdv5Y9CY2+nnWGqKh0Ypsnyvgd3YZ5ORmk6fqQMECbUC9TmkFaVPhXrE7H76hrNOWluQzvH9dVWtVfFkFWRWp84r0oWIIYJ9WK1sd/gJqpMNOmuMCn107KqOoWFXs+2K40q9ucUrfWJ86qkAWLok1UsfWI+/Ls01cg83QB189MyU/dnjrQ8WmHh/kwZwI6qjsPfssqqUK30u1olhwDRyoHntSdQhByqkUW0oktBourE/dlWpaLKQl8KCvdnWyun1kXV0QlvTUbTFa3JJA8QMwsRNf76qPYEiqENbdqbkGLsfhOaJNanbX2N//Tq/3j69Wb/nd1KIOx8Z1aR6avtRQab0lySlkprAyeK9vFklL5JbRYBYtgb0gn6tK1J9pTj+ViOnf+dkWTPxyI5BQhDWR3RRm8mrI/eY52TfOjKySZADENZnaO9DJpoz21+pC80z6FluWwI7JQshq6crALEMJTVSQRJuxQcWllF2/XOyWboyskxQBjK6igFiSbac59oLpWGqlwLGHRSNkNXTnYBYhjK6rw2u8n2gTZVamUVcxydltXQlZNlgBg2GPaCVm0pSFSZ5L78NzdajqtKQ8HBqqrOS75hcJmcA0RH4I7pldUPqZoHlqavzSV7TL2udto6onZT2QaImYWIDob/vPYEOsv1h1KgMFcyo82PCgzNb9BypHfenYzMSa4/dNYBYmj73mu5NBtMoQvNIuEtWZv2dZUQIGr7fsrS3n5z7c5dy/OuLQnW0luFhUJDX1QavafdO7up2rSvK/sAMa+W9p4yHwLHNSl03W1L2/Xumj267sFUGai4tOGR1ZLdRYoIEDMLEZVyT2pPAJaCxHXAVbDoz9SViioLhYOCwnUGzrXdPLLxcDKaDt1nr5gAMbMQ0cEpH9SeAFZQqNz+pv3ztVf/22kSNC4YHIXCy7/aLr/2fxMUaODxZDQ9aK8IRQWIodUJgO7KrlXJTb5xw/M52rVjhADQFZf23laU4gLErkoo7oUGgBWyX3G1SIkViLGrEx7WngCA8jwsYcXVIkUGiJmFiFYpPK49AQDleFzKiqtFiptEnzcYTrf53689AQB5ezYZTds1FavYCqRi3+7aBIBSnNt7V9GKr0AMnXsBlCXrDrub6EIFYuwvguW9AHLn2pQUHx6mKwFiXq3MKr4kBNBp+6WuuFqkMwFiZiFywvJeAJl6mPPZHk10KkDMq+W9hAiAnBTTIHETnQsQ8ypEntaeAID2Pe1ieJiuBoiZhcg+IQIgsexPFfTR2QAxhAiAtDodHqbrAWIIEQBpdD48TFc2Eq5jMJweiXs3/+8UQOHOJqN+dAzvfAVSsUfLEwCRndt7TS/0JkAq54gQIgBiOC/1XI+m+lSBVEPkrPYkADT3rG/hYfo0BzJvMJyuy35QewIANtOLCfNFelWBVLE6C0AAvQ0P0+cAMYQIAD+9Dg/T9wAxhAiAZnofHoYAmbEXwqPaEwBQ95DwmOntJPoig+H0oniy4CkAMF3tqtsUFUiFvTDe5WRDAHN0T3iX8LiOCmSBwdDsGDNtfcIZ6wDcMbSdOUkwFCqQBeyFssOudaD3dA/YITwWI0CWsIfe79odpgD6x+0uv+B3vxhDWGsYDM2RMeaD7L9RAKE8nozMAa/magTImlihBfQGK63WRIBsgMl1oNOYLN8QcyAbsBfWFpPrQOfoPb1FeGyGCqQh5kWAzmC+oyEqkIbsBfeQTYdAsS7tfAfh0RAViCc7L6IJt+2ifxCgXzRktc+QlR8qEE/2Atyloy9QjKdMlodBBRLQYDg9TP+YVVpAli5t1XHCrycMKpCA7IW5w5nrQHbObEsSwiMgKpBIBkNzaIz5qJM/HFCWjyej6fsRgREgETHBDiTFRHlkBEgLqEaA1lF1tIAAaQnVCNAKqo4WESAtoxoBoqHqaBkBkoCtRtQK5W7vfnggPK2wOqDqaB8BktBgOG2hcMi+EaAR7es4nIymH8aQAAGS2GBobttq5EGvXwhgM09t1fGS1y0dAiQTg+G0HcoRk+zASuc2OE5X/UtoBwGSGYa1gIUYrsoQrUwyY98gOrTqcd9fC8B6bA97IjwyQwWSscFwGiR609zv+2uBXnpmh6su+PXniQApgJ0fOWTZL3rizA5XMc+ROQKkIDZItJv9Tt9fC3TSC7uLnOAoBAFSoMHQ7NuKhCBBF7ywFccxv82yECAFI0hQOIKjcARIBxAkKAzB0REESIcw2Y7MMTneMQRIB9kgOWD5LzKh5bhHBEf3ECAdZveRqCLZY2c7Wqad4ye24mAfR0cRID1gGzbu26qEeRLE9MJufj2m0WH3ESA9w/AWImGYqocIkJ6yw1v79ouqBE28sBtbjxmm6icCBK4q2WeuBGtwcxvHVBsgQHDFzpXs2S+GuFD1zAbHCXMbcAgQLFSZeN/nkKveOq8MUREaqCFAcCM7X+IqEzYpdttZpdJgXgMrESDYyNww1y5zJsXTnMYpw1NoggCBl8HwKkj2WM1VjBc2ME4no+mfQCMECIKxQ127VCfZqVYZpwxNIRQCBNEMhmbHBom+dqhQWqMKY2xDQ4Ex7snPjZYRIGhNpUJxwcLqrjDObGCMqTDQJgIESdlNjDv2a4tVXjdSWFy4wGAzH1IiQJAdO/S1VQmW2z0MFgXFy0plccFQFHJDgKAYdghs2Vdp8ysvbCVR+2IICqUgQNAZdo/Kjv15XNAYW8HsVH7O2xHmX85txeCMK//sQsLYYSf2WqATCBAAQCPf4GUDAGzMGPP/AVHTP8dmBKzyAAAAAElFTkSuQmCC;" vertex="1" parent="1">
          <mxGeometry x="415" y="240" width="40" height="40" as="geometry" />
        </mxCell>
        <mxCell id="BB8o8y4dJ1L9ylsIL_xW-14" value="" style="shape=image;verticalLabelPosition=bottom;labelBackgroundColor=#ffffff;verticalAlign=top;aspect=fixed;imageAspect=0;image=data:image/png,iVBORw0KGgoAAAANSUhEUgAAAZAAAAGQCAYAAACAvzbMAAAACXBIWXMAAGl0AABpdAForRwYAAAgAElEQVR4nO3dP2ykx53m8WrjgIOMA2YsBxecjKGBky8zqUxObjhOtcBQgJ1qOJGMTsTZzWQfROFsZQdxkoYVDcepDYgDWKlFbrLKpunsrF2YAzs5YNc7BA42LurD013Fedlvd7P7raq3qt73+wGIsbplDdl8+336V39+NZhMJgYAgE19g1cMWGwwNDuDodla+CQAQwWCzhgMzW1jzI79ebbsl1Qfd/+8HfjnPjfGvKz887jyzxf2a/r4ZHTt3wOKRYCgGLYaqH7t2DDQ/75T2G/yhQ2VlzZsXMhcTEZXYQNkjQBBdjR0ZF4FhAuJuz37TZ1VwmVsg2Vc+7eAhAgQJDUYmt1KUGz1MCg2dWYrlbEdDjst69tHlxAgaI0dgnKBsRthHqKvNP9yakPllCEwtIUAQTR2KGq3EhqlzVOU6oULExsoDH0hCgIEwVQqjD375y1e3Sxc2jA5oUJBSAQIvAyGV2GxR4VRjBeVMDnp+4uB5ggQbMTutdijyuiManVywh4VbIIAwY3s0JQLDVZJddtZJUwY6sJKBAgWspXGvv1itVQ/aXXXsb6oTLAIAYIrc8NT93llUPGMYS7MI0DgNvPt2+BgTgOrXNogOWYTIwiQnrLzGm6IitVTaOJFZYiL+ZIeIkB6xlYbBwxRITANcR1RlfQLAdIDlQnxA6oNRKaq5IiJ934gQDrMDlMdMreBBNxcySHDW91FgHQQw1TIDMNbHUWAdIgNjkM2+yFTZ7YiIUg6ggDpgMFwOr9xyPwGCvHCBskxv7CyESAFIzhQOIKkcARIgQgOdAxBUigCpCB2juOY4EBHKUj2mSMpBwFSACbH0TNMtheCAMmY3cdxxHJc9JSW/x6wjyRfBEiG7M5xVRwf9P21AIwxj21Fws72zHyj7y9AbgbD6QbAC8IDuKL3woV9byAjVCCZsPMcRxzeBKx0boe1mB/JAAGSmB2uUnA86PULAWzmqQ0ShrUSYggrocpwFeEBbOYBw1rpUYEkMBiaHVt1sCwX8Hdmq5Exr2W7qEBaNhhOV1c9JzyAYPReem7fW2gRFUhLbNVxzCQ5ENW53c1ONdICKpAWVKoOwgOIa5tqpD1UIBFRdQBJUY1ERgUSCVUHkBzVSGRUIIHZ/lXHTJIDWTmz1Qh9tQKiAgloMDR7xkzLZcIDyIvek2P7HkUgVCABsJscKAq72AMhQDwxUQ4UiQn2ABjC8mCPlj0lPIDi6D17at/DaIgAaWgwnA5ZPTHG3CryBwCg9+4T+15GAwxhbcjOd1B1AN2iIa1d5kU2QwWyATvfcUF4AJ2zbbv77vCrXR8BsiY7VvqcISugs27ZjYfMi6yJAFlDZb4DQPcxL7Im5kBWsPMdWqJ7f/m/BaCjntmlvsyLLEGALGFbkpww3wH0mibX92iBshgBsoCdSDtlvgOAMebSrtBi0+Ec5kDm2F45hAcA55bddEgfrTkESIVdffE54QFgju4Jn7NC6zoCxBoMzQErrQDc4Im9V/SeYQ5kZjCcrrSiky6AdT2djKhGel+BEB4AGnhg7x291usAITwAeOh9iPQ2QAgPAAH0OkR6Nwdid5efcOwsgIDO7IbDXu1a71WA0IodQES9awnfmyEswgNAZO6Uw9t9eaH7NAdCXysAsW3be00v9CJA7CQXcx4A2nC3LxPrnQ8QVlsBSKAXq7M6HSCEB4CEOh8inQ0QwgNABjodIp0MENvsjPAAkIMHXe3i27l9IPYXRVddALl5OBl1qxrpVIDYA18+rz0BAHl4dzLqzjLfzgQIx9ACKECnjsftRIAMhmbLmOkvhPAAkDuFyM5kZC5K/00VP4leaY5IeAAoge5VJ11oedKFVVjHtCgBUJhte+8qWtEBMhiaI2PM/doTAJC/+/YeVqxi50BYrgugI4pd3ltkgNgVV89rTwBAmd4qcWVWcUNYlXM9gKh2v2fM4Tu8xmhFkeeIlDgHwl4PRKfg+PLAmI/eMWb8oTFb3+Y1R1S3SvxgXNQQlp1w+qD2BBCIguLkfWO237j+37v8mzH7vzLm5JxXGlE9noymvfyKUEyAMGmO2PbfNubox8bcem35X/T0K2MOfm3My7/VngJCKWZSvYgAoU0JYrr92iw4Hry93l9y/udZNTL+c+0pIIRi2p1kHyCVSXM2CyK4nTeMOX6vPmR1E4a0ENm5DZGXOb/QJUyiHxEeiEFDVqePNg8P0TDX5+/PKhcggm1778ta1hUI7dkRi278H9wL8x8/+9qYvV8yL4Iosm7/nm2A0GEXMWi+o2nVscqLv8xChHkRBJZ1596ch7COCQ+EpI2BFz8PHx5y5/VZMO2vOREPrOlWzk0XswyQwdAcGmPu1p4AGjr44Wxj4Kolur70337yHvMiCO6uvSdmJ7shLPpcITStslp3iW4ozIsgguz6ZeVYgXTq0Hmko/kOtSFpOzzk7puzIa2dCMNl6K3s7o1ZBYgt01iyC2+6ccea71iX/m6FiOZegBCXVG5DWdkMYTF0hVDWaUnStoe/Mub4K37FCCKboaycKhCGruBNXXQ1kZ1TeIi+J83FAAFkc6/MIkAYuoIvzXfoBv1Rxud3aC7m5Cez7xXwkM1QVvIhLIau4CvW5sBY1Ixx91NWaMFb8qGsHCqQog+VR1qaLB//NE54qHX7o9/UHva2bSf4WaEFT8nvnUkrkMFwenDKp7UngDVodZMOfwo936FOuzrzw01679jVVDH+nr3PjDn9Q+0pYF2PJqN0QZIsQGyb9gvalaAJrbR6EmFSellPq5jDZKzQggf1ytpK1fY95RDWEeGBJtxKq9C0e3znF/XwEM1X7HwyG9YKTT+LWq0ADdxKOZSVpAIZDM2uMebL2hPADWK1JXn85WzYah262X/6o/Dfg8JJh1QBDdybjKYH77UqVQXCxDk2oiEkLYENHR6ah9AQ0rrhIUe/M+be0ez/G5J+NvaKoKEk99TWKxAmzrGpWPMPCgAtp100ZLWOpsfh3oRlvmio9Qn1VgOEiXNsauvbs5VWud6kY4UbIYIGWp9Qb3sI65DwwLqmezw+DH9z1lxDqJtzrMl114hRAQqs6Za9x7amtQrEHlH7x9oTwAKx9l58/IUxh1/UHg5Cq8NCt1LxHWZDL323rSNw26xAmDjHWva244SHJstjhYfov/0w8CqqW69xrgg21tq9tpUKhGW7WFeMDYJtf4qPUT1RiWBDrSzrbasCyfI8X+QlRni4yeg2b7xj+3dqV3sorhLhcCqsqZV7bvQKhOoD64gZHqlWMsVaoUXrE6wpehXSRgXCQVFYKUZ4hFxp1dRLO+ykFikh6bXaT3DOO4oT/d4bNUAGQ7NvjLlTewKwtBEvRnioJUgOeyhciIRe5kuIYA137D04mtgVCHMfWCpGXyud35FjPyl9T4QIEoh6D44WIFQfWCVGeGhuQH2qcqUQCb3MlxDBDaJWITErEKoPLBQ6PLTE9d3PyphY1vdIiKBl0e7FUQKE6gPLxAgPzTGcnNeeypYLkZDdfAkRrBCtColVgVB9oCZWeJS4ue7YrhIjRNCSKPfk4AFi931QfeCa0OGRYoNgaG7DISGCFtyx9+agYlQgVB+4hvBYjhBBi4Lfm4MGiE24u7Un0FuxwqNL52QQImjJ3dBVSOgK5KD2CHpLZ4cTHutRiGz9bPYzhkKIYIGg9+hgvbA47wNVoduT9OWEvhj9s976hC6+uCbYeSEhKxDmPjBFeDTnWp+ErEQ4TwRzgt2rg1QgnHUOJ3R4uL5WfRO6EuE8EVQEOzs9VAWyT3hAJwkSHmGErkQ42RAVt+w921uoAGHyvOd0YzomPIKKESInP5lVN+i9IPds7wBh4yBCH+FKeLwSOkTuvD77XREivRdkY2GICoTqo8fcWD3hEU/oENm2gY/e8753ewWIXbp7v/YEeiF0eDz7PeGxTIwQCTnkiCLdt/fwxnwrkKinXSFfoVcJ6ca4/7T2MCpCh4g2eRIived1DydA0MjRj8OGR1/2efjSa7T3Wbi2JwoRdQxAb6UJECbP+ytkfyvCY3MX/xa2d9anP6LlSY95Tab7VCBUHz2kGw3hkV7oBozav8Mekd5qfC9vtBOdnef9pI2Cn78f5kcnPMIIuYSa3eq91XhnetMKZI/w6JeQGwV1o9JqK8LDn272mhMJQSGk3zF7RHrnlr2nb8wnQNATIZfr8ik3vNM/zM5YD0ELI7RbHb3T6J6+8RCWHb7699oT6KSQy3UJj7hCNrJkQ2cvfWvTYawmFQiT5z0ScrmubkiERzzHXxnz8Rdh/vNaKMHKrN7Z+N5OgGCpkCcKaojl5Lz2MAI7/GJWPYSgamb3e/yGemTje/tGQ1icOtgfIVdcPfqNMUe/qz2MiDSPcf/7/v99hh17Z6PTCjetQJg874GQK670aZjwaJ/awoRoecLKrN7Z6B5PgOCa2/aGEWLFFc0R03F9s178xf9bmDZefFB7GN0UJ0Ds6qu7tSfQKbpRhJg0pzlietO+Wb8Ms1tdw2GH79QeRvfctff6tWxSgVB9dJwmzUOOm7NRML2QGw0/eodJ9Z5Y+15PgGBKNwY11fNFeOQn5EbDk/eN2fp27WF0S5QA8T7+EHnSvMdJoBVXB79mxU6OtEfk8Zf+39itgNcKsrX2vX6tABkM6X3VZVryGWLSXJvYjgPtQUB4CnctbPClOTJtMEVn3bL3/ButW4FQfXSUJkbvvun/s2m57mGgXdCIJ9Ty3g/uzfYKobPWuuevGyDMf3SQ5j0+CrCyRjckfbpF/kKeaKjl3syHdFaYCsTuPufkwY4JNe9xaW9ITJqXQycahliZxXxIp92x9/6V1qlAGL7qIO33CDHvoRuRbkgoi1ZmqcWML+ZDOu3Ge/86AcLwVceE2u+hG5BuRCiTWsyEaLyo+RD2h3TSjfd+KpCeUZ+rEPs9tJqHHlfl09xViEl1DWXRL6tzbrz3r+zGOxiaHWPM89oTKNb4Q/9WJeqvtPOLvOY9NJnrJnR1I9up/Iy3v3n9n6t8V6DptVg0hKfHqo9P/7nSlyqnyi3Uuer6UKHWKeiUtyYjM172A/2H2iPXUX10iJbs+obHpe2v1FZ4TMPgO9dDwQ2XKDDuvF77v7RKf/+i72HdYNLr6TZe6s+Xf30VNvMhFIv+XjW99G3fr2FRDY9SmXaKMmBpgNxUgZzouqg9geLopvvlgf93rZYYoTcLupBQQOh/63vVn6FOQiydq3JcwJx+Pfsz9I5/TYZrPsOHAnHnExZWdMizyWj5XMhNAXLBEt7y6WY8/uniT8qbCDFEoXBQUKh60J/6CrEarK80f6FqZfynWbDoT5/qMMQQ59nXs35o6IQXk9Hy5bxLA4TTB7sjxCfLJvMeCgcXGPqiomiHfleqTpqEioJdIeIb6pxC2SlLTylcFSA6H/dJ7QkUJdTQ1Vuf3Dxkor9r983ZnyHaoyAcVSoKE03e62tVoIQ4zpihrE55OBmZ40U/0KpJ9J3aIyhOiKNp1SRxUXi4CkM3HAIjb9u2AnSVaDVQTs6vf+v6Z+0PefB28x/JHYXLUFYnLM2CVRWIZt5pl1Ywrbry7XU1P56tsNCXgiP1CiiEo/mtk/EsPFSdhJo3YyirE84no8UhsipAFj+BIqg6eP6h33fqhiH033LBwYR397kw+Zd/NeYf/97vx2UoqxsmIzNY9IMsDJDBcLr2N8DxM0hFG8N8h5X+8Z+N2f4vhEaf/e//Y8x/+89+LwAbDDvh3mRkTud/kGWtTBaWKyjD/tth5iT++38lPPrONzyM3WDI2SHFW5gJBEjHaOya7qjIja5JemUVbWEmLAuQpRtHkLfDv6NqQH40Ga82JyjWwkxYFiB3a48geztv+G8YBGLRikBOMCzWwkyoTaLTgbdcISbOu2K+S+6yxoTT/lIrNtXdZHfJ6z1/Pga/lxnanBSt1pl30UbChaUK8taXzXy6AZlKO/Rqm3TfPlBNLG3L/kXtkSsuXKodhl3H4Rw6DMd013YqWPq6IWdb8515FwXIwskS5K0rE+dtdZ5NqXrznN8F7rjzTbrYoVg71Ld+VnsY+VM2nFS/SwKkA7TjvLRPre4cDNf0T1UEn0pfcUNuV69JpaK51s3YtsEv6ffvJtTZoV6cWjYsmgM5XTZhgvzoU+nFz/NfeaWhp2qH2EXzEWjOnanimlnm3iZfHyBUheR0qiVudDYZXT9kcFGA1LemI1sh+l3FcOY6v35NZZFKtZ1+jm1o1KTzcMVcEfIz39LkWoBwBkhZQp3dEILr7qoxfQIjT7l1T6ZPVpGunQ0yPwfCCqyCqPpIGR4KDR1vq9DgJpA/N+ekuQcNeU0bZO7MWo2koGtX17DOY0cxlBEESOlUffic19CUVknpBkRolE1zDwp/fbkw2f9B+5WJrmENY3EtFeNaRhAghTpsed7jqb3ZMDzVPdUw0QcTNePUKqm2qluqkKJcy4j5Via1ZVrIT5vVh4Lju/9j9gYnPLpPlYAqgtv/YMzDX80qzth0LdPipBgrA+R231+dErTRlK4aHAwv9NO0IvlZO0HSdkWNxlYGCENYmdN49X7E6kPLbwkOVLkg+TjikluqkGKsDJA7fX91chdrbFpLKt/9bNbojuDAIhraeuuT2eq7GGJ+MEIw1zLiah/IYDgdvvp3Xue8vfxf4QNEN4S9zwgOrMcdWhZ6Ho7d6cX41mRkXpq5CoQJ9MzpE1ro8NDYNlUHNqEbvIY4NU8Wkq5tLSVG9q6yYtmBUsiQThsM7eDXfOJDM7p2LgNfO5xaWJZqgDCBnjG1oIjRcZWJSzR1+5vhK2Jd48yFZO8qKwiQQsR6U336o1eHGgHr0jzIyftxXi6GsbK3MECQqdgbB59/yKc+rE/Xo45PjnW4ldqpUBmXoRogbCLMlPoUxfbkvdlJcbczP1cEaWmOQh2gY5+MyFxI1q6yglVYBWjrzaQqZ/xTqhHUTc8xfzQb8myjRxbXYNZYhVWKWJPny+jvUjWim4X+bvSbhpJUmX550G6n3luROy4gDAIkc6neRLpZ6KYxZn6kl/ThQcHxx/+Z5tgA2WNMJHvVnehjY0wLo+3YRIyd501ow+HxP836IrHpsJvcuSAaMo09x7Gub/0D+5QydD4ZzYaxqgHCWeiZ0Zv580hLJX2o4aLCRIdK8eYu3/Rkwu08z01/9JvZAWbIizsbff5AKWSkjdVXTWh4S19PjDHPfm/MyXh2HjqVSTlcYLQ9x7YpDZ8SIPkiQDLmEyD/9/8Z85/+Y+3h4HSetjtTW00ZFSSqTDh8Ki+aDHeBsftmfpXGMhpK0/fOh5M8ESCZ8hlO0I18eoLgo3ZvFHqz6+uDe7N/1lCXgkShMv4Tw11tUneBaVhkEBg6kEoT4u6Dxqb0XqAKyRMBkimf6kMT3eM/z7rsth0iVW6o6yP7mIJtXPmiSglDn9AVGC402lxuexOFx7Ht2ts0QPQzESB5YhI9Uxc/bz42rRMFXcmvlTUx2074Uqhc/GVWoShU9H2PIx1YVDr9Lne+MwsKFxo5hUXVpW35ruFMY793XdNNP8ywGisvTKJnTDeGpuFx/ufr48V60+18MjsAyA0t5cQNe81/OtXPoe/dVSkaBpv+2fGqRb97dbmd/mkDQ3/mGhSLLDqgTL9LhUnTPSWqQlwYIR8ESIZ8doAfLznkR2c36OarIMl51Y3jKiZ34/xo7nkXMPpS9SK6YamakZd/zaeScUHg7NqfyQWFscFRysT2Kjo3/XDJ2ek+AaIhXQIkPwRIhnzmP1a9ydzqKB1MlWM1sonqkNw6Y+saUlkUKNUA2pSGkRZ1jVVg5DpkGIsWTOhDyqLX2Fl1bd6Etjp5ms6BDIbTXYXP+/5i5GIyavaN6FO5hqvW4XoclTQ0gvyoQ8Hhb5dXvvNOftJ8Mr06t4fkvjsZmQt6YWXG55PWJp/w9EbUKq17R7NPj8AmFBxaYbX1s/XDY3qNjmsPrW2XDzs5mbZ0nwbIZGQ8fq0IyedNctogCDSk5YLk6QY3AvSTqtwmwXF1vXl8WGEYKx8uM5gDyUzTN8nl3/xWKE03/P1hNgGq9hE6VrSEyXa0Qx8uFBi+q+BU+SqEmswRcfRyfgiQzDR9k/h8sqvSG/zQrqTRZL6CpOmYNcqmG7028IVumqlrtUmAbNulzewHyQcBkhFNbDddyhljf4RuHPpybb592lGgDAoNVRr6vceasNa12nQVoJZD08EgHwRIRnxK9FXLJ33pE9+xHcJQmGiYLdf239icOirrphwzNKp8rlXNERIg+SBAMuITIG29qdyOYrfiy/VfUpiwJLgMrmuyC422KaS0iqvJHNuifTdIhwDJSNMJ9JTLcF1zRNfsznV/1VBDSW3Du0zXh2teqa8c5hD0/RAg5SNAMtL0zZFT80F3k3L0M7lAybn5X1eU0vFYu/+bzKdx/eSFAMlI02WzOe/O1fd2rO+vsmeg2n5cwbL1ev9af/jSEJBeWwWE6wFW0tyAhtDm+5utiwOm8lENEI2GZnqIavflOoEew/SG92/18XfXidZtptRwWB/7SjkuJNzXeK5Dccl8AoAASe7qnVsNkJf9ex3yoRtnU02bAebGBeHVDXKuq6ubI3KtzqvdbHVTKWXjY7WxowsHY14FRPWxrvIKEDa4pnaVFQxhZcKnAunLxqqrs0HW+AQ+vyBhWYsYd96G7/c0z4WB04dQ2FTTHelMpOeDAMlE05sYjRAXm7+xL7vRI52mH3x8qnWEVe3GS0PFhPhUhb5pOndHT6zkrrKiGiDMgSTUNED4ZI1S6dRIFOkqKzgPBADQSDVALngJAbSlaQdpNhMmd5UVBEgmmr4pQrVxB4A1LQwQAADWxiosAMAm6quwJiNWYQEAVqtmxfwQ1ouV/08AQJ9dy4j5AGEiHQCwzLWMmA8QhrEAAMtcy4j5AGEiHQCwzLWMYAgrE5cNG8vRFwilWtYh+SY6JwXJrBzCIkASadpYzqcVOVAi2uInRYAAABpZHiCTEQFSGtrAo1Q6zAtlmc+IRa1MzmqPILqmQ1gECErVdPi16XsF3mrZsChAWMqbQNOzEZgDQamaXrucI5JMLRsWBQhLeRNoerxnkzOlgRw0vXabvlfgrZYNBEgmfMpyqhCUxmfolSGsZGrZsChAmEhPwKcsZzISpfEJEIawkqllQy1AJqN6yiA+n09VbCZEaXyuWSqQNBZlQy1ArNpsO+JrusOWlVgoTdNrll3oySzMhGUBUitVEF/THbZUIChN02uWXejJLMyEZQFSK1UQX9PSvOl56kAqTa/Z0z/UHkI7FmYCAZKR8Z+afy9UISiFz7VKBZLMwkxYGCCTkTmtPYjoLjzGdwkQlGL3e82/USbQ01iWCQsDxDqvPYKofMpznzcl0CZWYBVnaRasCpCFiYO4zhu+QQgQlKLptXr2de0htGNpFqwKkIVjXojrtOGb5M7rLOdF/nSN6lptguojmaVZsCpAlqYO4vGZSN/brj0EZMXnGmUFVjJLs2BpgNi+7y9qTyCqphWIYRgLBWACvTgvVp0TtTRArKWlC+LQMsWmu23vf7/2EJCVpteo3hMs4U1iZQbcFCBLSxfE41OqM4yFXPlcmydL1wEhspUZQIBkyOfNQoAgV8x/FGllBqwMENt98bL2BKKiAkEXESDFuVzUgbdqZYBYKxMI4enEtaZr3m+9RoggP/tvz67NJp79nlMIE7nx3r9OgJzUHkF0PsNY+z+oPQQktbfT/G+n+kjmxns/FUimfAJEK13YVIhc6Fr0WSHIBHoy/hUI+0HS0JLFpm1NDHMhyIiGr5rSe4Dlu0ms3P/hrFOBGIax0jj+qvlfe/DD2kNAEj5Dqj7vAXhZ656/boAwjJWAT+mufkNUIUhN12DT3leG4auU1rrnrxUgk9E0jVjO2zKV7lqB0hRVCFLzuQZ17TN8lcSlveffaN0KxFCFpHGychX2ajo2lP5YSEXXns9xyz7XPrysfa/fJECYB0lAY8CXHmvgfSYwAR8+1YeueeY/kln7Xk+AFMDnjfTgbZb0on2+S3cJj6TCB8hkZF7qULDaE4ju6Hd+f8PhO7WHgKh8rznfax6Nndl7/Vo2qUAMVUgavpPpqkJ8zqEGNqG5jwceQ6dMnie10T2eACmE7yeyox/XHgKioPooWrwAsTsTWZmdgPoB+exMZ0UW2uC78krXOL2vkjlfZ/d51aYViBzXHkErfD+ZHb9XewgIyvcao/pIauN7OwFSEK1MaXrcrbG709lciFh0bfnsOte1zeqrpOIHiJ2hf1Z7Aq04/K3f36Lx6dsNz2UAltGyXd+5D99rG16ebbL6ymlSgRgm09PxrUJ0qM/xg9rDgBct0mh6YJSh+shBo3u6T4DQGysR309q2uBFo0WEomvJZ9OgHPy69hDac9lqgNhShyokEX1Sa3rkraPJToay4EvXkO/Eua5luu4mddJk+Mp4VCCGyfS0Dr/w++sZykIIuoZ8hq5MgGsZ3hrfyxsHyGQ07djISYWJaK28z+50Y4eyaLaIpnTt+A5d6Rpm30dSL+y9vBGfCsRQhaSlcWOfTr3GTn7SbBGbUmsc3+4GunaZ+0jO6x5OgBRM/YJ8N15p+OHk/drDwFJu3sN36ErXLj2vkksXIHbbO3tCEtL4sc+yXtl+g13qWJ8qj23P5py6Zpn7SO7Zpq1L5vlWIHJUewSt2v+V/9+m7qnMh+AmukZ8Ou06Ia5ZePO+d3sHCJPp6WkS8vGX/t/Gk/do+47l1CjxSYBKVdcqE+fJeU2eOyEqEEMVkp42F/oOZcnpI0IEdbomQsyVTYeuaFmSgyD37FABcszO9LRe/i3MsMCt19hkiOtCTZobO3T10nPlILxdhloAFSRA2Jmeh1BDWZogVSVCiEDXgK4F30lzw9BVThrvPJ8XqgKRw9ojaJ3W1fscPOW4EEF/hQwPXZPs+chGsHt1sABhSW8+NP5CpigAAAuYSURBVEzgu8HQsLy390Is1zV2w+DeZ7WHkYb30t2qkBWIYTI9D+OAn/a0ZJMQ6R/9zkMs1zX2Aw0bBrMR9B4dNEDssrCz2hNonTr2hpgPMYRIr7gJ81DhoWuQTrvZOAuxdLcqdAVimAvJR6j5EGNDZPwhE+td5uY8QoWH2rQz75GV4PfmwWQyqT3o/R8dTsfY7tSeQOt0Uxj/1O+s6ioF0u6nLMXsmpAT5sbu99j5BddJRrRxcCv0txOjAjFUIfnQG3jvl2Em1U1ldRabDbtj542w4XFprznCIytR7slRKhBDFZIdtaH48iDcd6WbhCqRcaAhMqSh60I7zENsEnTuHbHfIzNRqg8TsQIxVCF50Rv6YcAGdrrhPP+QBowl0+9OHypChoeuMcIjO9HuxdEqEEMVkiXdNEI0xKt6+tVsspQhizJovkN7PEJNljsKD63+Q1aiVR8mcgViqELyozf408Bvct2INIbOyYb5c/MdocNDy3UJjyxFvQdHrUAMVUi2Qq71d9wRpdxI8qTqU5VHyCErYytQzvfIUtTqw7RQgch+7REkpzd86EpENyYNj538hP0iOdHvQr+TJ4E66lYRHlmLfu+NXoGYWRWi3Y93a08guRiViLHViG4s7EJOa287XCv2eYRH1rTrfDf2N9hGBWKYC8lXjErE2Grk8/epRlLRfJRe+88DL9F1NOdBeGStlXtuKxWImVUhOi/kfu0JZCHG6ixH1cjhF8Yc/a72FCI4+KExh+/ECQ7DaqsSqOPuXhvfZ5sBosmcP9aeQDZihoix7S322ScQjTYFargqVNuaRQiPInw3ZMv2VVoLEDMLEbUS/qD2BLIRY2fyPDXZU0VCkISh35kqjrtvxvs73Jke/M6y93gyMgF7TqzWdoDcNmaajLdqTyIb2iug8fOYn2SNnYRVkHBWRDOa51BwxFgEUaXKUb2taFuTPZ11vhXquNp1tBogZhYiSsdPa08gK27pZ8xPtY6CRMMifLpdjyoOzXPc/378v0vVIo0Ri/FoMmr3UL/WA8TMQmSsxq61J5AdbTz74F4735VuVppoZ+nvYpqj2v9BO6Fu7EorzvMoxvlkZHba/mZTBYjWJwc6Lw+xxdrBvIyGTI7/aVaV9H14S8NULjhiDyk67OEp0r3Qpw2uI0mAmFmIHKuNUu0JZGm6r+D9cGdGrOvZ7405Gfdv5Y9CY2+nnWGqKh0Ypsnyvgd3YZ5ORmk6fqQMECbUC9TmkFaVPhXrE7H76hrNOWluQzvH9dVWtVfFkFWRWp84r0oWIIYJ9WK1sd/gJqpMNOmuMCn107KqOoWFXs+2K40q9ucUrfWJ86qkAWLok1UsfWI+/Ls01cg83QB189MyU/dnjrQ8WmHh/kwZwI6qjsPfssqqUK30u1olhwDRyoHntSdQhByqkUW0oktBourE/dlWpaLKQl8KCvdnWyun1kXV0QlvTUbTFa3JJA8QMwsRNf76qPYEiqENbdqbkGLsfhOaJNanbX2N//Tq/3j69Wb/nd1KIOx8Z1aR6avtRQab0lySlkprAyeK9vFklL5JbRYBYtgb0gn6tK1J9pTj+ViOnf+dkWTPxyI5BQhDWR3RRm8mrI/eY52TfOjKySZADENZnaO9DJpoz21+pC80z6FluWwI7JQshq6crALEMJTVSQRJuxQcWllF2/XOyWboyskxQBjK6igFiSbac59oLpWGqlwLGHRSNkNXTnYBYhjK6rw2u8n2gTZVamUVcxydltXQlZNlgBg2GPaCVm0pSFSZ5L78NzdajqtKQ8HBqqrOS75hcJmcA0RH4I7pldUPqZoHlqavzSV7TL2udto6onZT2QaImYWIDob/vPYEOsv1h1KgMFcyo82PCgzNb9BypHfenYzMSa4/dNYBYmj73mu5NBtMoQvNIuEtWZv2dZUQIGr7fsrS3n5z7c5dy/OuLQnW0luFhUJDX1QavafdO7up2rSvK/sAMa+W9p4yHwLHNSl03W1L2/Xumj267sFUGai4tOGR1ZLdRYoIEDMLEZVyT2pPAJaCxHXAVbDoz9SViioLhYOCwnUGzrXdPLLxcDKaDt1nr5gAMbMQ0cEpH9SeAFZQqNz+pv3ztVf/22kSNC4YHIXCy7/aLr/2fxMUaODxZDQ9aK8IRQWIodUJgO7KrlXJTb5xw/M52rVjhADQFZf23laU4gLErkoo7oUGgBWyX3G1SIkViLGrEx7WngCA8jwsYcXVIkUGiJmFiFYpPK49AQDleFzKiqtFiptEnzcYTrf53689AQB5ezYZTds1FavYCqRi3+7aBIBSnNt7V9GKr0AMnXsBlCXrDrub6EIFYuwvguW9AHLn2pQUHx6mKwFiXq3MKr4kBNBp+6WuuFqkMwFiZiFywvJeAJl6mPPZHk10KkDMq+W9hAiAnBTTIHETnQsQ8ypEntaeAID2Pe1ieJiuBoiZhcg+IQIgsexPFfTR2QAxhAiAtDodHqbrAWIIEQBpdD48TFc2Eq5jMJweiXs3/+8UQOHOJqN+dAzvfAVSsUfLEwCRndt7TS/0JkAq54gQIgBiOC/1XI+m+lSBVEPkrPYkADT3rG/hYfo0BzJvMJyuy35QewIANtOLCfNFelWBVLE6C0AAvQ0P0+cAMYQIAD+9Dg/T9wAxhAiAZnofHoYAmbEXwqPaEwBQ95DwmOntJPoig+H0oniy4CkAMF3tqtsUFUiFvTDe5WRDAHN0T3iX8LiOCmSBwdDsGDNtfcIZ6wDcMbSdOUkwFCqQBeyFssOudaD3dA/YITwWI0CWsIfe79odpgD6x+0uv+B3vxhDWGsYDM2RMeaD7L9RAKE8nozMAa/magTImlihBfQGK63WRIBsgMl1oNOYLN8QcyAbsBfWFpPrQOfoPb1FeGyGCqQh5kWAzmC+oyEqkIbsBfeQTYdAsS7tfAfh0RAViCc7L6IJt+2ifxCgXzRktc+QlR8qEE/2Atyloy9QjKdMlodBBRLQYDg9TP+YVVpAli5t1XHCrycMKpCA7IW5w5nrQHbObEsSwiMgKpBIBkNzaIz5qJM/HFCWjyej6fsRgREgETHBDiTFRHlkBEgLqEaA1lF1tIAAaQnVCNAKqo4WESAtoxoBoqHqaBkBkoCtRtQK5W7vfnggPK2wOqDqaB8BktBgOG2hcMi+EaAR7es4nIymH8aQAAGS2GBobttq5EGvXwhgM09t1fGS1y0dAiQTg+G0HcoRk+zASuc2OE5X/UtoBwGSGYa1gIUYrsoQrUwyY98gOrTqcd9fC8B6bA97IjwyQwWSscFwGiR609zv+2uBXnpmh6su+PXniQApgJ0fOWTZL3rizA5XMc+ROQKkIDZItJv9Tt9fC3TSC7uLnOAoBAFSoMHQ7NuKhCBBF7ywFccxv82yECAFI0hQOIKjcARIBxAkKAzB0REESIcw2Y7MMTneMQRIB9kgOWD5LzKh5bhHBEf3ECAdZveRqCLZY2c7Wqad4ye24mAfR0cRID1gGzbu26qEeRLE9MJufj2m0WH3ESA9w/AWImGYqocIkJ6yw1v79ouqBE28sBtbjxmm6icCBK4q2WeuBGtwcxvHVBsgQHDFzpXs2S+GuFD1zAbHCXMbcAgQLFSZeN/nkKveOq8MUREaqCFAcCM7X+IqEzYpdttZpdJgXgMrESDYyNww1y5zJsXTnMYpw1NoggCBl8HwKkj2WM1VjBc2ME4no+mfQCMECIKxQ127VCfZqVYZpwxNIRQCBNEMhmbHBom+dqhQWqMKY2xDQ4Ex7snPjZYRIGhNpUJxwcLqrjDObGCMqTDQJgIESdlNjDv2a4tVXjdSWFy4wGAzH1IiQJAdO/S1VQmW2z0MFgXFy0plccFQFHJDgKAYdghs2Vdp8ysvbCVR+2IICqUgQNAZdo/Kjv15XNAYW8HsVH7O2xHmX85txeCMK//sQsLYYSf2WqATCBAAQCPf4GUDAGzMGPP/AVHTP8dmBKzyAAAAAElFTkSuQmCC;" vertex="1" parent="1">
          <mxGeometry x="415" y="320" width="40" height="40" as="geometry" />
        </mxCell>
        <mxCell id="BB8o8y4dJ1L9ylsIL_xW-15" value="" style="shape=image;verticalLabelPosition=bottom;labelBackgroundColor=#ffffff;verticalAlign=top;aspect=fixed;imageAspect=0;image=data:image/png,iVBORw0KGgoAAAANSUhEUgAAAZAAAAGQCAYAAACAvzbMAAAACXBIWXMAAGl0AABpdAForRwYAAAgAElEQVR4nO3dP2ykx53m8WrjgIOMA2YsBxecjKGBky8zqUxObjhOtcBQgJ1qOJGMTsTZzWQfROFsZQdxkoYVDcepDYgDWKlFbrLKpunsrF2YAzs5YNc7BA42LurD013Fedlvd7P7raq3qt73+wGIsbplDdl8+336V39+NZhMJgYAgE19g1cMWGwwNDuDodla+CQAQwWCzhgMzW1jzI79ebbsl1Qfd/+8HfjnPjfGvKz887jyzxf2a/r4ZHTt3wOKRYCgGLYaqH7t2DDQ/75T2G/yhQ2VlzZsXMhcTEZXYQNkjQBBdjR0ZF4FhAuJuz37TZ1VwmVsg2Vc+7eAhAgQJDUYmt1KUGz1MCg2dWYrlbEdDjst69tHlxAgaI0dgnKBsRthHqKvNP9yakPllCEwtIUAQTR2KGq3EhqlzVOU6oULExsoDH0hCgIEwVQqjD375y1e3Sxc2jA5oUJBSAQIvAyGV2GxR4VRjBeVMDnp+4uB5ggQbMTutdijyuiManVywh4VbIIAwY3s0JQLDVZJddtZJUwY6sJKBAgWspXGvv1itVQ/aXXXsb6oTLAIAYIrc8NT93llUPGMYS7MI0DgNvPt2+BgTgOrXNogOWYTIwiQnrLzGm6IitVTaOJFZYiL+ZIeIkB6xlYbBwxRITANcR1RlfQLAdIDlQnxA6oNRKaq5IiJ934gQDrMDlMdMreBBNxcySHDW91FgHQQw1TIDMNbHUWAdIgNjkM2+yFTZ7YiIUg6ggDpgMFwOr9xyPwGCvHCBskxv7CyESAFIzhQOIKkcARIgQgOdAxBUigCpCB2juOY4EBHKUj2mSMpBwFSACbH0TNMtheCAMmY3cdxxHJc9JSW/x6wjyRfBEiG7M5xVRwf9P21AIwxj21Fws72zHyj7y9AbgbD6QbAC8IDuKL3woV9byAjVCCZsPMcRxzeBKx0boe1mB/JAAGSmB2uUnA86PULAWzmqQ0ShrUSYggrocpwFeEBbOYBw1rpUYEkMBiaHVt1sCwX8Hdmq5Exr2W7qEBaNhhOV1c9JzyAYPReem7fW2gRFUhLbNVxzCQ5ENW53c1ONdICKpAWVKoOwgOIa5tqpD1UIBFRdQBJUY1ERgUSCVUHkBzVSGRUIIHZ/lXHTJIDWTmz1Qh9tQKiAgloMDR7xkzLZcIDyIvek2P7HkUgVCABsJscKAq72AMhQDwxUQ4UiQn2ABjC8mCPlj0lPIDi6D17at/DaIgAaWgwnA5ZPTHG3CryBwCg9+4T+15GAwxhbcjOd1B1AN2iIa1d5kU2QwWyATvfcUF4AJ2zbbv77vCrXR8BsiY7VvqcISugs27ZjYfMi6yJAFlDZb4DQPcxL7Im5kBWsPMdWqJ7f/m/BaCjntmlvsyLLEGALGFbkpww3wH0mibX92iBshgBsoCdSDtlvgOAMebSrtBi0+Ec5kDm2F45hAcA55bddEgfrTkESIVdffE54QFgju4Jn7NC6zoCxBoMzQErrQDc4Im9V/SeYQ5kZjCcrrSiky6AdT2djKhGel+BEB4AGnhg7x291usAITwAeOh9iPQ2QAgPAAH0OkR6Nwdid5efcOwsgIDO7IbDXu1a71WA0IodQES9awnfmyEswgNAZO6Uw9t9eaH7NAdCXysAsW3be00v9CJA7CQXcx4A2nC3LxPrnQ8QVlsBSKAXq7M6HSCEB4CEOh8inQ0QwgNABjodIp0MENvsjPAAkIMHXe3i27l9IPYXRVddALl5OBl1qxrpVIDYA18+rz0BAHl4dzLqzjLfzgQIx9ACKECnjsftRIAMhmbLmOkvhPAAkDuFyM5kZC5K/00VP4leaY5IeAAoge5VJ11oedKFVVjHtCgBUJhte+8qWtEBMhiaI2PM/doTAJC/+/YeVqxi50BYrgugI4pd3ltkgNgVV89rTwBAmd4qcWVWcUNYlXM9gKh2v2fM4Tu8xmhFkeeIlDgHwl4PRKfg+PLAmI/eMWb8oTFb3+Y1R1S3SvxgXNQQlp1w+qD2BBCIguLkfWO237j+37v8mzH7vzLm5JxXGlE9noymvfyKUEyAMGmO2PbfNubox8bcem35X/T0K2MOfm3My7/VngJCKWZSvYgAoU0JYrr92iw4Hry93l9y/udZNTL+c+0pIIRi2p1kHyCVSXM2CyK4nTeMOX6vPmR1E4a0ENm5DZGXOb/QJUyiHxEeiEFDVqePNg8P0TDX5+/PKhcggm1778ta1hUI7dkRi278H9wL8x8/+9qYvV8yL4Iosm7/nm2A0GEXMWi+o2nVscqLv8xChHkRBJZ1596ch7COCQ+EpI2BFz8PHx5y5/VZMO2vOREPrOlWzk0XswyQwdAcGmPu1p4AGjr44Wxj4Kolur70337yHvMiCO6uvSdmJ7shLPpcITStslp3iW4ozIsgguz6ZeVYgXTq0Hmko/kOtSFpOzzk7puzIa2dCMNl6K3s7o1ZBYgt01iyC2+6ccea71iX/m6FiOZegBCXVG5DWdkMYTF0hVDWaUnStoe/Mub4K37FCCKboaycKhCGruBNXXQ1kZ1TeIi+J83FAAFkc6/MIkAYuoIvzXfoBv1Rxud3aC7m5Cez7xXwkM1QVvIhLIau4CvW5sBY1Ixx91NWaMFb8qGsHCqQog+VR1qaLB//NE54qHX7o9/UHva2bSf4WaEFT8nvnUkrkMFwenDKp7UngDVodZMOfwo936FOuzrzw01679jVVDH+nr3PjDn9Q+0pYF2PJqN0QZIsQGyb9gvalaAJrbR6EmFSellPq5jDZKzQggf1ytpK1fY95RDWEeGBJtxKq9C0e3znF/XwEM1X7HwyG9YKTT+LWq0ADdxKOZSVpAIZDM2uMebL2hPADWK1JXn85WzYah262X/6o/Dfg8JJh1QBDdybjKYH77UqVQXCxDk2oiEkLYENHR6ah9AQ0rrhIUe/M+be0ez/G5J+NvaKoKEk99TWKxAmzrGpWPMPCgAtp100ZLWOpsfh3oRlvmio9Qn1VgOEiXNsauvbs5VWud6kY4UbIYIGWp9Qb3sI65DwwLqmezw+DH9z1lxDqJtzrMl114hRAQqs6Za9x7amtQrEHlH7x9oTwAKx9l58/IUxh1/UHg5Cq8NCt1LxHWZDL323rSNw26xAmDjHWva244SHJstjhYfov/0w8CqqW69xrgg21tq9tpUKhGW7WFeMDYJtf4qPUT1RiWBDrSzrbasCyfI8X+QlRni4yeg2b7xj+3dqV3sorhLhcCqsqZV7bvQKhOoD64gZHqlWMsVaoUXrE6wpehXSRgXCQVFYKUZ4hFxp1dRLO+ykFikh6bXaT3DOO4oT/d4bNUAGQ7NvjLlTewKwtBEvRnioJUgOeyhciIRe5kuIYA137D04mtgVCHMfWCpGXyud35FjPyl9T4QIEoh6D44WIFQfWCVGeGhuQH2qcqUQCb3MlxDBDaJWITErEKoPLBQ6PLTE9d3PyphY1vdIiKBl0e7FUQKE6gPLxAgPzTGcnNeeypYLkZDdfAkRrBCtColVgVB9oCZWeJS4ue7YrhIjRNCSKPfk4AFi931QfeCa0OGRYoNgaG7DISGCFtyx9+agYlQgVB+4hvBYjhBBi4Lfm4MGiE24u7Un0FuxwqNL52QQImjJ3dBVSOgK5KD2CHpLZ4cTHutRiGz9bPYzhkKIYIGg9+hgvbA47wNVoduT9OWEvhj9s976hC6+uCbYeSEhKxDmPjBFeDTnWp+ErEQ4TwRzgt2rg1QgnHUOJ3R4uL5WfRO6EuE8EVQEOzs9VAWyT3hAJwkSHmGErkQ42RAVt+w921uoAGHyvOd0YzomPIKKESInP5lVN+i9IPds7wBh4yBCH+FKeLwSOkTuvD77XREivRdkY2GICoTqo8fcWD3hEU/oENm2gY/e8753ewWIXbp7v/YEeiF0eDz7PeGxTIwQCTnkiCLdt/fwxnwrkKinXSFfoVcJ6ca4/7T2MCpCh4g2eRIived1DydA0MjRj8OGR1/2efjSa7T3Wbi2JwoRdQxAb6UJECbP+ytkfyvCY3MX/xa2d9anP6LlSY95Tab7VCBUHz2kGw3hkV7oBozav8Mekd5qfC9vtBOdnef9pI2Cn78f5kcnPMIIuYSa3eq91XhnetMKZI/w6JeQGwV1o9JqK8LDn272mhMJQSGk3zF7RHrnlr2nb8wnQNATIZfr8ik3vNM/zM5YD0ELI7RbHb3T6J6+8RCWHb7699oT6KSQy3UJj7hCNrJkQ2cvfWvTYawmFQiT5z0ScrmubkiERzzHXxnz8Rdh/vNaKMHKrN7Z+N5OgGCpkCcKaojl5Lz2MAI7/GJWPYSgamb3e/yGemTje/tGQ1icOtgfIVdcPfqNMUe/qz2MiDSPcf/7/v99hh17Z6PTCjetQJg874GQK670aZjwaJ/awoRoecLKrN7Z6B5PgOCa2/aGEWLFFc0R03F9s178xf9bmDZefFB7GN0UJ0Ds6qu7tSfQKbpRhJg0pzlietO+Wb8Ms1tdw2GH79QeRvfctff6tWxSgVB9dJwmzUOOm7NRML2QGw0/eodJ9Z5Y+15PgGBKNwY11fNFeOQn5EbDk/eN2fp27WF0S5QA8T7+EHnSvMdJoBVXB79mxU6OtEfk8Zf+39itgNcKsrX2vX6tABkM6X3VZVryGWLSXJvYjgPtQUB4CnctbPClOTJtMEVn3bL3/ButW4FQfXSUJkbvvun/s2m57mGgXdCIJ9Ty3g/uzfYKobPWuuevGyDMf3SQ5j0+CrCyRjckfbpF/kKeaKjl3syHdFaYCsTuPufkwY4JNe9xaW9ITJqXQycahliZxXxIp92x9/6V1qlAGL7qIO33CDHvoRuRbkgoi1ZmqcWML+ZDOu3Ge/86AcLwVceE2u+hG5BuRCiTWsyEaLyo+RD2h3TSjfd+KpCeUZ+rEPs9tJqHHlfl09xViEl1DWXRL6tzbrz3r+zGOxiaHWPM89oTKNb4Q/9WJeqvtPOLvOY9NJnrJnR1I9up/Iy3v3n9n6t8V6DptVg0hKfHqo9P/7nSlyqnyi3Uuer6UKHWKeiUtyYjM172A/2H2iPXUX10iJbs+obHpe2v1FZ4TMPgO9dDwQ2XKDDuvF77v7RKf/+i72HdYNLr6TZe6s+Xf30VNvMhFIv+XjW99G3fr2FRDY9SmXaKMmBpgNxUgZzouqg9geLopvvlgf93rZYYoTcLupBQQOh/63vVn6FOQiydq3JcwJx+Pfsz9I5/TYZrPsOHAnHnExZWdMizyWj5XMhNAXLBEt7y6WY8/uniT8qbCDFEoXBQUKh60J/6CrEarK80f6FqZfynWbDoT5/qMMQQ59nXs35o6IQXk9Hy5bxLA4TTB7sjxCfLJvMeCgcXGPqiomiHfleqTpqEioJdIeIb6pxC2SlLTylcFSA6H/dJ7QkUJdTQ1Vuf3Dxkor9r983ZnyHaoyAcVSoKE03e62tVoIQ4zpihrE55OBmZ40U/0KpJ9J3aIyhOiKNp1SRxUXi4CkM3HAIjb9u2AnSVaDVQTs6vf+v6Z+0PefB28x/JHYXLUFYnLM2CVRWIZt5pl1Ywrbry7XU1P56tsNCXgiP1CiiEo/mtk/EsPFSdhJo3YyirE84no8UhsipAFj+BIqg6eP6h33fqhiH033LBwYR397kw+Zd/NeYf/97vx2UoqxsmIzNY9IMsDJDBcLr2N8DxM0hFG8N8h5X+8Z+N2f4vhEaf/e//Y8x/+89+LwAbDDvh3mRkTud/kGWtTBaWKyjD/tth5iT++38lPPrONzyM3WDI2SHFW5gJBEjHaOya7qjIja5JemUVbWEmLAuQpRtHkLfDv6NqQH40Ga82JyjWwkxYFiB3a48geztv+G8YBGLRikBOMCzWwkyoTaLTgbdcISbOu2K+S+6yxoTT/lIrNtXdZHfJ6z1/Pga/lxnanBSt1pl30UbChaUK8taXzXy6AZlKO/Rqm3TfPlBNLG3L/kXtkSsuXKodhl3H4Rw6DMd013YqWPq6IWdb8515FwXIwskS5K0rE+dtdZ5NqXrznN8F7rjzTbrYoVg71Ld+VnsY+VM2nFS/SwKkA7TjvLRPre4cDNf0T1UEn0pfcUNuV69JpaK51s3YtsEv6ffvJtTZoV6cWjYsmgM5XTZhgvzoU+nFz/NfeaWhp2qH2EXzEWjOnanimlnm3iZfHyBUheR0qiVudDYZXT9kcFGA1LemI1sh+l3FcOY6v35NZZFKtZ1+jm1o1KTzcMVcEfIz39LkWoBwBkhZQp3dEILr7qoxfQIjT7l1T6ZPVpGunQ0yPwfCCqyCqPpIGR4KDR1vq9DgJpA/N+ekuQcNeU0bZO7MWo2koGtX17DOY0cxlBEESOlUffic19CUVknpBkRolE1zDwp/fbkw2f9B+5WJrmENY3EtFeNaRhAghTpsed7jqb3ZMDzVPdUw0QcTNePUKqm2qluqkKJcy4j5Via1ZVrIT5vVh4Lju/9j9gYnPLpPlYAqgtv/YMzDX80qzth0LdPipBgrA+R231+dErTRlK4aHAwv9NO0IvlZO0HSdkWNxlYGCENYmdN49X7E6kPLbwkOVLkg+TjikluqkGKsDJA7fX91chdrbFpLKt/9bNbojuDAIhraeuuT2eq7GGJ+MEIw1zLiah/IYDgdvvp3Xue8vfxf4QNEN4S9zwgOrMcdWhZ6Ho7d6cX41mRkXpq5CoQJ9MzpE1ro8NDYNlUHNqEbvIY4NU8Wkq5tLSVG9q6yYtmBUsiQThsM7eDXfOJDM7p2LgNfO5xaWJZqgDCBnjG1oIjRcZWJSzR1+5vhK2Jd48yFZO8qKwiQQsR6U336o1eHGgHr0jzIyftxXi6GsbK3MECQqdgbB59/yKc+rE/Xo45PjnW4ldqpUBmXoRogbCLMlPoUxfbkvdlJcbczP1cEaWmOQh2gY5+MyFxI1q6yglVYBWjrzaQqZ/xTqhHUTc8xfzQb8myjRxbXYNZYhVWKWJPny+jvUjWim4X+bvSbhpJUmX550G6n3luROy4gDAIkc6neRLpZ6KYxZn6kl/ThQcHxx/+Z5tgA2WNMJHvVnehjY0wLo+3YRIyd501ow+HxP836IrHpsJvcuSAaMo09x7Gub/0D+5QydD4ZzYaxqgHCWeiZ0Zv580hLJX2o4aLCRIdK8eYu3/Rkwu08z01/9JvZAWbIizsbff5AKWSkjdVXTWh4S19PjDHPfm/MyXh2HjqVSTlcYLQ9x7YpDZ8SIPkiQDLmEyD/9/8Z85/+Y+3h4HSetjtTW00ZFSSqTDh8Ki+aDHeBsftmfpXGMhpK0/fOh5M8ESCZ8hlO0I18eoLgo3ZvFHqz6+uDe7N/1lCXgkShMv4Tw11tUneBaVhkEBg6kEoT4u6Dxqb0XqAKyRMBkimf6kMT3eM/z7rsth0iVW6o6yP7mIJtXPmiSglDn9AVGC402lxuexOFx7Ht2ts0QPQzESB5YhI9Uxc/bz42rRMFXcmvlTUx2074Uqhc/GVWoShU9H2PIx1YVDr9Lne+MwsKFxo5hUXVpW35ruFMY793XdNNP8ywGisvTKJnTDeGpuFx/ufr48V60+18MjsAyA0t5cQNe81/OtXPoe/dVSkaBpv+2fGqRb97dbmd/mkDQ3/mGhSLLDqgTL9LhUnTPSWqQlwYIR8ESIZ8doAfLznkR2c36OarIMl51Y3jKiZ34/xo7nkXMPpS9SK6YamakZd/zaeScUHg7NqfyQWFscFRysT2Kjo3/XDJ2ek+AaIhXQIkPwRIhnzmP1a9ydzqKB1MlWM1sonqkNw6Y+saUlkUKNUA2pSGkRZ1jVVg5DpkGIsWTOhDyqLX2Fl1bd6Etjp5ms6BDIbTXYXP+/5i5GIyavaN6FO5hqvW4XoclTQ0gvyoQ8Hhb5dXvvNOftJ8Mr06t4fkvjsZmQt6YWXG55PWJp/w9EbUKq17R7NPj8AmFBxaYbX1s/XDY3qNjmsPrW2XDzs5mbZ0nwbIZGQ8fq0IyedNctogCDSk5YLk6QY3AvSTqtwmwXF1vXl8WGEYKx8uM5gDyUzTN8nl3/xWKE03/P1hNgGq9hE6VrSEyXa0Qx8uFBi+q+BU+SqEmswRcfRyfgiQzDR9k/h8sqvSG/zQrqTRZL6CpOmYNcqmG7028IVumqlrtUmAbNulzewHyQcBkhFNbDddyhljf4RuHPpybb592lGgDAoNVRr6vceasNa12nQVoJZD08EgHwRIRnxK9FXLJ33pE9+xHcJQmGiYLdf239icOirrphwzNKp8rlXNERIg+SBAMuITIG29qdyOYrfiy/VfUpiwJLgMrmuyC422KaS0iqvJHNuifTdIhwDJSNMJ9JTLcF1zRNfsznV/1VBDSW3Du0zXh2teqa8c5hD0/RAg5SNAMtL0zZFT80F3k3L0M7lAybn5X1eU0vFYu/+bzKdx/eSFAMlI02WzOe/O1fd2rO+vsmeg2n5cwbL1ev9af/jSEJBeWwWE6wFW0tyAhtDm+5utiwOm8lENEI2GZnqIavflOoEew/SG92/18XfXidZtptRwWB/7SjkuJNzXeK5Dccl8AoAASe7qnVsNkJf9ex3yoRtnU02bAebGBeHVDXKuq6ubI3KtzqvdbHVTKWXjY7WxowsHY14FRPWxrvIKEDa4pnaVFQxhZcKnAunLxqqrs0HW+AQ+vyBhWYsYd96G7/c0z4WB04dQ2FTTHelMpOeDAMlE05sYjRAXm7+xL7vRI52mH3x8qnWEVe3GS0PFhPhUhb5pOndHT6zkrrKiGiDMgSTUNED4ZI1S6dRIFOkqKzgPBADQSDVALngJAbSlaQdpNhMmd5UVBEgmmr4pQrVxB4A1LQwQAADWxiosAMAm6quwJiNWYQEAVqtmxfwQ1ouV/08AQJ9dy4j5AGEiHQCwzLWMmA8QhrEAAMtcy4j5AGEiHQCwzLWMYAgrE5cNG8vRFwilWtYh+SY6JwXJrBzCIkASadpYzqcVOVAi2uInRYAAABpZHiCTEQFSGtrAo1Q6zAtlmc+IRa1MzmqPILqmQ1gECErVdPi16XsF3mrZsChAWMqbQNOzEZgDQamaXrucI5JMLRsWBQhLeRNoerxnkzOlgRw0vXabvlfgrZYNBEgmfMpyqhCUxmfolSGsZGrZsChAmEhPwKcsZzISpfEJEIawkqllQy1AJqN6yiA+n09VbCZEaXyuWSqQNBZlQy1ArNpsO+JrusOWlVgoTdNrll3oySzMhGUBUitVEF/THbZUIChN02uWXejJLMyEZQFSK1UQX9PSvOl56kAqTa/Z0z/UHkI7FmYCAZKR8Z+afy9UISiFz7VKBZLMwkxYGCCTkTmtPYjoLjzGdwkQlGL3e82/USbQ01iWCQsDxDqvPYKofMpznzcl0CZWYBVnaRasCpCFiYO4zhu+QQgQlKLptXr2de0htGNpFqwKkIVjXojrtOGb5M7rLOdF/nSN6lptguojmaVZsCpAlqYO4vGZSN/brj0EZMXnGmUFVjJLs2BpgNi+7y9qTyCqphWIYRgLBWACvTgvVp0TtTRArKWlC+LQMsWmu23vf7/2EJCVpteo3hMs4U1iZQbcFCBLSxfE41OqM4yFXPlcmydL1wEhspUZQIBkyOfNQoAgV8x/FGllBqwMENt98bL2BKKiAkEXESDFuVzUgbdqZYBYKxMI4enEtaZr3m+9RoggP/tvz67NJp79nlMIE7nx3r9OgJzUHkF0PsNY+z+oPQQktbfT/G+n+kjmxns/FUimfAJEK13YVIhc6Fr0WSHIBHoy/hUI+0HS0JLFpm1NDHMhyIiGr5rSe4Dlu0ms3P/hrFOBGIax0jj+qvlfe/DD2kNAEj5Dqj7vAXhZ656/boAwjJWAT+mufkNUIUhN12DT3leG4auU1rrnrxUgk9E0jVjO2zKV7lqB0hRVCFLzuQZ17TN8lcSlveffaN0KxFCFpHGychX2ajo2lP5YSEXXns9xyz7XPrysfa/fJECYB0lAY8CXHmvgfSYwAR8+1YeueeY/kln7Xk+AFMDnjfTgbZb0on2+S3cJj6TCB8hkZF7qULDaE4ju6Hd+f8PhO7WHgKh8rznfax6Nndl7/Vo2qUAMVUgavpPpqkJ8zqEGNqG5jwceQ6dMnie10T2eACmE7yeyox/XHgKioPooWrwAsTsTWZmdgPoB+exMZ0UW2uC78krXOL2vkjlfZ/d51aYViBzXHkErfD+ZHb9XewgIyvcao/pIauN7OwFSEK1MaXrcrbG709lciFh0bfnsOte1zeqrpOIHiJ2hf1Z7Aq04/K3f36Lx6dsNz2UAltGyXd+5D99rG16ebbL6ymlSgRgm09PxrUJ0qM/xg9rDgBct0mh6YJSh+shBo3u6T4DQGysR309q2uBFo0WEomvJZ9OgHPy69hDac9lqgNhShyokEX1Sa3rkraPJToay4EvXkO/Eua5luu4mddJk+Mp4VCCGyfS0Dr/w++sZykIIuoZ8hq5MgGsZ3hrfyxsHyGQ07djISYWJaK28z+50Y4eyaLaIpnTt+A5d6Rpm30dSL+y9vBGfCsRQhaSlcWOfTr3GTn7SbBGbUmsc3+4GunaZ+0jO6x5OgBRM/YJ8N15p+OHk/drDwFJu3sN36ErXLj2vkksXIHbbO3tCEtL4sc+yXtl+g13qWJ8qj23P5py6Zpn7SO7Zpq1L5vlWIHJUewSt2v+V/9+m7qnMh+AmukZ8Ou06Ia5ZePO+d3sHCJPp6WkS8vGX/t/Gk/do+47l1CjxSYBKVdcqE+fJeU2eOyEqEEMVkp42F/oOZcnpI0IEdbomQsyVTYeuaFmSgyD37FABcszO9LRe/i3MsMCt19hkiOtCTZobO3T10nPlILxdhloAFSRA2Jmeh1BDWZogVSVCiEDXgK4F30lzw9BVThrvPJ8XqgKRw9ojaJ3W1fscPOW4EEF/hQwPXZPs+chGsHt1sABhSW8+NP5CpigAAAuYSURBVEzgu8HQsLy390Is1zV2w+DeZ7WHkYb30t2qkBWIYTI9D+OAn/a0ZJMQ6R/9zkMs1zX2Aw0bBrMR9B4dNEDssrCz2hNonTr2hpgPMYRIr7gJ81DhoWuQTrvZOAuxdLcqdAVimAvJR6j5EGNDZPwhE+td5uY8QoWH2rQz75GV4PfmwWQyqT3o/R8dTsfY7tSeQOt0Uxj/1O+s6ioF0u6nLMXsmpAT5sbu99j5BddJRrRxcCv0txOjAjFUIfnQG3jvl2Em1U1ldRabDbtj542w4XFprznCIytR7slRKhBDFZIdtaH48iDcd6WbhCqRcaAhMqSh60I7zENsEnTuHbHfIzNRqg8TsQIxVCF50Rv6YcAGdrrhPP+QBowl0+9OHypChoeuMcIjO9HuxdEqEEMVkiXdNEI0xKt6+tVsspQhizJovkN7PEJNljsKD63+Q1aiVR8mcgViqELyozf408Bvct2INIbOyYb5c/MdocNDy3UJjyxFvQdHrUAMVUi2Qq71d9wRpdxI8qTqU5VHyCErYytQzvfIUtTqw7RQgch+7REkpzd86EpENyYNj538hP0iOdHvQr+TJ4E66lYRHlmLfu+NXoGYWRWi3Y93a08guRiViLHViG4s7EJOa287XCv2eYRH1rTrfDf2N9hGBWKYC8lXjErE2Grk8/epRlLRfJRe+88DL9F1NOdBeGStlXtuKxWImVUhOi/kfu0JZCHG6ixH1cjhF8Yc/a72FCI4+KExh+/ECQ7DaqsSqOPuXhvfZ5sBosmcP9aeQDZihoix7S322ScQjTYFargqVNuaRQiPInw3ZMv2VVoLEDMLEbUS/qD2BLIRY2fyPDXZU0VCkISh35kqjrtvxvs73Jke/M6y93gyMgF7TqzWdoDcNmaajLdqTyIb2iug8fOYn2SNnYRVkHBWRDOa51BwxFgEUaXKUb2taFuTPZ11vhXquNp1tBogZhYiSsdPa08gK27pZ8xPtY6CRMMifLpdjyoOzXPc/378v0vVIo0Ri/FoMmr3UL/WA8TMQmSsxq61J5AdbTz74F4735VuVppoZ+nvYpqj2v9BO6Fu7EorzvMoxvlkZHba/mZTBYjWJwc6Lw+xxdrBvIyGTI7/aVaV9H14S8NULjhiDyk67OEp0r3Qpw2uI0mAmFmIHKuNUu0JZGm6r+D9cGdGrOvZ7405Gfdv5Y9CY2+nnWGqKh0Ypsnyvgd3YZ5ORmk6fqQMECbUC9TmkFaVPhXrE7H76hrNOWluQzvH9dVWtVfFkFWRWp84r0oWIIYJ9WK1sd/gJqpMNOmuMCn107KqOoWFXs+2K40q9ucUrfWJ86qkAWLok1UsfWI+/Ls01cg83QB189MyU/dnjrQ8WmHh/kwZwI6qjsPfssqqUK30u1olhwDRyoHntSdQhByqkUW0oktBourE/dlWpaLKQl8KCvdnWyun1kXV0QlvTUbTFa3JJA8QMwsRNf76qPYEiqENbdqbkGLsfhOaJNanbX2N//Tq/3j69Wb/nd1KIOx8Z1aR6avtRQab0lySlkprAyeK9vFklL5JbRYBYtgb0gn6tK1J9pTj+ViOnf+dkWTPxyI5BQhDWR3RRm8mrI/eY52TfOjKySZADENZnaO9DJpoz21+pC80z6FluWwI7JQshq6crALEMJTVSQRJuxQcWllF2/XOyWboyskxQBjK6igFiSbac59oLpWGqlwLGHRSNkNXTnYBYhjK6rw2u8n2gTZVamUVcxydltXQlZNlgBg2GPaCVm0pSFSZ5L78NzdajqtKQ8HBqqrOS75hcJmcA0RH4I7pldUPqZoHlqavzSV7TL2udto6onZT2QaImYWIDob/vPYEOsv1h1KgMFcyo82PCgzNb9BypHfenYzMSa4/dNYBYmj73mu5NBtMoQvNIuEtWZv2dZUQIGr7fsrS3n5z7c5dy/OuLQnW0luFhUJDX1QavafdO7up2rSvK/sAMa+W9p4yHwLHNSl03W1L2/Xumj267sFUGai4tOGR1ZLdRYoIEDMLEZVyT2pPAJaCxHXAVbDoz9SViioLhYOCwnUGzrXdPLLxcDKaDt1nr5gAMbMQ0cEpH9SeAFZQqNz+pv3ztVf/22kSNC4YHIXCy7/aLr/2fxMUaODxZDQ9aK8IRQWIodUJgO7KrlXJTb5xw/M52rVjhADQFZf23laU4gLErkoo7oUGgBWyX3G1SIkViLGrEx7WngCA8jwsYcXVIkUGiJmFiFYpPK49AQDleFzKiqtFiptEnzcYTrf53689AQB5ezYZTds1FavYCqRi3+7aBIBSnNt7V9GKr0AMnXsBlCXrDrub6EIFYuwvguW9AHLn2pQUHx6mKwFiXq3MKr4kBNBp+6WuuFqkMwFiZiFywvJeAJl6mPPZHk10KkDMq+W9hAiAnBTTIHETnQsQ8ypEntaeAID2Pe1ieJiuBoiZhcg+IQIgsexPFfTR2QAxhAiAtDodHqbrAWIIEQBpdD48TFc2Eq5jMJweiXs3/+8UQOHOJqN+dAzvfAVSsUfLEwCRndt7TS/0JkAq54gQIgBiOC/1XI+m+lSBVEPkrPYkADT3rG/hYfo0BzJvMJyuy35QewIANtOLCfNFelWBVLE6C0AAvQ0P0+cAMYQIAD+9Dg/T9wAxhAiAZnofHoYAmbEXwqPaEwBQ95DwmOntJPoig+H0oniy4CkAMF3tqtsUFUiFvTDe5WRDAHN0T3iX8LiOCmSBwdDsGDNtfcIZ6wDcMbSdOUkwFCqQBeyFssOudaD3dA/YITwWI0CWsIfe79odpgD6x+0uv+B3vxhDWGsYDM2RMeaD7L9RAKE8nozMAa/magTImlihBfQGK63WRIBsgMl1oNOYLN8QcyAbsBfWFpPrQOfoPb1FeGyGCqQh5kWAzmC+oyEqkIbsBfeQTYdAsS7tfAfh0RAViCc7L6IJt+2ifxCgXzRktc+QlR8qEE/2Atyloy9QjKdMlodBBRLQYDg9TP+YVVpAli5t1XHCrycMKpCA7IW5w5nrQHbObEsSwiMgKpBIBkNzaIz5qJM/HFCWjyej6fsRgREgETHBDiTFRHlkBEgLqEaA1lF1tIAAaQnVCNAKqo4WESAtoxoBoqHqaBkBkoCtRtQK5W7vfnggPK2wOqDqaB8BktBgOG2hcMi+EaAR7es4nIymH8aQAAGS2GBobttq5EGvXwhgM09t1fGS1y0dAiQTg+G0HcoRk+zASuc2OE5X/UtoBwGSGYa1gIUYrsoQrUwyY98gOrTqcd9fC8B6bA97IjwyQwWSscFwGiR609zv+2uBXnpmh6su+PXniQApgJ0fOWTZL3rizA5XMc+ROQKkIDZItJv9Tt9fC3TSC7uLnOAoBAFSoMHQ7NuKhCBBF7ywFccxv82yECAFI0hQOIKjcARIBxAkKAzB0REESIcw2Y7MMTneMQRIB9kgOWD5LzKh5bhHBEf3ECAdZveRqCLZY2c7Wqad4ye24mAfR0cRID1gGzbu26qEeRLE9MJufj2m0WH3ESA9w/AWImGYqocIkJ6yw1v79ouqBE28sBtbjxmm6icCBK4q2WeuBGtwcxvHVBsgQHDFzpXs2S+GuFD1zAbHCXMbcAgQLFSZeN/nkKveOq8MUREaqCFAcCM7X+IqEzYpdttZpdJgXgMrESDYyNww1y5zJsXTnMYpw1NoggCBl8HwKkj2WM1VjBc2ME4no+mfQCMECIKxQ127VCfZqVYZpwxNIRQCBNEMhmbHBom+dqhQWqMKY2xDQ4Ex7snPjZYRIGhNpUJxwcLqrjDObGCMqTDQJgIESdlNjDv2a4tVXjdSWFy4wGAzH1IiQJAdO/S1VQmW2z0MFgXFy0plccFQFHJDgKAYdghs2Vdp8ysvbCVR+2IICqUgQNAZdo/Kjv15XNAYW8HsVH7O2xHmX85txeCMK//sQsLYYSf2WqATCBAAQCPf4GUDAGzMGPP/AVHTP8dmBKzyAAAAAElFTkSuQmCC;" vertex="1" parent="1">
          <mxGeometry x="415" y="400" width="40" height="40" as="geometry" />
        </mxCell>
        <mxCell id="BB8o8y4dJ1L9ylsIL_xW-21" value="User" style="text;html=1;align=center;verticalAlign=middle;resizable=0;points=[];autosize=1;" vertex="1" parent="1">
          <mxGeometry y="360" width="40" height="20" as="geometry" />
        </mxCell>
        <mxCell id="BB8o8y4dJ1L9ylsIL_xW-22" value="dns" style="text;html=1;align=center;verticalAlign=middle;resizable=0;points=[];autosize=1;" vertex="1" parent="1">
          <mxGeometry x="125" y="280" width="30" height="20" as="geometry" />
        </mxCell>
        <mxCell id="BB8o8y4dJ1L9ylsIL_xW-23" value="dns" style="text;html=1;align=center;verticalAlign=middle;resizable=0;points=[];autosize=1;" vertex="1" parent="1">
          <mxGeometry x="125" y="360" width="30" height="20" as="geometry" />
        </mxCell>
        <mxCell id="BB8o8y4dJ1L9ylsIL_xW-24" value="dns" style="text;html=1;align=center;verticalAlign=middle;resizable=0;points=[];autosize=1;" vertex="1" parent="1">
          <mxGeometry x="125" y="440" width="30" height="20" as="geometry" />
        </mxCell>
        <mxCell id="BB8o8y4dJ1L9ylsIL_xW-25" value="dashboard" style="text;html=1;align=center;verticalAlign=middle;resizable=0;points=[];autosize=1;" vertex="1" parent="1">
          <mxGeometry x="400" y="280" width="70" height="20" as="geometry" />
        </mxCell>
        <mxCell id="BB8o8y4dJ1L9ylsIL_xW-26" value="Turn" style="text;html=1;align=center;verticalAlign=middle;resizable=0;points=[];autosize=1;" vertex="1" parent="1">
          <mxGeometry x="415" y="360" width="40" height="20" as="geometry" />
        </mxCell>
        <mxCell id="BB8o8y4dJ1L9ylsIL_xW-27" value="SIEM" style="text;html=1;align=center;verticalAlign=middle;resizable=0;points=[];autosize=1;" vertex="1" parent="1">
          <mxGeometry x="415" y="440" width="40" height="20" as="geometry" />
        </mxCell>
        <mxCell id="BB8o8y4dJ1L9ylsIL_xW-33" style="edgeStyle=orthogonalEdgeStyle;rounded=0;orthogonalLoop=1;jettySize=auto;html=1;entryX=1;entryY=0.5;entryDx=0;entryDy=0;" edge="1" parent="1" source="BB8o8y4dJ1L9ylsIL_xW-32" target="BB8o8y4dJ1L9ylsIL_xW-13">
          <mxGeometry relative="1" as="geometry">
            <Array as="points">
              <mxPoint x="515" y="260" />
            </Array>
          </mxGeometry>
        </mxCell>
        <mxCell id="BB8o8y4dJ1L9ylsIL_xW-32" value="" style="shape=image;verticalLabelPosition=bottom;labelBackgroundColor=#ffffff;verticalAlign=top;aspect=fixed;imageAspect=0;image=data:image/png,iVBORw0KGgoAAAANSUhEUgAAAZAAAAGQCAYAAACAvzbMAAAACXBIWXMAAGl0AABpdAForRwYAAAZGElEQVR4nO3dP4xcx30H8KEkL+LLOSe7VGESUGubV9hdBLIyYMMA6S6AAuhUxXIjGjCQP42pJkaAAKEaK52OQAQ4lcnGAtSYB7mzAfPsWgDPhUpH52zWxkoWg0fOUst7u3u7b9+/efP5AIdY+0iG9/Z2vvzNb2behYcPHwYA2NQz7hgsNp5M94uvhReBoAJhMMaT6fMhhNmAfyl+FeZfn/335Zq/7+MQwkdz/31/7r8fxK9Hr+/ujD4q/W5IkAAhGePJ9NJcMFyKofB8/N8XE3snT2KofBTDZhYyD3Z3Rg9Kvxp6SIDQO3HaaBYQs5C4ktk7dTQXLvdjsNwv/SrokAChU+PJ9OpcUFzKMCg2dRQrlftxOuxeWn99hkSA0Jo4BTULjKsN9CFyVfRf7sVQuWcKjLYIEBoTp6KuzoVGan2KVJ3MwiQGiqkvGiFAqM1chXE9/t89d7cXTmOY3FGhUCcBwlbGk+n1udBQYaThZC5M7uR+M6hOgLCRuNfiuipjMOarkzv2qLAJAcK54tTULDSskhq2o7kwMdXFSgKEhWKlcRC/rJbKU7G667D4UpmwiADhiTPTU9fcGebcNc3FWQKE2Wa+gxgcehqschqD5NAmRgRIpmJfYzZFZfUUVZzMTXHpl2RIgGQmVhs3TFFRs2KK65aqJC8CJANzDfEbqg0aVlQltzTe8yBABixOU93U26ADs17JTdNbwyVABsg0FT1jemugBMiAxOC4abMfPXUUKxJBMhACZADGk+lBDA79DVJwEoPk0LuVNgGSMMFB4gRJ4gRIggQHAyNIEiVAEhJ7HIeCg4EqguRAjyQdz+R+A1JQBMd4Mi0+VL8QHgxY8bP9i+JnPf5jiZ5TgfRY3Mdxy3JcMlUs/71hH0l/CZAeijvHix7H67nfCwghvBl7JHa294wprJ4ZT6bFBsAHwgOeKD4LD+Jngx5RgfREnPO95eFNsNJxnNbSaO8BAdKxOF1VBMcrWd8I2MztGCSmtTpkCqtDc9NVwgM284ppre6pQDownkz3Y9XhzCrY3lGsRu67l+1SgbRsPJkWq6t+IzygNsVn6Tfxs0WLVCAtiVXHoSY5NOo47mZXjbRABdKCuapDeECzLqtG2qMCaZCqAzqlGmmYCqQhqg7onGqkYSqQmsXzqw41yaFXjmI14lytGqlAajSeTK+HEO4LD+id4jN5P35GqYkKpAZ2k0NS7GKviQDZkkY5JEmDvQamsLYQHy17T3hAcorP7L34GaYiAVLReDItpqzeDiHsJfkNAMVn9+34WaYCU1gbiv0OVQcMSzGldVVfZDMqkA3EfscD4QGDczme7rvvrV2fAFlTnCv9jSkrGKy9uPFQX2RNAmQNc/0OYPj0RdakB7JC7HcUS3SvLf9VwEDdjUt99UWWECBLxCNJ7uh3QNaK5vp1R6AsJkAWiI20e/odQAjhNK7QsunwDD2QM+JZOcIDmNmLmw6do3WGAJkTV1/8THgAZxRjws+s0HqaAInGk+kNK62Ac7wdx4rsBT2Qx8aT6aGTdIEN3N7dGWVfjWRfgQgPoIJX4tiRtawDRHgAW8g+RLINEOEB1CDrEMmuBxJ3l9/x2FmgRkdxw2FWu9azChBHsQMNyu5I+GymsIQH0LDZUw6fz+VG59QDca4V0LTLcazJQhYBEptceh5AG67k0lgffIBYbQV0IIvVWYMOEOEBdGjwITLYABEeQA8MOkQGGSDxsDPhAfTBK0M9xXdw+0DiG+VU3Z761/eezf0WdOI7X/k0fO0FB6d27NXdndGgqpFBBUh84MvPShfojS/8cOTN6MDf/FUI737/YyHSve/u7owGs8x3MFNY8TG02Z+OCYv88c8hfOsnnwu//fDCgqu06DCOVYMwiAAZT6aXPIYWVhMivTB7PO6lIXwzyQfI3OGIwgPOUYTI9376XDj90+pfR6OKserOEI48GUIFcuiIEljf7z68EL711ueESLcuD2HKPekAGU+mt0II10oXgJWESC9ci2NYspINkLhc9/XSBWAtQqQXXk95j0iSARJXMdjrAVsSIr3wdqors5ILkLnnegA1ECK9kORzRFKsQCzXhZoJkc7tpfgP46QCJDacrLiCBgiRzl1OrameTIBomkPzhEjnkmqqJxEgscGU9HI3SIUQ6dytVJrqvT9Mca5pbupqAKoepvjVFx6Gvc+XXs5eMcj/rqGjSYp7/u5rH7vv3TgOIVzd3Rl91Oe/ZAoB4sFQA1I1QH7+2ifhpRc/Lb2eu/c/eCZ8+63nGrsLQqRTt3d3Rr2ezur1FFY8nl14QEdMZ3XqlTgG9lZvAySeVul4duiYEOnUYZ9P7u1zBXJovwf0QxEi/3i3uakyltrr8z+kexkg48n0ZgjhSukC0Jl3fv3Mo6Pgad2VOCb2Tu8CJC5f+1HpAtA5IdKZH/VxaW8fKxB9D+gxIdKZ3o2NvQqQWKbZ7wE9J0Q6cblvU1m9CRBTV5AWIdKJXk1l9akCMXUFiREinejNWNmLADF1BekSIq3rzVRW5wFi6gq68fLX6zsaRoi0rhdTWX2oQJyyCx34z7/7RIikrfOxs9MAGU+mN2wYhO4IkaRdiWNoZzoLkHhMey93V0JOhEjSbnb5LPUu3+VbzrrqTnE4HswUIVIMB8XgX4fHf85z8c+lQXtxLO3k2PdOAmQ8mV51THu3fvlBMw8hIl1CJFnFse+Huzuje21/A11NYWmcQw81MZ31zq+SeHJ26joZU1t/Z2PTx54P6Km6Q+R7//2cEGne5S4a6q2+qxrnkAYhkqTWG+ptv6M3Nc4hDUIkOXtt/wO9tXczPpbx9dIFoLeESHJeb/MRuG2+kxrnkCAhkpzWxtpW3sW4bPda6QKQBCGSlGtxzG1cW++gxjkkrgiRr77wsLZvQog0qpUxt/F3Lyah865gAN597WMhkoYrbVQhbbxzHhQFA7H3eSGSkMbH3kbftfFkWpzPcrF0AUiWEEnGxTgGN6bpd0zvAwZIiCSj0TG4scMUVR/DVKzE+fKXqg8aP37v2dJrpGkWIsXJzr/7sJ7DOYsQCeGT8PI36lvxlblHVcjuzqiR6awmT+NVfQxQ8cF+6cXqH24BMixNhcje5z8J3/mKEKnJzab6IY3Ui6oPyEcT01n/8NPnwm9rCiSa64U0NeGo+oCM1B0if/xzCN/6yeeESH0aGZNrD5C49lj1AZkRIr12sYl9IU1UIKoPyJQQ6bXax+Zam+h2nUM6mnwu/l+PHn/937R0aWOzEHn3+x+Hr9XYZ8nQo93pdT76tu5VWK0/EQuoJqXn4guR2hRjdG0BUtsUVjyD3om7QCNMZ9XiWp3PC6mzB6L3ATRKiNSitrG6lgCJz+G9XroAUDMhsrXrdT07va4K5MCzzoG2zEKESvbimL21ugJE8xxoVREiVFbLmL11gNg4CJCcWjYW1lGBqD4A0rP12L1VgFi6C5CsrZf0bruRsNGnXeWgyd3AAOc42GZZrwDpWEq7gYHB2SpAKk9haZ4DJG+rZvo2PRDVB0D6Ko/llaaw7DyHfrj4xYfhn7/5l6Tfjd//4UJ459dNPduONTzamb67M/po05tVtQdy3c5z6N6Xv/Qw/EviAfL+B88IkG7txTF94+emV33XVB8Aw1FpTN84QOL0lb0fAMNxrcoBi1UqEM1zgOHZeGwXIACExgMkbnu/XLoAQOoub3q0yaYViOY5wHBtNMYLEABmmgmQ2KG/UroAwFBc2WQ11iYbCVUfPfLy1z99tImsqh+/92zutxBYbO1NhQIkUS9/49Pw0oufVv7LCxBgibUDZJMeyNaPPwSg99Ye69cKkPFk6uwrgDzsxTH/XOtWIKoPgHysNeavGyD6HwD5qKcCiTsTPXkQIB8X19mVvk4FYvoKID/njv3rBIjpK4D8nDv2q0AAWOTcsX/lRsLxZLpv+S7U751fPRNO/ufCxn/u3295AgFsoFjOu7+7M7q/7LesDBDVBzTjv379bPjlB5sHyEsvPhQgtKnIgKUBct4UlgAByNfKDDgvQPZLrwCQi5UZsDRA7P8AyN7K/SBLA8T0FQCrsmBVgKwsXQDIwtIsWBUgS1MHgGwszYJVAXK59AoAuVmaBQsDZDyZLk0cAPKyLBMWBsiqOS8AsrMwEwQIAOdZmAnLjjJZuu4XeNr7HzwT3t/wWJLf/2HzY0xCPENrk/9fxdEnL734ael12NDCTFgWIFdKrwALFQP6j997dtGl2r3z62WTBkt88y/hpRcXX4INLMyE0k9jPIEXAFZmQylAlpUqAGStlA2LAqSUMgBkr5QNAgSAdZSyYVGAPF96BYDclbJhUYAs7LYDkLVSNjwVIKvOfQcgb2cz4mwFIkAAWEaAAFCJAAGgkpUBUlqmBQDRygApLdMCgEUBcvYwRVNYsKGLX3wY/vbFhxv9pt99eCGc/qn08rm++sLDsPf59X998XeDGq0MkIvuNGzm5W98+uhrE99663PhlxseAV/4t2t/cTw7XXoqI55MYY0nU9NXAKw0nxXzPRANdADO8yQrFh1lAgDnmg8QDXQAzvMkKwQIAJtYGCAAsLb5ALEKC4DzWIUFQCVWYQGwHQECQCV6IABs4klWzJ+FddkthHa8+9rH7jSpepIVprAAqESAAFCJAAGgEgECQCUCBIBKBAgAlQgQACoRIABU8ihAxpOpgxQBWMt4Mn30TBAVCACbenScyaMA2d0Z3Xf7AFjHLDNUIABUIkAAqESAAFCJAAGgEgECQCUCBIBKBAgAlQgQACqZD5BjtxCAczzJivkA+Wj17wGAz7LCFBYAlQgQACqZDxAHKgJwnidZoQcCwCb0QADYznyAPHAvATjHk6wQIABsYmGAAMDarMICYBPlVVi7OyOrsABYaT4rzk5hnaz6jQBk7amMOBsgGukALPNURpwNENNYACzzVEacDRCNdACWeSojTGEBsK6VU1gCBIBlBAgAlSwPkN2dkQABYKGzGbHoKJOj0isA5K6UDYsCxFJeAM4qZcOiALGUF4CzStkgQABYRykbFgWIRjoAZ5WyoRQguzujUsoAkLdF2VAKkKjUbQcgWwszYVmAlEoVALK1MBOWBUipVAEgWwszQYAAcJ6FmbAwQHZ3RvdKLwKQpWWZsDBAouPSKwDkZmkWrAqQhYkDQFaWZsGqAFk45wVAVpZmwaoAWZo6AGRjaRYsDZB47vtJ6QIAuThZ9ZyopQESLS1dABi8lRlwXoAsLV0AGLyVGfBc6RUBQg99+63zflSBBqzMgJUVSDx98bR0AYChO110Au/aARKtTCAABuncsX+dALlTegWAoTt37FeBALDI9hWI/SAA2Vm5/2NmnQokmMYCyMpaY/66AWIaCyAfa435awXI7s7ojuW8AFk4jWP+udatQIIqBCALa4/1mwSIPgjA8K091gsQAObVHyC7O6OPQghHpQsADMVRHOvrDZBIFQIwXBuN8ZsecVr84f9RehXW9PPXPnGreuq3H14I/3T32Up/Oe/rYDQXIMXOxPFkehxCuFy6CGt46cVP3abe2nRC4jPe10E4Xmf3+bwqPzGHpVcASN3GY7sAASC0EiCxQ3+3dAGAVN3dZPXVTNVJT6uxAIaj0pi+TYA4GwsgfaetBkgsdVQhAOm7U2X6Kmy1bk8zHWAIKo/llQNkd2d0z5MKAZJ2EsfySrapQIIqBCBpW43hAgQgX90FSNz2bk8IQHrubnp0yVnbViCFW6VXAOi7rcfurQNEMx0gOVs1z2c2Pc59mVuOec9DceR3PYUrffP4vSUTtcwc1RUgRSPmZghhr3SFQan6vAigN07rWgBVyz8l7UwHSEblnedn1TkXcbP0CgB9U9tYXVuAWNIL0HtbL92dV3c31JJegP6qdYyuNUDisrCj0gUAunZUx9LdeU2sx9QLAeif2sfm2gPExkKA3qll4+BZTe0IU4UA9EcjY3IjAbK7MzpUhQD0wkkck2vX5JkUqhCA7jU2FjcWIKoQgM41Vn2EFk7FU4UAdKfRMbjRAFGFAHSm0eoj1Hga7yoHIYRfrLhOB/7336due0+9/8Ez4dtvVftoel+Zc9D0zWj8wQ52pwO0rvZd54u09WQgvRCA9rQy5rYSIDEJndQL0Ly7bVQfoeVnk94ovQJAsmNtawESz6B/s3QBgLq8WefzPs7TZgUS4rzcaelVALZ12na/udUAic/h1VAHqN/Nup51vq62K5AiRIonYh2XLgBQ1XEcW1vVeoBEGuoA9elkTO0kQOISs9ulCwBs6nZby3bP6qoCCTExNdQBqjvtckanswDRUAfYWuuN83ldViCzhrpzsgA2d9RF43xepwESaagDbK7zsbON49xX2t0Z3R9Ppm+EEH606tfxtN9+eKEn+U/dHr+3sNIbxdi56he04cLDhw978TaNJ9PiZlwuXRi4L/xwlNu3TIM8DyQLxZ6P/T58o336J2zjDz8BGIDejJW9CZBYjr1RugDATC+mrmZ6NYm+uzO66ZgTgIWO4xjZG33swprKAijr3djYuwAxlQVQ0qupq5lergONZZoNhgCPNwz28tSOPm8kOHBWFpC50z5P6/c2QOJjGfVDgJwdtPmI2k31eivz7s7ojmPfgUzdjmNgb6VwFsYNS3uBzByncE5g7wMkHlWsHwLk4jROXXV2TPu6kjiNLy5fc2ovkIMbfVyyu0gyx7nu7owOQwhvli4ADMebcaxLQm9O411Xrqf2AoPXm1N215XiAyWu6ocAA3Max7akJBcgsbGU3I0GWOFqCk3zs5J8pF1sML1augCQnldTaZqflewzUTXVgQFIqml+VnJN9LPGk2mxU/Na6QJAv93d3RldT/k9SrYCmXNgpzqQmOMhnPWXfAUSHlchl0IIxRziXukiQL8UK672+3xI4rqGUIHMTu61vBfou9O44ir58AhDCZDw2cosx78DfXaQ6oqrRQYTIOGz498t7wX66NW+H8++qUEFSPhsea8QAfrk1ZSX6y4zuAAJn4WIB1EBfXB7iOERhhog4XGIHAgRoGO341g0SIMNkCBEgG4NOjzC0AMkCBGgG4MPjzCUjYTrGE+m90IIV/r/NwUSd7S7M8rixPDBVyBzrjvyBGjYcRxrspBNgMw9R0SIAE04TvW5HlXlVIHMh8hR6SJAdXdzC4+QUw/krPFkWqzLfqV0AWAzWTTMF8mqAplndRZQg2zDI+QcIEGIANvJOjxC7gEShAhQTfbhEQTIY/EH4QelCwBlPxAej2XbRF9kPJkWPxRvL7gEEIZ6qm5VKpA58Qfju55sCJxRjAnfFR5PU4EsMJ5M90MI9zxjHZh7DO1gniRYFxXIAvEHZd+udcheMQbsC4/FBMgS8aH3V+MOUyA/s93lD7z3i5nCWsN4Mr0VQni9939RoC5v7u6MbribqwmQNVmhBdmw0mpNAmQDmuswaJrlG9ID2UD8wbqkuQ6DU3ymLwmPzQiQDRXHNe/ujIpK5M2k/uLAMkW/Yz+3o9jrIEAqig22V206hGSdxn6HZnlFeiBbin2RouF2OelvBPJSTFkdmLLajgpkS/EH8KoTfSEZtzXL66ECqdF4Mr0eqxGrtKB/TmPVccd7Uw8VSI3iD+a+Z65D7xzFI0mER40ESM2KYw92d0bFlNYbg/rGIF1vFJ9JR5LUzxRWgzTYoVMa5Q1TgTSo+MGNe0ZUI9CuN+LeDuHRIBVIS1Qj0ApVR4tUIC1RjUDjVB0tU4F0IFYjxRHxV7L75qF+xQqrG4KjfQKkQ+PJtDhC4aZ9I1BJsa/j5u7O6Jbb1w0B0rHxZPp8rEZeyfpGwGZux6rDAYgdEiA9MZ5Mr8Yg0WSH5Y5jcNxb+itojQDpGdNasJDpqh6yCqtn4gfkkueNwBNvxoc9CY+eUYH02HgyvRSnta7lfi/I0t04XeUIkp4SIAmI/ZGblv2SiaM4XaXP0XMCJCExSIrd7BdzvxcM0kncRS44EqEHkpDig7W7M7oUH6V7kvv9YDBO4qNlLwmPtKhAEjaeTA/i1JaKhBSdxKmqQ+9emgTIAAgSEiM4BkKADIhmOz2nOT4wAmSAYpDcsPyXniiW494SHMMjQAYs7iMpKpLrdrbTsmLn+J1YcdjHMVACJAPxwMaDWJXok9Ckk7j59dBBh8MnQDJjeouGmKbKkADJVJzeOohfqhKqOIkbWw9NU+VJgDCrSg70SljDrLdxqNpAgPBE7JVcj1+muJh3NwbHHb0NZgQIC8013g885Cpbx3NTVEKDEgHCuWK/ZFaZ2KQ4bEdzlYa+BisJEDZyZprrqp5J8oqexj3TU1QhQNjKeDKdBcl1q7mScRIDozjd+U7uN4PqBAi1iVNdV1UnvTNfZdwzNUVdBAiNGU+m+zFIiq99FUprigrjfgyNIjDuZ/J90zIBQmvmKpRZsFjdVY+jGBj3VRi0SYDQqbiJcT9+XbLK61xFWDyYBYbNfHRJgNA7cerr0lywPJ9hsBRB8dFcZfHAVBR9I0BIRpwCW/aVWn/lJFYSpS9TUKRCgDAYcY/Kfvx+ZkETYgWzP/d9Pt9A/+U4Vgwz9+f+exYSIU472WvBIAgQWCJOpQVTR7CYAAFgcyGE/wcLEKDZb3z6jQAAAABJRU5ErkJggg==;" vertex="1" parent="1">
          <mxGeometry x="495" y="280" width="40" height="40" as="geometry" />
        </mxCell>
        <mxCell id="BB8o8y4dJ1L9ylsIL_xW-35" value="RabbitMQ" style="text;html=1;align=center;verticalAlign=middle;resizable=0;points=[];autosize=1;" vertex="1" parent="1">
          <mxGeometry x="480" y="320" width="70" height="20" as="geometry" />
        </mxCell>
        <mxCell id="BB8o8y4dJ1L9ylsIL_xW-40" style="edgeStyle=orthogonalEdgeStyle;rounded=0;orthogonalLoop=1;jettySize=auto;html=1;entryX=0;entryY=0.5;entryDx=0;entryDy=0;" edge="1" parent="1" target="BB8o8y4dJ1L9ylsIL_xW-13">
          <mxGeometry relative="1" as="geometry">
            <mxPoint x="360" y="340" as="sourcePoint" />
            <Array as="points">
              <mxPoint x="390" y="340" />
              <mxPoint x="390" y="260" />
            </Array>
          </mxGeometry>
        </mxCell>
        <mxCell id="BB8o8y4dJ1L9ylsIL_xW-41" style="edgeStyle=orthogonalEdgeStyle;rounded=0;orthogonalLoop=1;jettySize=auto;html=1;entryX=0;entryY=0.5;entryDx=0;entryDy=0;" edge="1" parent="1" target="BB8o8y4dJ1L9ylsIL_xW-14">
          <mxGeometry relative="1" as="geometry">
            <mxPoint x="360" y="340" as="sourcePoint" />
          </mxGeometry>
        </mxCell>
        <mxCell id="BB8o8y4dJ1L9ylsIL_xW-42" style="edgeStyle=orthogonalEdgeStyle;rounded=0;orthogonalLoop=1;jettySize=auto;html=1;entryX=0;entryY=0.5;entryDx=0;entryDy=0;exitX=1;exitY=0.5;exitDx=0;exitDy=0;" edge="1" parent="1" source="BB8o8y4dJ1L9ylsIL_xW-43" target="BB8o8y4dJ1L9ylsIL_xW-15">
          <mxGeometry relative="1" as="geometry">
            <mxPoint x="360" y="340" as="sourcePoint" />
            <Array as="points">
              <mxPoint x="390" y="340" />
              <mxPoint x="390" y="420" />
            </Array>
          </mxGeometry>
        </mxCell>
        <mxCell id="BB8o8y4dJ1L9ylsIL_xW-44" style="edgeStyle=orthogonalEdgeStyle;rounded=0;orthogonalLoop=1;jettySize=auto;html=1;entryX=0;entryY=0.5;entryDx=0;entryDy=0;" edge="1" parent="1" source="BB8o8y4dJ1L9ylsIL_xW-38" target="BB8o8y4dJ1L9ylsIL_xW-43">
          <mxGeometry relative="1" as="geometry" />
        </mxCell>
        <mxCell id="BB8o8y4dJ1L9ylsIL_xW-38" value="" style="shape=image;verticalLabelPosition=bottom;labelBackgroundColor=#ffffff;verticalAlign=top;aspect=fixed;imageAspect=0;image=data:image/png,iVBORw0KGgoAAAANSUhEUgAAAZAAAAGQCAYAAACAvzbMAAAACXBIWXMAAGl0AABpdAForRwYAAAgAElEQVR4nO2dSYwc55mmf5LFnHYi0ZQNzEXCiDTkk2WRHEACxrIpsi/u8YaiL2MKJqDiSdtBtA6WlwGGwsCy5YOaAka0dGIJkCF6LmZBXtA+jEnR7T5YaJNafGi0YZYw1m1ksSeR7UkWycGb9QcVzMjMyvyXiD8ingcoSMzgEhGZ+b3x7dtu3LhhAAAAFmU7dwxgMv3BcL9+Jh4EAIMHAo2hPxjeZozJDP4e+yPyr2e/3hf4ui8ZYz7I/fpi7teX7c/o9V6380HhTwPUEAQEakN/MNyTE4Y9VhRus/+/u2bv5LoVlQ+s2GQic7nX7Vwu/G6ABEFAIDls2CgTiEwkDrbsnTqfE5eLVlguFn4XQIUgIFAp/cHwUE4o9rRQKBblvPVULtpw2Ll6nT40CQQESsOGoDLBOBQhD9FWlH85Z0XlHCEwKAsEBKJhQ1GHcqJRtzxFXVnPxMQKCqEviAICAsHIeRiH7X93cXeT4IoVk7N4KBASBAS86A+Gh3OigYdRD9ZzYnK27TcD3EFAYCFsr8VhvIzGkPdOztKjAouAgMCW2NBUJhpUSTWb8zkxIdQFM0FAYCLW01ixP1RLtRNVd63qB88EJoGAwE3GwlPL3BnIsUaYC8ZBQCBr5luxwkFOA2ZxxQrJKk2MgIC0FJvXyEJUVE+BC+u5EBf5khaCgLQM620cJ0QFgVGI6yReSbtAQFpALiF+HG8DIiOv5CSJ93aAgDQYG6Y6QW4DKiDLlZwgvNVcEJAGQpgKEoPwVkNBQBqEFY4TNPtBopy3HglC0hAQkAbQHwxXrHCQ34A6sG6FZJV3q94gIDUG4YCag5DUHASkhiAc0DAQkpqCgNQIm+NYRTigoUhIVsiR1Iftbb8BdUDC0R8M9aX6FeIBDUaf7V/ps24fliBx8EASxvZxnKQcF1qKyn+P00eSLghIgtjOceU4nmj7vQAwxjxvcyR0ticGIazE6A+GagC8jHgA3ETfhcv2uwEJgQeSCDbme5LlTQAzuWTDWiTaEwABqRgbrpJwPNTqGwGwGC9bISGsVSGEsCokF65CPAAW4yHCWtWDB1IB/cFwv/U6mFkF4M95641c5F6WCx5IyfQHQ1VX/Q7xAAiGvku/s98tKBE8kJKwXscqSXKAqFyy3ex4IyWAB1ICOa8D8QCIyz68kfLAA4kIXgdApeCNRAYPJBJ4HQCVgzcSGTyQwNj5VaskyQGS4rz1RpirFRA8kID0B8PDxpiLiAdAcug7edF+RyEQeCABoJscoFbQxR4IBMQTEuUAtYQEewAIYXlgV8ueQzwAaoe+s+fsdxgcQUAc6Q+GClmdNsbsquUFAIC+u6ftdxkcIIS1IDbfgdcB0CwU0jpEXmQx8EAWwOY7LiMeAI1jn53uu5+3dn4QkDmxsdLfEbICaCy7bOMheZE5QUDmIJfvAIDmQ15kTsiBzMDmO1Siuzz9dwFAQ1mzpb7kRaaAgEzBjiQ5S74DoNUouX6YESiTQUAmYBNp58h3AIAx5oqt0KLpcAxyIGPYWTmIBwBk7LJNh8zRGgMByWGrL36CeADAGLIJP6FC61YQEEt/MDxOpRUAbMFpaytajyEHskl/MFxlki4ALMDLvW6n9d5I6z0QxAMAHHjI2o5W02oBQTwAwIPWi0hrBQTxAIAAtFpEWpcDsd3lZ1k7CwABOW8bDlvVtd4qAWEUOwBEpHUj4VsTwkI8ACAy2ZbD29pyo9uUA2GuFQDEZp+1Na2gFQJik1zkPACgDA62JbHeeAGh2goAKqAV1VmNFhDEAwAqpPEi0lgBQTwAIAEaLSKNFBA77AzxAIAUeKipU3wb1wdi3yim6gJAahzrdTuN8kYaJSB24ctPCgcAANLgK71upzFlvo0RENbQAkANaNR63EYISH8w3GOMuYh4AEANkIjs73U7l+v+ZtU+iZ4bjoh4AEAdkK0624SRJ02owlplRAkA1Ix91nbVmloLSH8wPGmMWS4cAABIn2Vrw2pLbXMglOsCQEOobXlvLQXEVlz9rnAAAKCe/Mc6VmbVTkBs4ukySXMAaBCqzNpTt2VUdcyB0OsBAE1jl7VttaJWAmITTlRcAUAT2Ve3pHptQlgkzQGgJdQmqV4LAWFMCQC0iNqMO0k+hGWT5quIBwC0BNm61Tp0qtchB0LeAwDaxj5r+5Im6RAW49kBoOUkPf49WQFhwi4AQNqTe1MOYZH3AIC2syvloYtJCkh/MDxhjDlYOAAA0D4OWpuYHMmFsJhzBQAwkeTmZaXogTRq6TwAQCCSs41JCYh10yjZBQAosi+1UFYyISxCVwAAc5FMKCslD4TQFQDA1iRjK5MQEEJXAABzk0woq/IQFqErAAAnKg9lpeCB1HqpPMzPu+9vMxf+UMcdZgBJUrntrPTb3B8Mj9Mw2Hyu/Jsxz/xyh7n7mZ3mCz9cMkdOL43EBAC8OGhtaGVUFsJit3k7+NFvt5tvrC2Zf/1L8XK/9blr5vED18yujxQOwRa8+d4289Ta0s3f9NZ7CHIoDt9z3fyP/7JRl9OtdJf6UuGV8jiJeDQXhaqeWtsx07B975c7RgLz7PI186VPXS8ch8lIPD5/audEUQZ//vB/pn9mE2SXtaUrVZxaJSGs/mB4yBjzUOEA1B6FqyQcClXNEo+Md/+8zTy4umQ+/8OdhLXmAPGACTxkbWrpVJUDIXHeQH769nbzye92zKkLOxa+uF//YZv59HM7zQsOf7YtIB4wg0psaukCYpM+9Hw0CHkOSozLk/Axbvqz31zbMfJG3iSmfwuIB2zBvioS6qUm0UmcNw95DM/8/Y4ohk1J9m9/7lrh9baBeJTLZ++6YX7x6NU6nnrpCfWyPZATiEczUK5DnoI8hliGTUn2+59rd24E8YAF2GVtbGmUJiB2Re0ThQNQO7Jch/IWsVEivq25EcQDHHjC2tpSKNMDIXFec+R1hMh1LEo+N6JzaAOIB3hQmq0tRUBsidly4QDUBvV1KJz0s3eqG14gj0eejzygJoN4gCfLZZX1lvVNTHKfL8yHxpCor0M9G1UjoyoPSL0mTfRGEA8IRCk2N7qAWCVk3lUNUfJaXoeS2amhXpOmlfsiHhCQg2V4IWV4ICyKqiEKEyl5nfKMpbeswdU4lLqDeEAEotveqN+8/mCo+Sy7CwcgaRQeKjtR7orO8ZEfL5lHzizVNqSFeEAkdlsbHI2ojYT9wfAyAlIfRh3lq/PNsEqRe26/YV48smH23p7Gnv95CC0e/27JmPt21+f6U0SDPTUluiGs97qdaGW90QTEKt/pwgFIEoWsHj4T1+t4zI5uf+H1eM2Hf/1Xxrx0ZKMW031Di4eu/RePXa2VgEIpHOt1O1HCWTEFBO+jJqjKKmaiXJ6BRrYfuGvTqMvTefjHS1EbESVW+jdTBfGAEonmhUQRELyPeqCcgbyOmL0ds+ZZxZyjZexMozMrV5NbWIV4QAVE8UJiCQjeR+LIiCnxHCvfMW8+Inbe5c6P3jCvHksnL4J4QEVE8UKCC4itPf5V4QAkQ+x8h8JH8joWefKPGUaTkf3B8ob52n3V5kUQD6iYv+l1O+dCnkIMATlH42C6KGykuVIx0NP+i0c+zHUsigzsg6fjdbzPCqfFBvGABDjf63aCNhcGFRC8j7RRyOpHb8TJd3zx7uuj6ifffMPmStx45/m1e6+bZ5f9z3MREA9IiKBeSGgBOcvQxPTIdnfEyDPECg/FDLMpP6OFQWWICOIBibHW63YOhzqlYAJiZ9D/sXAAKiVmsjx2417MBHsZyXXEAxLl471u53KIUwsZJ2DibmJkBiyGAVYoSE/xMY3ZnR+7YX7z5NVRUj40yrPo3sQaxoh4QMIEs9VBPBB2naeHBgx+Yy18CKiqiqaYIa0Xvxr2ehAPSJxgu9NDeSAriEc6SDw0YDC0sR3lDh67Wkk5rEaT/OOTV0fnEBrdq1ATfREPqAG7rM32JpQHQuNgImiS7qkI+8NDVVn5ErNKS2E55XRcQTygRgRpLPQWEEp30yFWme73l68lN500Vj+LRETezoU/bDNvvrfdvPmnbbcIgoz63jtumL23XzcH7rpxc2hjU8VDq4wvRJxZliJ6X117mWqGd0lvCAGhdDcBYoiHjNiZYxvJfplk3I6crnZvie7Rf/7kdfOLd7ab//v/Coed/85UPI/YgzZTpMqG05LxLun1sji2dBfxqBCFdGREQ4uHcg3KOaT8JKZzi5UXmReJ1//8p2aKBzSeZWvDnfG1OlG3XcFssgbB0NN0le9Qia7KaFNH56hzVeip7iAeUAFeNhwBqSmxusvVc6GwVWoj0Gehc1Xy+1s1DjsgHlAR1QiITZ5TeVUBscRD/RApL2HaCsWtdQ11A/GACtltbbkTPh4I3kcFxBAPGbCfP1r9uPMQ6Br+4cmro2uqA4gHJICzLXcSENt5HmwgF8xHLPGQAWtS2eJe2/CoeVcpg3hAIhy2Nn1hXD2Qw3Sel0sM8VD10u+/M2ykAdM1/abiCq1ZIB6QELtcHQIfAYGSiCUeZY00rwpdm65Ru9FTAvGABClHQKyrQ+9HiRxZDSse2STdJotHRiYiD3wiDWONeECiLLuEsVw8EJLnJaIO818HHCWRzXtqg3jk+Q+3VW+wEQ9InIVtOwKSMKHHk/gOC6wzr70dZ0XuvOgRAPGAxIkrILbtfV/hAARHU3VDiocaBNsqHhp0WOW8LHFjlMtq11BCqB37Fh1tslR4ZTYkz0tAuylCjmQPvTCpbrz1pzQM97vvG2PuKrycNLs/eiO5IoTY7E68/DsysvEn5/0nEJDEyJZBhSIV8dDkXE12lRFVx3iZ57T+5zQEJJXzWAS9T21++GghCwnI3DESm6E/WDgAwVCoRWtoQ5GCeLz7/rZRLucLP9wsBtAucgmkypJj7SMHAGcOLlKNtUiQHe8jIjK0IRcSpSAe8jg+/dzOibkciclnnts5yvWozwUAkmFuW1/8Zk8HAYnEaKfHarjFSFWLh8JV9z+3c7SIaKtrUq7nk9/tmJ9WXCUFADeJIiDOExthNiEbBbV+tirx2NxXvmMUrlrkeiQyD64ujRZjxfBGUkmKtq33BmrL3LZ+LgHpD4bMvoqEDG6oRkH1eVS1uzzzOnyqx7QYK4Y3cufHCi9VAj0gUBN2WZu/JfN+U/E+IhCyXLfKJsHM63g3QJVR5o0o8R7KG0ll0nCTJh5D45nL5s8rIOQ/AqMKpFDlulWJh67B1+uYhhLv+rtDVWppTW+VVP3vAyxIGA/EdiayeTAgerJ+8HQY8dBU3SrE44ULO0ZVVKG3IuaRR6N/Q9Vcvnz5U9Ua8Ps/TvgKasXuebrS5/FACF8FRknzEOGebCR7mYwqxk4vmW+uhfc6pqFqLvWN+IS0VFhQ5YKpM/+0nXJlqBtb2v55BITwVUD0NB0iaT6a7FrySPYsZKVkd9nonvmGtNQBXxXy1J4K2CQKUAJb2n48kBJRpdL3AoRjsrHgZYqHEv5qdAzhObmShbR0Li7IC6lyrpPyOq7nDlABfh5IfzDcT/luGLLQTwheOrJRakmoKqKU8K96om2GzkXn5MJLX90YCXBVaFQNI1ygJuyyGjCVmQKC9xEO5T1CGGB1mX+ppISwRO/+KaNIqiar0lo0r3Dnx26MvLeqRESfgZAlygCRmakB227cmP4k2x8Mz7K+1h9VLIVIOpdZrqunZFWKVRmymgclxl89trhHpusLOXtsUbSf5dnl6nIy86KQ2ytvlFcwkQJH761umkOCrPW6nam5kK3iADPdF9gaGaoQ4lFmua5yNQq3pRKymoUETkJw5tjGQo16Ehx5IlWJpHpnvvSpG8k3F2oEfciVynXgwF2EGHPM1ICpsQn6P8LgGqvPk1VclYGeONVVHkM8dB0xSml1rjrnRRPUEpHfPHl15A1UQazZXwABmdkPMusbNzP2BVujkt0QjXZlVVzpfEMus8qjTuzff2cY1WDr3BdtOtR9VSjpnW9fHYUIy0TC93CABwyAyEzVglkCMtN1gdkodBWiZFfTdcuouJKnFOJ8x5HX8erKxijEJGOdGeyfPxqnGkrX4OL1KbmuEOH//u/DUaGCBG+at6TXdfyRz/oLjnpqGGUPiTNVC2Z906aqDmxNiNCVjFQZ03V1rjEqrdRzobJZGedxFPuXR6LqtNAx9s1rWXLKGUngFlnjun3bDu9ZYPJCdC8Y9w6JMlULZlmNfYVXYC5ChK70lPtSCUnzWOLxrc9dG+VtJolHhgymfs/3I1Qj6ZpCiPhWyJu6x9NDJJQFiTNVCyZajv5gOFVxYDZaTRsiFPSqDfnEIlaPh8JSCk8tMjZEXtY/PBm+N0PXVkai+syKfzhOoSxVvwGkyDRNmPaJnRrzgtk8HCAJraf3mHkPGVQNJww9SVdP4grFuJSm7rV/NvSoERlmXWtM5GWF8BYfOcN+eEiWiZqAgAREyVDfeL4MaOyhfyFX6GaogkkVVj5eUxbSCl0NpWuNHc7SdADf81Y/ygsRdqsABGCiJkwTkKl1vzCZbB+4DwqDKOkcExnS0ElrVS2FbHLU3/Vi4PtQRk7k2eWNqZVb86Lwp8KgAIkxUROmCcjBwiswEz05+nY0f/tvr81MOvsSOmGe5TtijH3Q3xk6LxJbRORBvXjE33sMEQYFCMxETShYk62mL0KREIlzha5iluyGFo977CiQmKM4snEjvlVOeWKLiO6Hb6OkPEQS6pAak7Rh0qd0oqsC0/FduRo7dCXvKLh4PHq1lAbHvfbfCi0iMfdyKIflG8pSQh0gMQraMOlRrKAyMB09Kfoa55ihKxnKkOtn1dyoiqMym96y5Lp6JUJtQ9wc2RIn/JaFsjSfy5UsoV5GI+ksDqgqrsJNjlVwoMKlY4kjbTibP8XCOHdGuC+GSkR9ktL32IF+MdA4FW3wC0WZ4+SnEToUpzxLLE/K91zlmdKhDglRGO0+6dN9W+EVmIi8D9+KplgGWXkZjTkPRQriYez9ClnmO1rTG6nqSVVZPkUA6lCnrBcSoqANkwRkYrYdivjmPpRsjfH0O1qfuxpuJHsq4pERUkR0j3SvYjTwyXNQeNKHF16nuRCSoaANtwjIrLnvcCu+3oeeTGM1DD61thSsUTA18cgIKSK6V7pnMVAOw6cAAC8EUmJcI8Y9EARkTny9Dz2Zxohth6y4SlU8MkKKiO5ZLEPtu7oWLwQSAgHxxdf7UIlnjOqaUOtzTQ3EIyOkiOjevRl4xIuxvSGqXnMFLwQSAgHxxdf78H0inYSeULXfOwR1EY+MkCLyYKTpvT/AC4FmMFNA6AHZAl/vQx3nGrwXGsXwfUepGNvnUSfxyNA5h5jkq3sYYzeH+nx8OtTlhbzyBl4IVM5MASmUacGt+HYwx0icawpwiLyHkr1lLLGKxZmVMB3rsdbM6r33Kes99TrjTaByZgoIIawZqF/Ax1DrCTn07CiFNUI8MSsvo27vOjetZR3rvmNEjF0zGzpkpPN7/AH3Bwh5RzFHsADMwUwB2c0dnM4rviNLIngfMnS+/R56Ko69AbEsdA26Ft8pvrHWzKp4wufcCGNBxdyiETctYn8wJHy1BUpkuhLD+1A+JsRsqB8sb5QyGLEs9gYKxcUIZfl6Icq/xagUA5iXvFbkvx0k0Geg0IHPk34M7yPExFYldmMMFKwaFSp8K8A915Kw0KEsXy/klMeDDEAAbmoFAdU58QkdKLEb2vtQKbFv1ZW8ohglxakg0fatzIqxZlZeyJc9KvFee3s7Jb2QBHkBIYE+BSXPfUp3QzcN6nx8wmnG5j1UtdR0dI2++ZAYa2Z9PFJ5wjGqxADm5KZWICBz8JpHnkEVQaFDRPI+fBPnZe/0qApd45lj/vmQbwTcqWJsX4hPdzrJdKiQiQICU/Cpvw8tHr6lxMbmPWI0M6ZKiDWzSqiHXjP7+APu74E84lhj6AHmJf+NoAprAqp48ck1HA24u8IEGKMijyjWFOCUCbFm1vfejyNh8zknH88YwAOqsObFp3FLIYqQq2pDeB9atdrGDXfZmlkf9NQf2gt5zMMLoakQKoIqrHnxSVYejZD78EGCFroarE6ECGWF9kKO3ut+PtpjQhgLqgQBmYFP+EqVPyHzDL7eh87HdyJsE/CdRxXaC5Fn5JNMJ4wFVUIOZAY+huLofWGN9QsX/AyFup9DhtPqigy2Ou99CB068vFUKeeFCpiYA9nHO3ErPl/OkNVXahp75bfuoZO2Js6noffGJ3ktTzBk6EieqqtXJI+IpkIomZtawePLFPSldG0elHEKOVtKQpbaGJW645tQ9x2sOY5PZ3roxD7AvPDJm4LPlzJ0j4XPKI0YjYxNQAl1nzEnocNYPp+ZCx5TEgB8QECm4POl/NKnwpbuvuUxfRXvYzo+90bFFSHzDz4CQh4EqoJP3hRcPRDFskOWyvokz/E+ZqP3yWeDYWjD7VqNJTGjnBeqAAGZgPIfrk/9ofssfIyUT5NaW/AZdPlaYAHxyYOwIwSqAAGZwJvvud8WHyMwjp4q/caoEL7aCp+KrNBTcQ945GTIg0AVICAT8Pky+hiBcXyaxL527/VWjixxwSfMF1JA1KfjKmY+Dz0ArvCpm4Br/kNf/pDNej7GqU3Tdn3xGXgZ+snf9QHEZ18NgCsjC9UfDBmkmOPNP7l9GX0SspPw6UNBQOZHou/63inEGDL/4JNDIw8CZdEfDEc7QfBAxlAC3bVp78AnwglISn0obcAnjBWyke+eO9w/Q285PvgAODAaZzL65Pe6nYvcwU18Yskhu89TycO0hS97DDQMabh9PkPrnjvyAeYl0ww8kDF8wgAhS3hdw2gGD8QJnzBW6NCRa4c8I02gbPjEjfHu+4WX5sJ32904rn0oPuM52o7rA4DPpIBJ7Hb8LDFUEcoGARnDNYR158cKL3nh2v/R5oVRvvj1YYQt53UhtJABbAUCMobrU1xIw+1jjMh/uOOTf3D1XCfh8x7ihUCZICBjuD7FpdK0t/d2PBBX9OTvupcjZAJ710fcBYSGQigTPm2BSKECS8aP7nM/9jqW0YYcZhjyswQQEwQkh0/oyOepMRSuxg8+xNWDC11C6+oJ0UwIZYKABCLkUyOjuasjmVCk48MAORAok7yAXOLOp4Hr0ywVWP64ltAyiwpaxE2tyAvIB23/BLi6/6F7QKA6Qpdjlw3eK5TATa0ghJXD1f2vu9GB9HD1JhlnAmWCgAAAgBN5AWGgIgAAbMVNrSAHAgAAi0AOBAAA/MgLyGXuZb3xGQEPm9BHAbAlN7UCAUkQ127oK39BQHyhlBtgSyYKCCSCazd0yImwsBiUckMboQorQZwFhB4Ab9jqB7AlxSqsXrdDFZYjoePmPnO1MIB+uHpxocfIkIuBVMlrxbi1WW/zu+ZquFNZaWo8RsHDptF29eJCD2F03evBPhiIzC0aMf4pbXUiPZVJrD6LjajEcsfHe0tlhwf7YCAyt2jE+DeGMJYjoYfYuY7z/tk7hLBc8fHeQj/5E8KCRLlFI8atTasT6T5GIPQQO5+Y+k/fRkRccL1vKuEN/eTvGhb1CX8CzMEtGkEIK4ePEQhdQusTEkFAFkf9H675j3sCh698vA/KiSEyM0NYrW8mdG0IS8kDeQ0BWZgf/db9nh34RFgBcU2gm0RWK0OjQUBm4foEFzp5LW/I9cn2X//iZxDbiI/XFrqE18ebTSWZD41luoD0up3WC4hrHiR0Ka/42n3uhumFCzsKr8FkJLau4St5rKGNtus4FdfKPYB5GdeISY9d5wuvtAifLvDQlTNfvttdQCRoNBXOxytvuIvtlz4Vvu/CuQfEsXIPYE4K2jDpk9rqUt4Dd7l/CX1i15NQP4hPgvaZX+KFbIVE9tce5bs+XuI0XMOhNBFCZAraMMniUcrrSIwucB8DJcOIFzIbH5GNFb5SDsvpfKjAgrgUtGGSdSn8pjahEJZrLDmGsfYJY4mn1vBCpqHcR2rex1sexRgk0CEyBW2YZPFan0h3rarxMUbTUBjri565EBLqRZSv8g3xHb03vID4PISErgYDGKOgDUvjL/S6nYv9wbDwJ9uEkpE/e8ftgmUAQn+RH3/guteIkmf+fsfIk5EYgb0nv9zhNf7+iwHu55u20OHCv2wbCb3P+YRuZgQYR9ow/to0q1TItrcJn0T6T98O74VIkD7rcU6KqT/848KzQmuR0T7l6ZVJ1F1R6Oz+53aazzy303xzbcfo4cB3lwveB0RmoiZME5CCq9ImUpxDdfTea4XXFkHhNaqyNkNXR077ianE3OUzIuG6+7s7zSM/XgreN+Tz0AMwBxM1YZq1K7gqbcP1iV9PkqEn8xqbsPUNU3zvlztaX5X1+R/udK5yyvj25xYXcxUzfOGHS9G2RuKBQGQmasI0azLxN7cJnwaxV96Ydlv9eHbZzwsRevp27XSuO4+c8X/yX9T7kMcj0fINmc1CDxbsAYHITNSEiZau1+2cK7zYMnye6GLNofLNhRibD3nw9FLr9k3IA/hRAGF/dnmj8NosJB4xqvPy/Pse4SuIyzRNmPWNulR4pUWopt51Mq/CFLGe8l/66mIGbBI6Pxm2toiIBD2EB/DYgWsL9VqE8Hjm4X/983ZG+ENMpmrBrE/dRMVpEz5hrFOvxwlZqHT0Ww4x+HFk2NogIuqBeSRABZqaSxfJfcigh/B45uXhM0tRcm8As7Rg1id8YsyrTfh0GmsnRyzj/PiBa87eUR6JiMpJm5oTkQfwzUCd+C8d2Zg7z6D3XQa9TBSa/AZTByAOU7VgloBMVZ224BPG0hc6VlhBhuzVY/6hLJOFs07tbFR1VlaqG8oDUNPgIt6ovB7fSi8X1E/S9io7iMJULdh248Z0A9kfDFX7u7twoEUo+eoaP5f4vPOdq4XXQ6G+ju8F7O1QaMylRDUl5E2FzD3oPfzNk1cXqnK64792KhEQYyuyYoyYbxMHHAIzVRgAABH+SURBVPt8Gsp6r9vZM+3StvKzL7ZdQBTGchUQPd0rgRtj6J6x/Qi+48jzZH0iStTXceyJnvxDhawy5OktIh7yOqsSD2PDkm+9RyjLi89dMwfuqvH5h2Vq+MpsEcIys1yXtqAwlk8Dn8+yonk4s3I1SD4kQ2L06ed21moA45u2ICC0eLz41Y2FJ9xSDQUNY6YGICBzoKS1K7F3cmT5kJDrTPUELWMso5xyTF25DoUYNVMqdK/F1+697uQ5xtgJA1AhMzVgpnWw0xevFA60DMWUfQx07BlUekpWlVBoZJQ1fkMJ6ZRKRLNR7J/8bidKh7fE40XH+xlrVAlABVyZNIE3z0wBscxUoDagp/wveyQmZYhjdadnSOReDNBkOAlV99z9zM7KPRKJmDwOCYfyNTFyDQpXLtptntHWETHQWLa0/fNYg7OFV1qIb3VSGZNwFXKJJSIm55Foouxon0YJXom8DYmvxEsidipiiazE4xePLlZxlefKvyEg0Ci2tP3zdDu13gMxuc2AroudFNqQ0Y1dJrsZt98I0n09DV3L92wJsRL48n6y0scQQ/1GS5Zs7ij2HKkMX/EAaCBb2v4trUyv27ncHwzX217OawJsBnzh9R2jNaixS2TLEJEMiYm8glMXNl+QoMgYa6ujjHG+imnv7ZsCo1BP9rQuD0O/ljez/udtpQlGHg2oVDUb4gFwE/V/TNwBkmdeCyNX5onCqy0jm4brauSycRNnAnWRz0IisusjG6ORGmX2JYz2ofx5m/NK4LLxSZiPQ/MZNIi5UhfzPk4TxrL4hqDkwZTVK6DQ0i8euxq0xLdJfH/5WjDxyAjZkwNQIXPZ/LksWa/bOUs57yYhdnLIKyhrCq5CSL//ztD7nJuEBPXVlQ2v/p5psFoWGsAVa/O3ZJFHYbwQi2uZZ4ZCSmVOa1VsXwniEGPg646E9B+fvBptXhRhLGgAc9v6RQSEcl6LnuoVO/dBoazYvSHjKPz280c3WhtmkYBKSGMWMfg2nQIkwNy2fuY03jz9wfA2Y8yfCwdaiqqGNDPKJ0EtQ6McxaLzlnzJOrlj7ulOCXkd8hrLus+hpyQvAvvR/Tl677VoA1Brwkd73c4H85zq3AJiNkVErs3BwoGWEsJQVNl/oPLZp9aWKimdLQMJ9A+WN0o3BhJodcuXPZVXQqnPEoAH53vdzqF5//iiMRTCWDkUEvINB71ljXgV7LXipe71JoW1JBwKV6l4oIonST0MrPyncvNNuuYQ+/Kh9Sxk4xEQT1484m8otDmvyvHpMrJafFV3IckLh8S9qlCOPJBf/XO5+S15WnXc4QLJsZCNXyiEZTbDWJrOuK9woMX4bC3Mo9LSFLbJKbmvPSZ1CW1J9B574Poodp1C/F9zu8q8dyGbIaHVXOp1O/sXuQEuAnLcGPN3hQMtRk+c9z+303uUd1VJ9WkoRzISk99Ws+N7KzSb7Oh9i+0rj43W6YbaxT4PiAcE5Ou9bufkIn+di4BQjTUBDf7TpFpfUhORDHXP6+e1ile2SjQ0Wl+ikVq1UdnVV+qkj9EMCa1l7uqrjIUFxGyKiOJky4UDLSdUKEsioma3VGPa8kxGE3P/ZfO/MQXls3bKbzbtN1XkqZUxvNLYyj15Hak9ZECtWet1O4cXvQBXAVkxxpwuHIBRKOutAIuF6jReXD0xEpX8VN13359/O58EczS99682p/ju1kTfO27UxkCWJR76TMjjaHmPAsThWK/bWV30b3YVEIWxNOp3V+Fgy5ER/fwpvwbDjCbtqNgc276ZG5BANKViKKZ4ZMIqz0shOzwOiITmHO5ZNHxlXAXEbIqI1OqhwgEY5QoeXA1jVFLNiUBY8WChFVTIy71uZ8Xln/cpF1nY3WkLelp8LFByU56MPBr2baeF8l2hxEMPCcppIB5QEc623NkDMZteyGU2FU4nZD/AqNP4SBp9Im0ndKluKv0/0Eq0eXCP64X7CsgJY8x/KxyAEYr7S0RCJNUz1C1OErUaYryfqZfiZvvp20TqFX+BebrX7Zxw/St9BUTK9cfCAbhJiKm949A8Vj4KIT54esm7WTRPHd7HKicLV4XG4fhuHq0RH59n9/k0vPxw+w+vFQ7ATVRtFHqtrMIno87398mLlIGS5cpDhRQPNUTyEAAVs+YjHsZXQCwLtb63EVVQnTkW1lgojCLPpqz96m1EISvlO5QsD+lBquLqJcQDqsfbdntbn163ox0h64UDcAuKqb4YeNy2jJrKhVURVNaO9bagkJW8vNBzrSjXhURYt7bbi1DfDryQOVDyO7SICI1PkbFTwhP8Udz/MwGGY46DeEBCBLHZoSzOqu1mhC2IJSIydhrmiDfijgT47u/ujJI0RjwgIa6E6uMLIiC2BZ5lU3MSS0SM9Ua0TlWJX5iPLNchAQ7tdRjEA9LjrMvYkkmEtDLOtcRtRCLy80c3glZnZSg3osSvehYIa81G4aqR4Eba4YF4QIIEs9XBvjWU9C6OEuuhS3zzqAteT9VH1L9Aye8tyEPLwlWxxtGrzwPxgMTwLt3NE/qxi2T6gqjEVyJyT8RhiT97Z7u5+5mdozBN24UkEw55aDHCVRlZkyDiAYkR1EYHFRBbFna+cABmsteGObQ8KSYK00hI5JG0KbSlHMcLF3aUIhzGjpuhSRAS5HyI0t08MRYZKL72q8KrMBM9qUpEytipLY9EP9mCohTXw4ZAvRynXt9R2hpehSLVMNqiOUpQL4LnqYMLiBSuPxiuM6XXDT25Hrhru/nGWtju50mom11P5H+9ZkZ7xpXYr7vxk7fxyhs7RqGqkEMPt0JifGZlozGLsqBxBGkcHCfWHs4TrLx1R4b8njs2vZEyjKCESl6Pfu786I2RR6JzqMsSK+V1NDFWnoY8q7LR7pdnl5s5fE/bI2OHVlND19xAolTJek3jnQW7QvzR0/RTa/FDWtNQSEaeibwSjbhO6ek6GzOuWWBlehp52NECNcFr58csYgrICl5IGGQkHz4TP6S1FfJOJCT33HFj5J2UFe5SLiPzMrRXPdSSLh/0VH5mhRJdqAXHet1OlA2y0QTE4IUERd6IRKSKEM0sJCp3fszcFJMDNtyx6yM35g6BSRzWbWWUxELX+uaftpkrf9mWhFjkkdfx7b9NewkUQI5o3ocpQUDwQgIjb0TzrmKXokIR7fD4wfI1EuVQJ6J5Hya2gBi8kCjoCV0jODT3CuIjL0tJcnIdUDOieh+mJAE5RF9IHBT6efjHS8mFeZqCwlWPP9Cq9abQLP4mRulunugCYjZFRBdxsHAAgqCKpEfOENYKiUaRPLvMKBKoLeo6PxT75MsSELyQElDznEJbCIk7Eg55HOQ5oOZE9z5MWQJiNkVE+0KWCwcgOAjJ4iAc0CA0cfdwGZdTpoAomfPHwgGIhiq2NESQHMlklOM4ep9Kcq8jHNAkPh5yZPssShMQsykiGiX8ROEARCUbKlhVR3tqqKrqsQeum6P3XiPHAU3j+V63c7ysaypbQG4zxkgZdxUOQnRU/pt5JVWN/6iKbCxLEwZGAkxBu873hFpXOw+lCojZFBGp498VDkCpqAT4hQvbR4LS5FyJmv8kHE0dWQ+Q4+u9bqfUpX6lC4jZFJGLxph9hQNQCQpxSUiqHEwYivwASEQDWsSlXrezv+zLrUpAKOtNlCzMlU27rYN3osGGmWDUZQQ9QGBKKdsdpxIBMZsiovksDxUOQFIo1CUPRT8SFQ05rHIqsBY3SSQ0EViigWAAmJd73c5KFbehSgEhoV5TRtNy39t+c3Jutl89lLhIJBR62nv7dfvfzV0kiAVAgdIT53kqExBDQr3RZKIyL5lYAMBClJ44z1OpgBjmZAEAuFLKvKtZpNBZVlrTCwBAg6jcdlYuIL1uRyW9TxcOAADANJ62trNSKg9hZdAbAgAwF5X0fEwipeFIlZShAQDUjGRsZTICQigLAGBLkghdZSQTwsoglAUAMJFkQlcZKc73JpQFAFAkOduYnIAQygIAKJBU6CojuRBWBg2GAAAjKm8YnEbKK+pW7JwXAIC2ciXlsH6yAmJ3+pIPAYA2s1LWfnMXkl6S3et2zmpUceEAAEDzednawGRJNgeSYce+n6O0FwBaxCVjzKGqxrTPS9IeiNn0Qj4gHwIALeKKDV0lLR6mDgJiPiztZWovALSB4ymW7E6iFgJiNkVEK3CfLxwAAGgOz1tbVwuSz4GMw6gTAGgoyY0q2YraeCA5DpEPAYCGccXatlpROwGxiaXa3WgAgBkkX3E1iTp6IFlS/VjhAABA/ThWl6T5OLUUEENSHQCaQa2S5uPULok+Tn8wVKfmcuEAAEDarPW6ncN1fo9q64HkWLFdmwAAdeFSE2b91d4DMZteyB5jjGKIuwoHAQDSQhVX+1MekjgvTfBAssm9lPcCQOpcsRVXtRcP0xQBMR9WZjH+HQBSZqWuFVeTaIyAmA/Hv1PeCwApciz18eyL0igBMR+W9yIiAJASx+pcrjuNxgmI+VBEWEQFACnwchPFwzRVQMymiKwgIgBQMS9bW9RIGisgBhEBgGpptHiYpguIQUQAoBoaLx6mKY2E89AfDLVX/WD6ZwoANed8r9tpxcTwxnsgOQ4z8gQAInPJ2ppW0BoBye0RQUQAIAaX6rrXw5U2eSB5ETlfOAgA4M5a28TDtCkHMk5/MFRd9kOFAwAAi9GKhPkkWuWB5KE6CwAC0FrxMG0WEIOIAIAfrRYP03YBMYgIALjRevEwCMgm9oPw9cIBAIAiX0c8NmltEn0S/cFQH4rTEw4BAJimTtV1BQ8kh/1gfIXNhgAwhmzCVxCPW8EDmUB/MNxvjDnHjnUAyK2hbcwmwVDggUzAflD207UO0HpkA/YjHpNBQKZgl94fsh2mANA+su7yy7z3kyGENQf9wfCkMeaJ5E8UAELxfK/bOc7dnA0CMidUaAG0Biqt5gQBWQCS6wCNhmT5gpADWQD7wdpDch2gceg7vQfxWAwEZEE0rrnX7cgTeb5WJw4A01C+Y3/bRrGHAAFxxCbYjtF0CFBbrth8B8lyR8iBeGLzIkq47av1hQC0C4WsVghZ+YEH4on9AB5ioi9AbXiZZHkY8EAC0h8MD1tvhCotgPS4Yr2Os7w3YcADCYj9YO5n5zpAcpy3I0kQj4AgIIHR2INet6OQ1tONujCA+vK0vpOMJAkPIayIkGAHqBQS5ZHBA4mIPri2ZwRvBKBcnra9HYhHRPBASgJvBKAU8DpKBA+kJPBGAKKD11EyeCAVYL0RjYg/2LqLBwiPKqyOIxzlg4BUSH8w1AiFE/SNADihvo4TvW7nJLevGhCQiukPhrdZb+ShVt8IgMV42XodDECsEAQkEfqD4SErJCTZAaZzyQrHuam/A0oDAUkMwloAEyFclSBUYSWG/YLsYd8IwE2et8ueEI/EwANJmP5guMeGtZbbfi+glazZcBUjSBIFAakBNj9ygrJfaAnnbbiKPEfiICA1wgqJutl3t/1eQCNZt13kCEdNIAdSI/TF6nU7e+wq3fW23w9oDOt2tewexKNe4IHUmP5guGJDW3gkUEfWbahqlXevniAgDQAhgZqBcDQEBKRBkGyHxCE53jAQkAZiheQ45b+QCCrHPYlwNA8EpMHYPhJ5JIfpbIeSUef4Wetx0MfRUBCQFmAHNq5Yr4Q8CcRk3Ta/rjLosPkgIC2D8BZEgjBVC0FAWooNb63YH7wScGHdNrauEqZqJwgIZF7JCrkSmIMst7GKtwEICNzE5koO2x9CXJBnzQrHWXIbkIGAwERyifcVlly1lku5EBWiAQUQENgSmy/JPBOaFJvN+ZynQV4DZoKAwEKMhbkOkTOpPcppnCM8BS4gIOBFfzDMhOQw1Vy1Yd0KhqY7n237zQB3EBAIhg11HcI7SY68l3GO0BSEAgGBaPQHw/1WSPSzHw+lNORhXLSiIcG42JLrhpJBQKA0ch5KJixUd4XhvBWMi3gYUCYICFSKbWLcb3/2UOW1JRKLy5lg0MwHVYKAQHLY0NeenLDc1kJhkVB8kPMsLhOKgtRAQKA22BDYtJ+65VfWrSdR+CEEBXUBAYHGYHtU9tvryYTGWA9mf+46b4uQf7lkPYaMi7lfZyJhbNiJXgtoBAgIwBRsKM0QOgKYDAICAACLY4z5/zCarEKBUpDZAAAAAElFTkSuQmCC;" vertex="1" parent="1">
          <mxGeometry x="220" y="320" width="40" height="40" as="geometry" />
        </mxCell>
        <mxCell id="BB8o8y4dJ1L9ylsIL_xW-39" value="Guardian dns" style="text;html=1;align=center;verticalAlign=middle;resizable=0;points=[];autosize=1;" vertex="1" parent="1">
          <mxGeometry x="195" y="360" width="90" height="20" as="geometry" />
        </mxCell>
        <mxCell id="BB8o8y4dJ1L9ylsIL_xW-43" value="" style="shape=image;verticalLabelPosition=bottom;labelBackgroundColor=#ffffff;verticalAlign=top;aspect=fixed;imageAspect=0;image=data:image/png,iVBORw0KGgoAAAANSUhEUgAAAZAAAAGQCAYAAACAvzbMAAAACXBIWXMAAGl0AABpdAForRwYAAAfsklEQVR4nO3dP2wc55nH8WeDNKmo2K0DMUVShnSXVKTT6gDRQNJGqyrBNqZwXe4OonCHtKaaRa4S6TYBTAFRG5NV0olMmRQhEbf2kZXLPTy779CjndndmXnfeef98/0AhK0dabk7JN8fn/fvaDabCQAAbX2HOwbUG01kdzSR7dqLAIQKBMkYTeSBiOya97NtPlT58eLPO47f95WI3Jb+fFn687X5mD8+m77z94BoESCIhqkGyh+7Jgz0/x9G9pW8MaFya8KmCJnr2fQ+bICgESAIjnYdybcBUYTEXmZfqYtSuFyaYLms/C1gQAQIBjWayH4pKLYzDIq2Lkylcmm6w87jevlICQECb0wXVBEY+z2MQ+RKx1/OTaic0wUGXwgQ9MZ0Re2XQiO2cYpY3RRhYgKFri/0ggCBM6UK48D8d4u7G4Q7EyZnVChwiQCBldHkPiwOqDCicVMKk7Pcbwa6I0DQillrcUCVkYxydXLGGhW0QYBgI9M1VYQGs6TSdlEKE7q6sBYBglqm0hibD2ZL5Ulnd53oB5UJ6hAguLfUPfWYO4OS13RzYRkBgmIx39gEB2MaWOfOBMkJixhBgGTKjGsUXVTMnkIXN6UuLsZLMkSAZMZUG4d0UcEx7eI6pirJCwGSgdKA+CHVBnqmVckxA+95IEASZrqpjhjbwACKsZIjurfSRYAkiG4qBIburUQRIAkxwXHEYj8E6sJUJARJIgiQBIwm8/GNI8Y3EIkbEyQnfMHiRoBEjOBA5AiSyBEgESI4kBiCJFIESETMGMcJwYFEaZCMGSOJBwESAQbHkRkG2yNBgATMrOM4ZjouMqXTfw9ZRxIuAiRAZuW4Vhyf5H4vABF5aSoSVrYH5ju534DQjCbzBYDXhAdwT38Wrs3PBgJCBRIIM85xzOFNwFpXpluL8ZEAECADM91VGhxPsr4RQDunJkjo1hoQXVgDKnVXER5AO0/o1hoeFcgARhPZNVUH03IBexemGrnkXvpFBeLZaDKfXfWW8ACc0Z+lt+ZnCx5RgXhiqo4TBsmBXl2Z1exUIx5QgXhQqjoID6BfO1Qj/lCB9IiqAxgU1UjPqEB6QtUBDI5qpGdUII6Z/atOGCQHgnJhqhH21XKICsSh0UQOROblMuEBhEV/Ji/NzygcoQJxgNXkQFRYxe4IAWKJgXIgSgywO0AXlgVztOw54QFER39mz83PMDoiQDoaTeZdVq9EZCvKNwBAf3ZfmZ9ldEAXVktmvIOqA0iLdmntMy7SDhVIC2a845rwAJKzY3b33eVL2xwB0pDpK31LlxWQrC2z8JBxkYYIkAZK4x0A0se4SEOMgaxhxjt0iu7j1X8LQKJem6m+jIusQICsYLYkOWO8A8iaDq4fsAVKPQKkhhlIO2e8A4CI3JkZWiw6XMIYyBKzVw7hAaCwZRYdso/WEgKkxMy++JzwALBE24TPmaH1LgLEGE3kkJlWADZ4ZdqK7AljIAujyXymFTvpAmjqdDalGsm+AiE8AHTwxLQdWcs6QAgPABayD5FsA4TwAOBA1iGS3RiIWV1+xrGzABy6MAsOs1q1nlWAsBU7gB5ltyV8Nl1YhAeAnhWnHD7I5UbnNAbCvlYA+rZj2posZBEgZpCLMQ8APuzlMrCefIAw2wrAALKYnZV0gBAeAAaUfIgkGyCEB4AAJB0iSQaI2eyM8AAQgiep7uKb3DoQ84ViV10AoXk6m6ZVjSQVIObAl88rFwAgDB/PpulM800mQDiGFkAEkjoeN4kAGU1kW2T+BSE8AIROQ2R3NpXr2L9S0Q+ilzZHJDwAxEDbqrMUtjxJYRbWCVuUAIjMjmm7ohZ1gIwmciwijysXAAf2fyxywK8m6M9j04ZFK9oxEKbrok/HvxT55KPFJzj9q8jhH0Ruv+GWoxfRTu+NMkDMjKu3lQuApd0PRE5+JbLzwbvPc/WlyPgzkcsvucPoxYcxzsyKLkDMwNM1g+Zw7fDnIkePRLa+V//Ed98sKpGTv1YuAbZ0ZtZ2bIdRxTgGwloPOPXgeyJnvxH59Berw0PptVe/WlQoD9b8PaCDLdO2RSWqADEDTgxrwhntsjp/JvL4J82f8clPF/9m+/3KJcDGTmyD6tF0YTFoDtd0hpVWE+uqjnW0S+vgf0XO/77mLwHtRTOoHkWAsE0JXNOxjueP3Dzp088YF4FT0Wx3EnyAmEHzc7qu4IKOXegUXe2Gckmn+uosLcCRKxMiQQ+qxzAGwrgHnNDw0LEL1+EhZlxEB+IZXIcjO6btC1rQFQjbs8MVHSzXBv7he/3eUl0vsv8piw7hTNDbvwcbIOywC1eKmVZdB8vbuvla5OD3LDqEE0Hv3BtyF9YJ4QFb45+KvP2tv/BQWuVoYO1+ULkEtLUV8qaLQQbIaCJHIrJXuQC0oOGhC/+GsGXGW3RDRsDSnmkTgxNcFxb7XMGFIcNjGdN84Uhw+2WFWIEkdeg8/NNpuqGEh9LXMu5h5heyE1zbGFSAmDKNKbvoTFeWF9uwh4QQgQM7oXVlBdOFRdcVbGl49LHGwyW6s+BAMF1ZIVUgdF2hsz7CQ1eXX/yj8rAVKhE4EExbGUSA0HUFG32Ex4s3i61JdFHgqeOKgRCBpWC6sgbvwqLrCjb0ECg9x8Olum4mX58HaGHwrqwQKpCoD5XHcPS3eJeNum7P/uHv6hv14z8vGnyXtBJhsSEsDN52Dhogo4kcsmAQXbhe56Hhod1V67Yf0WDRgLlzuM8VK9ZhYc+0oYMZrAuLs83RlTa4uj2JK203QHS9t5YG0u7vRK6/qlwCNn77DHmW+pAVyDHhgbaKxtuVLrvnXpp/46oS0SA6+zVbwaOTrSG7sgapQEYT2ReRLyoXgDW0gb38D3dbsttuvV6cL7LjqAtKpwzr6wE6+Gg2nR+859VQFQgD52hNG2tX4fH6b/bndtyacZOrNeMmbez9aDElGehgkDbVe4CYQR/WfKAVbVhd/aav6zr0vA4Xhz65DhFdz6JThoGWdoYYUPfahcXAObpwuQajr7PLXXdnfXQscv73ysPAOt4H1H1XIEeEB9rQQXNX4aFVwuEfKg874boS0UH17fcrDwPrbJk21htvFYg5ovaflQvACvpb/fX/uJku6+usctevWaf3Ai390NcRuD4rEAbO0crZb+IKDylVIi6m+Gp3mJ5tArTkra31EiBm2u7jygVghaNHi1lJtnyGR8HlOhE92+SAKSdo57Fpc3vnqwIJ8jxfhEnHPZ4/sn9p2oDrgLnP8ChoiLgarNcZaIyHoCUvbW7vAWKSkP2u0IiOIbhYC9Fkb6u+nV252YBxy9E9QVb2fFQhPioQDopCY0f/5mYqrM62GjI8CroB40sHey5odx7rQ9BS721vrwEymshYRB5WLgA1tOvKxXnmehhU3ZbsQ9Ew05XvtnRciK4stPDQtMG96bsCYewDjbnoptGG+uhN5eHBjU/t14jQlYUOem2DewsQqg+0od0ztl1XN18vGuoQ3ZoBfduZWdqVxawstNBrFdJnBUL1gUZ04PzIwawrV/tb9cXVzCxdG8LW72iht7a4lwCh+kAb2iDaLhh89scwBs030ZlZtoPquiMxA+poobcqpK8KhOoDjeigsO5Aa0PP0dAzy2Nx9Cf78RANEAbU0UIvbbLzADFzj6k+0Iht11WxWDAmtw5e85ajbj9k42Ef60L6qECoPtCIi+pDZ1zFeJa4dre9sJwtpveOKgQtOG+bnQYIq87Rhu1v0LF1XS3T8LPtyqIKQQvOV6e7rkC8n4iFOLmoPmLruqpz+MeaB1ugCkFLTttoZwFizvtgx100YjuL6EWkXVfL9NTBU8tV82PLIEZWHpu22gmXFQhjH2hE1zDYNHo6cB5z19Uy3erEZoEhU3rRkrO22kmAmLPODyoXgBq6ktpm3Yc2uCEvGGzr1jIQtywDGdk5MG22NVcVyJizztHU+Gfdb5VuVxLSRomuaIDYVCE29xTZ2TJttjVXAcLgORrRAV+bkwZ1EV6KbKsQvacMpqMFJ222dYCwcBBt2GwEmGr1UbCtQthkES04WVjoogKh+kBjNo3cyV8qDyXFtgohQNCSdds9ms1mlQcb/+PFdLB/Vi4AK8ym9Y838f1/T2vwvI52Q/3zv2suNJTDPYJTP5xN5brrE9pWIL2edoW07P+4+9vRtRI5NIy6tsXm9EKbe4wsWbXhBAi82bcYPNdt0H3TI3Z3HZzP3pZNV90QrxdRGyZAGDxHW11/O9aBZd8Bousq3v5W5PyZ/zUW+l67DqZTgaAlq8F0mwqE6gOtdP3t+PwflYd6peeOvzJnj+siPf1/35sWdn3PNlOkka3ObXmnAGHlOdrS7Uu6rj7X/aJ80fCo2+Tx+aPFNV9s3jPrQdBS55XpXSuQA1aeo43dH3S/XT4CRANOu6vqwqOg13yFCAECj7a6FgQ2AQI0tv1e93vV91nnRXg06f7xFSI279nmXiNbfgLElDps245Wuv5WbHvgUhPHvxTZaTE+4ytEur53KhB08LhLN1aXCoTBc3jT99qPVWMem+i/6XtgnQWB8Kx1206AIFs6PdfmVEQdWGf7ECSk3wAxW5fwI4Po6ZTiVw66obSCocsIidhpe1ph2wqEwXMkwdUYhk5N9jm9F+hZqzaeAEF2dOyizaD5Jjp7i2NlkYh+AsSM0O9VLgAR0Sm7fTT2GkoPLI7pBQKx12Y2VpsKhOoD3rneHFDDw+Y89lW2eggmNkbEQBq39QQIvOi6ME4bZpe/2ffZ1eTyuW22ful74SWS10uAWB9/iHzZrGmw2QalTKfc9lF9FPS5XU3rtXnPrB+BpcZtfaMAGU3Y+wp2Lv/V/Z/bnCPyzvN42OrcVbeTzXu2udeAtvWmzd+oaQVC9QEr+lvx0Gdc+BhTcPVabc5OoQKBA43a/KYBwvgHrHXtm9dpsjnNcNL32vVcD8Y/4IibCsSsTOTkQViz2aI8py1DbN6rz7NTkLSHTValN6lA6L6CEzYnC45/VnkoWTbv1ffpjUjaxra/SYDQfQUnbH471i4d2z2nfHTv2H4OfY82x9JSgcChjW0/FQi8ev237p/Ndvt0H7OTbD+HzXu0ubdADbsKZDSRXabvwqWzy+5Ppluv21QhZ1fdZ4I1oc+tn6MrfW8228vb3FugxpbJgJXWBgjVB1yzaWDFnB7Y1a1lA7+JPrfNFFqb9yYO7i1QY20GECDwShvY0792/4yPf2K31uLoTT9ViD6nPndX+p70vXWl95T1H+jB2gzYFCBryxegixOLABFzlkfXdSHXX9k19Kvoc+pzd/HAwZkitvcUWGFtBqwMENZ/oC86U+jm6+5P/vA9u+6e4z/bVUHL9Ln0OTu/nl8u3lNXei+ZfYWerF0PsjJA6L5Cn47+ZPfkOtg8thhwHn/mJkT0OfS5Or8Oy3PZxcG9BDZYmQXrAmRt6QLY0C4XmypE6ZnmNuMh2vA//azbmIj+G/23NuGhr932XHa9h3RfoWcrs2BdgKxMHcAFF785n/3abpNEbXy3/1Pk5RfNgkT/jv5d/Tc2Dbe+Zn3ttqg+4MHKLBjNZrPKg7IYA6m/ADh0+Vv788m1Ud//1M1Kc92HShv35cpGxxj0+V1MldXnP39mfzbJ1Zciu7+rPAw4N5vKqO45awNkNJknzheVC4Bj2lB/cWj/nBoi2p0U+loIDSidceXiYKuPjhk8hzcfzaZyvvzJVnVhrezzAlzSBtDFYLY2yJ//2n67kz7pa9PX6CI89J4RHvCoNhMIEAzu8A/uFvc9f7ToHrLdeNElfS36mp47Cje9V3rPAI9qM2FVgKyc9wu4dvuN3WymZbqbrY6tHP68csk7fQ36Wmx22F2m94pV5/CsNhNWjYFUHwR6pgvqPvnI7efQaa7a4Pru7tGxneNf2E8QWKYzwKg+MIS6gfRKgJjdF9/yFcIQtKvH5W/rBZ2xpKvF+14zoQsDtepwHRzq4h+L2WbAQD6cTeWdPZ/rAkQPEfmcrxCGoPtCaYj00QBLacv14sMFnVlVfLgYIK+jAajhQdcVBvTxbCpn5U//3ZrXUjtYAvhQjIe4WCdRR5/zSWn7EP2tXru3dCPE668XB0KtaqQ13HZ/ILL93mJgXLup+qiWlhVTlFe9LsATzQYCBGG7NL9t9xUiZRoAPkKgK5eLJAFLlWyom4X1oPII4FkRIn2eIBg6wgOBqWRDXYDsVR4BBpBziBAeCFAlG94JkHX7vgNDuDT7PV1l1JAWe1wRHgjNckYsVyAECIKjA9z62/jrv6X/tdH3qO+16+mGQM8IEMRHZyAd/F7k2R/T/eLpe9P3yGwrBIwAQbx0MeCHiXVp6XvR92RzLC7gydoAqUzTAkJTjIu8eBP/l0bfA+MdiMjaAKlM0wJCdfRG5If/FefYiL5mfe1HCYQgsrI2QOjCQlR0sFnHDfRwJV1VHjp9jfpa9TUzUI4IvZMR7+yFxS68iJ0eF6ubGRZblYRCD4A64RAoJKC8K+99gIwm8+6r/+MLjBTovlXjny12x+1rY8ZNdHBcQ+PkL8ysQlK+P5vKrSwFCOegI0m68WGxW27f+15pF1Wx0y9dVEjU/fnodZspAknRhlynyBbTZHUXXe3q0g8NF/1v200bdasRnTmlz63/1Q+6p5CbcoAwgI4saENf19hrmGw6S32+7TuVBfJ2nxUECGAQDkAj91lRtxsvAAAblQOERYQAgE3us6IcIGxjAgDY5D4r6MICAHRCgAAAOmEMBADQRu0YyA63EACwwX1W0IUFAOiEAAEAdEKAAAA6IUAAAJ0QIACATggQAEAnBAgAoBMOlPJMj1jVo1YBuKVHB+sRwvBnHiCjCRsp+qIHFvV9rCqQo7pDwtCP0US2Z1O5pgsLANDWfDuTeYDMpnLJ7QMANFFkBhUIAKATAgQA0AkBAgDohAABAHRCgAAAOiFAAACdECAAgE4IEABAJ+UAueIWAgA2uM+KcoDcrv83AAB8mxXsxhuJm68Xu43CveePuj3lizeVh+CA7lb98D3uZAwIkEhcfyVyRIPVi64BwtejH/s/JkBiUe7CYkNFAMAm91nBGAgAoI37rGAaLwCgk3KAXHMLAQAb3GcFAQIAaKM2QAAAaIxZWACANqqzsGZTZmEBANYrZ8VyF9bN2n8JAMjZOxmxHCAMpAMAVnknI5YDhG4sAMAq72TEcoAwkA4AWOWdjKALCwDQ1NouLAIEALAKAQIA6GR1gMymBAgAoN5yRtRtZXJReQQAkLtKNtQFCFN5AQDLKtlQFyBM5QUALKtkAwECAGiikg11AcJAOgBgWSUbKgEym1ZTBgCQt7psqASIURltBwBkqzYTvlt5ZEFLlb3KoxjM9vsiR4+4/yHh69EP/V5HcCrdV7ImQLRUeVJ5FIN5+J7IcxqsoPD1QEYq3Veypgur9i8DALJUmwm1ATKbynnlQQBAllZlQm2AGFeVRwAAuVmZBesCpDZxAABZWZkF6wKkts8LAJCVlVmwLkBWpg4AIBsrs2BlgJh9328qFwAAubhZd07UygAxVpYuAIDkrc2ATQGysnQBACRvbQYQIACAVdZmwNoAMbsv3lUuAABSd1e3A2/jADHWJhAAIEkb2/5VmymWnYnI48qj8Or2G5GrL8O55zsfiDz4XuXhjW6+Frn+yverzYPuYqubbraVyvcWnDvb9IRNAoQKJAD6A77/aTiv5/yZyN6PKg9vdPIXkaM3vl9tHnR7+S47BKfyvQXnNrb9G7uwWA8CANlZu/6j0GQMRJqUMgCAZDRq85sGCN1YAJCPRm1+owCZTedpxHReAEjfnWnzN2pagQhVCABkoXFb3yZAGAcBgPQ1busJEABAmfsAmU3lVkQuKhcAAKm4MG292wAxqEIAIF2t2ngCBABQ6C9AzMrEq8oFAEDsrpqsPu8cIMZJ5REAQOxat+0ECABAvASIGaF/XbkAAIjV6zazrwpdKhBhMB0AktKpTbcJEPbGAoD43XkNEFPqUIUAQPzOunRfiUUFIgymA0ASOrflnQNkNp3v2MhJhQAQrxvTlndiU4EIVQgARM2qDSdAACBfwwWIWfbOmhAAiM/rtluXLLOtQNRx5REAQOis227rAGEwHQCiYzV4Xvhu5ZFuNMk+5XuoP3s/mod19J4/WnyA7y0MyknPkYsuLDEDMaxMB4Dw3bmaAOUkQFiZDgDR6LzyfJmrCkQdVR4BAITGWVvtLECY0gsAwbOeulvmsgIRpvQCQNCcttFOA8RMC7uoXAAADO3CxdTdMtcViDAWAgBBct42Ow8QFhYCQHCcLBxc1kcFIlQhABCUXtrkXgJkNp0vUqEKAYDh3Zg22bm+KhChCgGAIPTWFvcWIFQhADC43qoP6bkCEaoQABhUr23waDabVR50+gkm81WPDysXMrX9/uIDgFvXXy0+cE+rj+0+b4er7dzXGYvIF2uuZ4VvcgCejPv+NH13YbE6HQD8c77qvE7vAWIwFgIA/nhpc70EiElCduoFgP699lF9iMcKRB1WHgEARNvWegsQswf9y8oFAIArL12e97GJzwpETL8cZ6cDgHt3vsebvQaIOYeXAXUAcO/I1VnnTfW+kLDOaCKXIrJTcwkA0N7VbCq7vu+b7y6sAgPqAODOIG3qIAFippidVi4AANo69TVtd9lQFYiYxGRAHQC6uxuyR2ewAGFAHQCseR84LxtkEP2dFzCZl157lQsAgHV0v6v9Ndd7N2QXVoEBdQBob/C2c/AAmU3nU3pfVC4AAFZ5YdrOQQ3ehVVgbQgANDLImo86IXRhFXo//AQAEhBMWxlMgNCVBQAbBdF1VQimC6tAVxYA1Aqm66oQUhdWga4sAKgKrm0MLkDoygKAiqC6rgrBdWEVWGAIAHODLxhcJcQurMKYvbIAZO4u5G79YAPEHMvIeAiAnI19HlHbVsgViIbIGdu+A8jUqWkDgxV0gBi638tV5VEASNdVDPsEBh8gZqtixkMA5OLOdF0Ntk17UzFUIMXUXnbtBZCDwxCn7NaJIkBkESInIvKycgEA0vHStHVRCHYdyCpsdQIgUcFtVbJJNBVIyT7jIQASc2fatqhEFyBmYCm6Gw0Aa+zHMGi+LMYKpBhUf1q5AADxeRrLoPmyKANEGFQHkIaoBs2XRTeIvmw0ma/UfFy5AABhez2bykHMX6NoK5CSMSvVAUTmKoW9/qKvQGRRhWyLzPsQtyoXASAsOuNqN+RNEptKoQIpdu5lei+A0N2ZGVfRh4ekEiDy7cwstn8HELJxrDOu6iQTIPLt9u9M7wUQoqehb8/eVlIBIt9O7yVEAITkaczTdVdJLkDk2xDhICoAIThNMTwk1QCRRYiMCREAAzs1bVGSkg0QIUQADCvp8JDUA0QIEQDDSD48JJWFhE2MJnIuInvhv1IAkbuYTfPYMTz5CqTkgC1PAPTsyrQ1WcgmQErniBAiAPpwFeu5Hl3lVIGUQ+SichEAunudW3hITmMgy0aT+bzsJ5ULANBOFgPmdbKqQMqYnQXAgWzDQ3IOECFEANjJOjwk9wARQgRAN9mHhxAgC+Yb4VnlAgBUPSU8FrIdRK8zmsy/KV7VXAIASXVX3a6oQErMN8bHnGwIYIm2CR8THu+iAqkxmsiuyHzrE85YB1AcQ5vMSYKuUIHUMN8ou6xaB7KnbcAu4VGPAFnBHHq/b1aYAshPsbr8mq99PbqwGhhN5FhEPgn+hQJw5eVsKofczfUIkIaYoQVkg5lWDREgLTC4DiSNwfKWGANpwXxjbTO4DiRHf6a3CY92qEA6YlwESAbjHR1RgXRkvuGesugQiNadGe8gPDqiArFkxkV0wG0n6jcC5EW7rMZ0WdmhArFkvgH32dEXiMYpg+VuUIE4NJrMD9M/YZYWEKQ7U3Wc8eVxgwrEIfONucuZ60BwLsyWJISHQ1QgPRlN5EhEnif55oC4vJhN5z+PcIwA6RED7MCgGCjvGQHiAdUI4B1VhwcEiCdUI4AXVB0eESCeUY0AvaHq8IwAGYCpRnQrlL3s3jzgns6wOqTq8I8AGdBoMt9C4Yh1I0Anuq7jaDad/zKGARAgAxtN5IGpRp5kfSOAdk5N1XHLfRsOARKI0WS+Hcoxg+zAWlcmOM7X/SX4QYAEhm4toBbdVQFiK5PAmB8QPbTqZe73AjBemsOeCI/AUIEEbDSZB4n+0DzO/V4gS69Nd9U1X/4wESARMOMjR0z7RSYuTHcV4xyBI0AiYoJEV7M/zP1eIEk3ZhU5wREJAiRCo4mMTUVCkCAFN6biOOGrGRcCJGIECSJHcESOAEkAQYLIEByJIEASwmA7AsfgeGIIkASZIDlk+i8CodNxjwmO9BAgCTPrSLQiOWBlOzzTleNnpuJgHUeiCJAMmA0bx6YqYZwEfboxi19P2OgwfQRIZujeQk/opsoQAZIp0701Nh9UJejixixsPaGbKk8ECIqqZMxYCRooxjZOqDZAgOCeGSs5MB90caHstQmOM8Y2UCBAUKs08D7mkKtsXZW6qAgNVBAg2MiMlxSVCYsU03ZRqjQY18BaBAhaWerm2mfMJHo6pnFO9xS6IEBgZTS5D5IDZnNF48YExvlsOv8v0AkBAmdMV9c+1UlwylXGOV1TcIUAQW9GE9k1QaIfu1Qo3miFcWlCQwPjMpP3Dc8IEHhTqlCKYGF2lxsXJjAuqTDgEwGCQZlFjLvmY5tZXhtpWFwXgcFiPgyJAEFwTNfXdilYHmQYLBoUt6XK4pquKISGAEE0TBfYqo/YxlduTCVR+aALCrEgQJAMs0Zl17yfImjEVDC7pff5oIfxlytTMRQuS38uQkJMtxNrLZAEAgQA0Ml3uG0AgNZE5P8Bmo8fZj8/jtYAAAAASUVORK5CYII=;" vertex="1" parent="1">
          <mxGeometry x="310" y="320" width="40" height="40" as="geometry" />
        </mxCell>
        <mxCell id="BB8o8y4dJ1L9ylsIL_xW-46" value="Guardian FW" style="text;html=1;align=center;verticalAlign=middle;resizable=0;points=[];autosize=1;" vertex="1" parent="1">
          <mxGeometry x="285" y="360" width="90" height="20" as="geometry" />
        </mxCell>
      </root>
    </mxGraphModel>
  </diagram>
</mxfile>
